<mxfile host="Electron" modified="2023-10-28T15:23:53.282Z" agent="Mozilla/5.0 (Windows NT 10.0; Win64; x64) AppleWebKit/537.36 (KHTML, like Gecko) draw.io/21.6.8 Chrome/114.0.5735.289 Electron/25.5.0 Safari/537.36" etag="kf_Bk6sqy_XYQ_FhEqZ2" version="21.6.8" type="device">
  <diagram name="Page-1" id="pBHFSRT40tA1gqjDEzii">
    <mxGraphModel dx="901" dy="534" grid="1" gridSize="10" guides="1" tooltips="1" connect="1" arrows="1" fold="1" page="1" pageScale="1" pageWidth="850" pageHeight="1100" math="0" shadow="0">
      <root>
        <mxCell id="0" />
        <mxCell id="1" parent="0" />
        <mxCell id="4XcQBWDd-9xv3mYqZWtT-30" value="" style="endArrow=none;html=1;rounded=0;" edge="1" parent="1">
          <mxGeometry width="50" height="50" relative="1" as="geometry">
            <mxPoint x="160" y="640" as="sourcePoint" />
            <mxPoint x="160" y="170" as="targetPoint" />
          </mxGeometry>
        </mxCell>
        <mxCell id="4XcQBWDd-9xv3mYqZWtT-2" value="" style="sketch=0;pointerEvents=1;shadow=0;dashed=0;html=1;strokeColor=none;fillColor=#B3B3B3;labelPosition=center;verticalLabelPosition=bottom;verticalAlign=top;outlineConnect=0;align=center;shape=mxgraph.office.concepts.folder;" vertex="1" parent="1">
          <mxGeometry x="165" y="175" width="15" height="10" as="geometry" />
        </mxCell>
        <mxCell id="4XcQBWDd-9xv3mYqZWtT-3" value=".github" style="text;html=1;strokeColor=none;fillColor=none;align=left;verticalAlign=middle;whiteSpace=wrap;rounded=0;fontFamily=Computer Modern;" vertex="1" parent="1">
          <mxGeometry x="185" y="172.5" width="60" height="15" as="geometry" />
        </mxCell>
        <mxCell id="4XcQBWDd-9xv3mYqZWtT-4" value="" style="sketch=0;pointerEvents=1;shadow=0;dashed=0;html=1;strokeColor=none;fillColor=#B3B3B3;labelPosition=center;verticalLabelPosition=bottom;verticalAlign=top;outlineConnect=0;align=center;shape=mxgraph.office.concepts.folder;" vertex="1" parent="1">
          <mxGeometry x="165" y="192.5" width="15" height="10" as="geometry" />
        </mxCell>
        <mxCell id="4XcQBWDd-9xv3mYqZWtT-5" value="cmake" style="text;html=1;strokeColor=none;fillColor=none;align=left;verticalAlign=middle;whiteSpace=wrap;rounded=0;fontFamily=Computer Modern;" vertex="1" parent="1">
          <mxGeometry x="185" y="190" width="60" height="15" as="geometry" />
        </mxCell>
        <mxCell id="4XcQBWDd-9xv3mYqZWtT-6" value="" style="sketch=0;pointerEvents=1;shadow=0;dashed=0;html=1;strokeColor=none;fillColor=#B3B3B3;labelPosition=center;verticalLabelPosition=bottom;verticalAlign=top;outlineConnect=0;align=center;shape=mxgraph.office.concepts.folder;" vertex="1" parent="1">
          <mxGeometry x="165" y="207.5" width="15" height="10" as="geometry" />
        </mxCell>
        <mxCell id="4XcQBWDd-9xv3mYqZWtT-7" value="docs" style="text;html=1;strokeColor=none;fillColor=none;align=left;verticalAlign=middle;whiteSpace=wrap;rounded=0;fontFamily=Computer Modern;" vertex="1" parent="1">
          <mxGeometry x="185" y="205" width="60" height="15" as="geometry" />
        </mxCell>
        <mxCell id="4XcQBWDd-9xv3mYqZWtT-8" value="" style="sketch=0;pointerEvents=1;shadow=0;dashed=0;html=1;strokeColor=none;fillColor=#B3B3B3;labelPosition=center;verticalLabelPosition=bottom;verticalAlign=top;outlineConnect=0;align=center;shape=mxgraph.office.concepts.folder;" vertex="1" parent="1">
          <mxGeometry x="165" y="222.5" width="15" height="10" as="geometry" />
        </mxCell>
        <mxCell id="4XcQBWDd-9xv3mYqZWtT-9" value="examples" style="text;html=1;strokeColor=none;fillColor=none;align=left;verticalAlign=middle;whiteSpace=wrap;rounded=0;fontFamily=Computer Modern;" vertex="1" parent="1">
          <mxGeometry x="185" y="220" width="60" height="15" as="geometry" />
        </mxCell>
        <mxCell id="4XcQBWDd-9xv3mYqZWtT-10" value="" style="sketch=0;pointerEvents=1;shadow=0;dashed=0;html=1;strokeColor=none;fillColor=#B3B3B3;labelPosition=center;verticalLabelPosition=bottom;verticalAlign=top;outlineConnect=0;align=center;shape=mxgraph.office.concepts.folder;" vertex="1" parent="1">
          <mxGeometry x="165" y="237.5" width="15" height="10" as="geometry" />
        </mxCell>
        <mxCell id="4XcQBWDd-9xv3mYqZWtT-11" value="external" style="text;html=1;strokeColor=none;fillColor=none;align=left;verticalAlign=middle;whiteSpace=wrap;rounded=0;fontFamily=Computer Modern;" vertex="1" parent="1">
          <mxGeometry x="185" y="235" width="60" height="15" as="geometry" />
        </mxCell>
        <mxCell id="4XcQBWDd-9xv3mYqZWtT-12" value="" style="sketch=0;pointerEvents=1;shadow=0;dashed=0;html=1;strokeColor=none;fillColor=#B3B3B3;labelPosition=center;verticalLabelPosition=bottom;verticalAlign=top;outlineConnect=0;align=center;shape=mxgraph.office.concepts.folder;" vertex="1" parent="1">
          <mxGeometry x="165" y="252.5" width="15" height="10" as="geometry" />
        </mxCell>
        <mxCell id="4XcQBWDd-9xv3mYqZWtT-13" value="include" style="text;html=1;strokeColor=none;fillColor=none;align=left;verticalAlign=middle;whiteSpace=wrap;rounded=0;fontFamily=Computer Modern;" vertex="1" parent="1">
          <mxGeometry x="185" y="250" width="60" height="15" as="geometry" />
        </mxCell>
        <mxCell id="4XcQBWDd-9xv3mYqZWtT-15" value="" style="sketch=0;pointerEvents=1;shadow=0;dashed=0;html=1;strokeColor=none;fillColor=#B3B3B3;labelPosition=center;verticalLabelPosition=bottom;verticalAlign=top;outlineConnect=0;align=center;shape=mxgraph.office.concepts.folder;" vertex="1" parent="1">
          <mxGeometry x="180" y="267.5" width="15" height="10" as="geometry" />
        </mxCell>
        <mxCell id="4XcQBWDd-9xv3mYqZWtT-16" value="zero_mate" style="text;html=1;strokeColor=none;fillColor=none;align=left;verticalAlign=middle;whiteSpace=wrap;rounded=0;fontFamily=Computer Modern;" vertex="1" parent="1">
          <mxGeometry x="201" y="265" width="60" height="15" as="geometry" />
        </mxCell>
        <mxCell id="4XcQBWDd-9xv3mYqZWtT-17" value="" style="sketch=0;pointerEvents=1;shadow=0;dashed=0;html=1;strokeColor=none;fillColor=#B3B3B3;labelPosition=center;verticalLabelPosition=bottom;verticalAlign=top;outlineConnect=0;align=center;shape=mxgraph.office.concepts.folder;" vertex="1" parent="1">
          <mxGeometry x="165" y="282.5" width="15" height="10" as="geometry" />
        </mxCell>
        <mxCell id="4XcQBWDd-9xv3mYqZWtT-18" value="lib" style="text;html=1;strokeColor=none;fillColor=none;align=left;verticalAlign=middle;whiteSpace=wrap;rounded=0;fontFamily=Computer Modern;" vertex="1" parent="1">
          <mxGeometry x="185" y="280" width="60" height="15" as="geometry" />
        </mxCell>
        <mxCell id="4XcQBWDd-9xv3mYqZWtT-19" value="" style="sketch=0;pointerEvents=1;shadow=0;dashed=0;html=1;strokeColor=none;fillColor=#B3B3B3;labelPosition=center;verticalLabelPosition=bottom;verticalAlign=top;outlineConnect=0;align=center;shape=mxgraph.office.concepts.folder;" vertex="1" parent="1">
          <mxGeometry x="165" y="297.5" width="15" height="10" as="geometry" />
        </mxCell>
        <mxCell id="4XcQBWDd-9xv3mYqZWtT-20" value="misc" style="text;html=1;strokeColor=none;fillColor=none;align=left;verticalAlign=middle;whiteSpace=wrap;rounded=0;fontFamily=Computer Modern;" vertex="1" parent="1">
          <mxGeometry x="185" y="295" width="60" height="15" as="geometry" />
        </mxCell>
        <mxCell id="4XcQBWDd-9xv3mYqZWtT-21" value="" style="sketch=0;pointerEvents=1;shadow=0;dashed=0;html=1;strokeColor=none;fillColor=#B3B3B3;labelPosition=center;verticalLabelPosition=bottom;verticalAlign=top;outlineConnect=0;align=center;shape=mxgraph.office.concepts.folder;" vertex="1" parent="1">
          <mxGeometry x="165" y="312.5" width="15" height="10" as="geometry" />
        </mxCell>
        <mxCell id="4XcQBWDd-9xv3mYqZWtT-22" value="peripherals" style="text;html=1;strokeColor=none;fillColor=none;align=left;verticalAlign=middle;whiteSpace=wrap;rounded=0;fontFamily=Computer Modern;" vertex="1" parent="1">
          <mxGeometry x="185" y="310" width="60" height="15" as="geometry" />
        </mxCell>
        <mxCell id="4XcQBWDd-9xv3mYqZWtT-24" value="" style="sketch=0;pointerEvents=1;shadow=0;dashed=0;html=1;strokeColor=none;fillColor=#B3B3B3;labelPosition=center;verticalLabelPosition=bottom;verticalAlign=top;outlineConnect=0;align=center;shape=mxgraph.office.concepts.folder;" vertex="1" parent="1">
          <mxGeometry x="165" y="327.5" width="15" height="10" as="geometry" />
        </mxCell>
        <mxCell id="4XcQBWDd-9xv3mYqZWtT-25" value="src" style="text;html=1;strokeColor=none;fillColor=none;align=left;verticalAlign=middle;whiteSpace=wrap;rounded=0;fontFamily=Computer Modern;" vertex="1" parent="1">
          <mxGeometry x="185" y="325" width="60" height="15" as="geometry" />
        </mxCell>
        <mxCell id="4XcQBWDd-9xv3mYqZWtT-26" value="" style="sketch=0;pointerEvents=1;shadow=0;dashed=0;html=1;strokeColor=none;fillColor=#B3B3B3;labelPosition=center;verticalLabelPosition=bottom;verticalAlign=top;outlineConnect=0;align=center;shape=mxgraph.office.concepts.folder;" vertex="1" parent="1">
          <mxGeometry x="165" y="342.5" width="15" height="10" as="geometry" />
        </mxCell>
        <mxCell id="4XcQBWDd-9xv3mYqZWtT-27" value="test" style="text;html=1;strokeColor=none;fillColor=none;align=left;verticalAlign=middle;whiteSpace=wrap;rounded=0;fontFamily=Computer Modern;" vertex="1" parent="1">
          <mxGeometry x="185" y="340" width="60" height="15" as="geometry" />
        </mxCell>
        <mxCell id="4XcQBWDd-9xv3mYqZWtT-28" value="" style="sketch=0;pointerEvents=1;shadow=0;dashed=0;html=1;strokeColor=none;fillColor=#B3B3B3;labelPosition=center;verticalLabelPosition=bottom;verticalAlign=top;outlineConnect=0;align=center;shape=mxgraph.office.concepts.folder;" vertex="1" parent="1">
          <mxGeometry x="165" y="357.5" width="15" height="10" as="geometry" />
        </mxCell>
        <mxCell id="4XcQBWDd-9xv3mYqZWtT-29" value="tools" style="text;html=1;strokeColor=none;fillColor=none;align=left;verticalAlign=middle;whiteSpace=wrap;rounded=0;fontFamily=Computer Modern;" vertex="1" parent="1">
          <mxGeometry x="185" y="355" width="60" height="15" as="geometry" />
        </mxCell>
        <mxCell id="4XcQBWDd-9xv3mYqZWtT-31" value="" style="endArrow=none;html=1;rounded=0;" edge="1" parent="1" source="4XcQBWDd-9xv3mYqZWtT-2">
          <mxGeometry width="50" height="50" relative="1" as="geometry">
            <mxPoint x="170" y="392.659970703125" as="sourcePoint" />
            <mxPoint x="160" y="180" as="targetPoint" />
          </mxGeometry>
        </mxCell>
        <mxCell id="4XcQBWDd-9xv3mYqZWtT-32" value="" style="endArrow=none;html=1;rounded=0;" edge="1" parent="1">
          <mxGeometry width="50" height="50" relative="1" as="geometry">
            <mxPoint x="165" y="197.45" as="sourcePoint" />
            <mxPoint x="160" y="197.45" as="targetPoint" />
          </mxGeometry>
        </mxCell>
        <mxCell id="4XcQBWDd-9xv3mYqZWtT-33" value="" style="endArrow=none;html=1;rounded=0;" edge="1" parent="1">
          <mxGeometry width="50" height="50" relative="1" as="geometry">
            <mxPoint x="165" y="212.45" as="sourcePoint" />
            <mxPoint x="160" y="212.45" as="targetPoint" />
          </mxGeometry>
        </mxCell>
        <mxCell id="4XcQBWDd-9xv3mYqZWtT-34" value="" style="endArrow=none;html=1;rounded=0;" edge="1" parent="1">
          <mxGeometry width="50" height="50" relative="1" as="geometry">
            <mxPoint x="165" y="227.45" as="sourcePoint" />
            <mxPoint x="160" y="227.45" as="targetPoint" />
          </mxGeometry>
        </mxCell>
        <mxCell id="4XcQBWDd-9xv3mYqZWtT-35" value="" style="endArrow=none;html=1;rounded=0;" edge="1" parent="1">
          <mxGeometry width="50" height="50" relative="1" as="geometry">
            <mxPoint x="165" y="242.45999999999998" as="sourcePoint" />
            <mxPoint x="160" y="242.45999999999998" as="targetPoint" />
          </mxGeometry>
        </mxCell>
        <mxCell id="4XcQBWDd-9xv3mYqZWtT-36" value="" style="endArrow=none;html=1;rounded=0;" edge="1" parent="1">
          <mxGeometry width="50" height="50" relative="1" as="geometry">
            <mxPoint x="165" y="257.46" as="sourcePoint" />
            <mxPoint x="160" y="257.46" as="targetPoint" />
          </mxGeometry>
        </mxCell>
        <mxCell id="4XcQBWDd-9xv3mYqZWtT-37" value="" style="endArrow=none;html=1;rounded=0;" edge="1" parent="1">
          <mxGeometry width="50" height="50" relative="1" as="geometry">
            <mxPoint x="180" y="273.46" as="sourcePoint" />
            <mxPoint x="172" y="273.46" as="targetPoint" />
          </mxGeometry>
        </mxCell>
        <mxCell id="4XcQBWDd-9xv3mYqZWtT-38" value="" style="endArrow=none;html=1;rounded=0;" edge="1" parent="1" target="4XcQBWDd-9xv3mYqZWtT-12">
          <mxGeometry width="50" height="50" relative="1" as="geometry">
            <mxPoint x="172.5" y="273" as="sourcePoint" />
            <mxPoint x="172" y="270" as="targetPoint" />
          </mxGeometry>
        </mxCell>
        <mxCell id="4XcQBWDd-9xv3mYqZWtT-39" value="" style="endArrow=none;html=1;rounded=0;" edge="1" parent="1">
          <mxGeometry width="50" height="50" relative="1" as="geometry">
            <mxPoint x="165" y="287.46999999999997" as="sourcePoint" />
            <mxPoint x="160" y="287.46999999999997" as="targetPoint" />
          </mxGeometry>
        </mxCell>
        <mxCell id="4XcQBWDd-9xv3mYqZWtT-40" value="" style="endArrow=none;html=1;rounded=0;" edge="1" parent="1">
          <mxGeometry width="50" height="50" relative="1" as="geometry">
            <mxPoint x="165" y="302.46999999999997" as="sourcePoint" />
            <mxPoint x="160" y="302.46999999999997" as="targetPoint" />
          </mxGeometry>
        </mxCell>
        <mxCell id="4XcQBWDd-9xv3mYqZWtT-41" value="" style="endArrow=none;html=1;rounded=0;" edge="1" parent="1">
          <mxGeometry width="50" height="50" relative="1" as="geometry">
            <mxPoint x="165" y="317.46999999999997" as="sourcePoint" />
            <mxPoint x="160" y="317.46999999999997" as="targetPoint" />
          </mxGeometry>
        </mxCell>
        <mxCell id="4XcQBWDd-9xv3mYqZWtT-42" value="" style="endArrow=none;html=1;rounded=0;" edge="1" parent="1">
          <mxGeometry width="50" height="50" relative="1" as="geometry">
            <mxPoint x="165" y="332.46999999999997" as="sourcePoint" />
            <mxPoint x="160" y="332.46999999999997" as="targetPoint" />
          </mxGeometry>
        </mxCell>
        <mxCell id="4XcQBWDd-9xv3mYqZWtT-43" value="" style="endArrow=none;html=1;rounded=0;" edge="1" parent="1">
          <mxGeometry width="50" height="50" relative="1" as="geometry">
            <mxPoint x="165" y="347.46999999999997" as="sourcePoint" />
            <mxPoint x="160" y="347.46999999999997" as="targetPoint" />
          </mxGeometry>
        </mxCell>
        <mxCell id="4XcQBWDd-9xv3mYqZWtT-44" value="" style="endArrow=none;html=1;rounded=0;" edge="1" parent="1">
          <mxGeometry width="50" height="50" relative="1" as="geometry">
            <mxPoint x="165" y="362.46999999999997" as="sourcePoint" />
            <mxPoint x="160" y="362.46999999999997" as="targetPoint" />
          </mxGeometry>
        </mxCell>
        <mxCell id="4XcQBWDd-9xv3mYqZWtT-49" value="" style="shape=image;verticalLabelPosition=bottom;labelBackgroundColor=default;verticalAlign=top;aspect=fixed;imageAspect=0;image=data:image/svg+xml,PHN2ZyB4bWxuczp4bGluaz0iaHR0cDovL3d3dy53My5vcmcvMTk5OS94bGluayIgeG1sbnM9Imh0dHA6Ly93d3cudzMub3JnLzIwMDAvc3ZnIiB4bWw6c3BhY2U9InByZXNlcnZlIiB2aWV3Qm94PSIwIDAgMjU2IDI1NiIgaGVpZ2h0PSIyNTYiIHdpZHRoPSIyNTYiIHZlcnNpb249IjEuMSI+JiN4YTsmI3hhOzxkZWZzPiYjeGE7PC9kZWZzPiYjeGE7PGcgdHJhbnNmb3JtPSJ0cmFuc2xhdGUoMS40MDY1OTM0MDY1OTM0MDE2IDEuNDA2NTkzNDA2NTkzNDAxNikgc2NhbGUoMi44MSAyLjgxKSIgc3R5bGU9InN0cm9rZTogbm9uZTsgc3Ryb2tlLXdpZHRoOiAwOyBzdHJva2UtZGFzaGFycmF5OiBub25lOyBzdHJva2UtbGluZWNhcDogYnV0dDsgc3Ryb2tlLWxpbmVqb2luOiBtaXRlcjsgc3Ryb2tlLW1pdGVybGltaXQ6IDEwOyBmaWxsOiBub25lOyBmaWxsLXJ1bGU6IG5vbnplcm87IG9wYWNpdHk6IDE7Ij4mI3hhOwk8cGF0aCBzdHJva2UtbGluZWNhcD0icm91bmQiIHRyYW5zZm9ybT0ibWF0cml4KDEgMCAwIDEgMCAwKSIgc3R5bGU9InN0cm9rZTogbm9uZTsgc3Ryb2tlLXdpZHRoOiAxOyBzdHJva2UtZGFzaGFycmF5OiBub25lOyBzdHJva2UtbGluZWNhcDogYnV0dDsgc3Ryb2tlLWxpbmVqb2luOiBtaXRlcjsgc3Ryb2tlLW1pdGVybGltaXQ6IDEwOyBmaWxsOiByZ2IoMCwwLDApOyBmaWxsLXJ1bGU6IG5vbnplcm87IG9wYWNpdHk6IDE7IiBkPSJNIDc3LjQ3NCAxNy4yOCBMIDYxLjUyNiAxLjMzMiBDIDYwLjY2OCAwLjQ3MyA1OS41MjUgMCA1OC4zMTEgMCBIIDE1Ljc0MiBjIC0yLjUwOCAwIC00LjU0OCAyLjA0IC00LjU0OCA0LjU0OCB2IDgwLjkwNCBjIDAgMi41MDggMi4wNCA0LjU0OCA0LjU0OCA0LjU0OCBoIDU4LjUxNiBjIDIuNTA4IDAgNC41NDkgLTIuMDQgNC41NDkgLTQuNTQ4IFYgMjAuNDk2IEMgNzguODA3IDE5LjI4MSA3OC4zMzMgMTguMTM4IDc3LjQ3NCAxNy4yOCB6IE0gNjEuMDczIDUuMTIxIGwgMTIuNjExIDEyLjYxMiBIIDYyLjM1IGMgLTAuNzA0IDAgLTEuMjc2IC0wLjU3MyAtMS4yNzYgLTEuMjc3IFYgNS4xMjEgeiBNIDc0LjI1OCA4NyBIIDE1Ljc0MiBjIC0wLjg1NCAwIC0xLjU0OCAtMC42OTQgLTEuNTQ4IC0xLjU0OCBWIDQuNTQ4IEMgMTQuMTk0IDMuNjk0IDE0Ljg4OCAzIDE1Ljc0MiAzIGggNDIuMzMyIHYgMTMuNDU2IGMgMCAyLjM1OCAxLjkxOCA0LjI3NyA0LjI3NiA0LjI3NyBoIDEzLjQ1NyB2IDY0LjcxOSBDIDc1LjgwNyA4Ni4zMDYgNzUuMTEyIDg3IDc0LjI1OCA4NyB6Ii8+JiN4YTsJPHBhdGggc3Ryb2tlLWxpbmVjYXA9InJvdW5kIiB0cmFuc2Zvcm09Im1hdHJpeCgxIDAgMCAxIDAgMCkiIHN0eWxlPSJzdHJva2U6IG5vbmU7IHN0cm9rZS13aWR0aDogMTsgc3Ryb2tlLWRhc2hhcnJheTogbm9uZTsgc3Ryb2tlLWxpbmVjYXA6IGJ1dHQ7IHN0cm9rZS1saW5lam9pbjogbWl0ZXI7IHN0cm9rZS1taXRlcmxpbWl0OiAxMDsgZmlsbDogcmdiKDAsMCwwKTsgZmlsbC1ydWxlOiBub256ZXJvOyBvcGFjaXR5OiAxOyIgZD0iTSA2OC4xOTMgMzMuMzE5IEggNDEuODA4IGMgLTAuODI5IDAgLTEuNSAtMC42NzEgLTEuNSAtMS41IHMgMC42NzEgLTEuNSAxLjUgLTEuNSBoIDI2LjM4NSBjIDAuODI4IDAgMS41IDAuNjcxIDEuNSAxLjUgUyA2OS4wMjEgMzMuMzE5IDY4LjE5MyAzMy4zMTkgeiIvPiYjeGE7CTxwYXRoIHN0cm9rZS1saW5lY2FwPSJyb3VuZCIgdHJhbnNmb3JtPSJtYXRyaXgoMSAwIDAgMSAwIDApIiBzdHlsZT0ic3Ryb2tlOiBub25lOyBzdHJva2Utd2lkdGg6IDE7IHN0cm9rZS1kYXNoYXJyYXk6IG5vbmU7IHN0cm9rZS1saW5lY2FwOiBidXR0OyBzdHJva2UtbGluZWpvaW46IG1pdGVyOyBzdHJva2UtbWl0ZXJsaW1pdDogMTA7IGZpbGw6IHJnYigwLDAsMCk7IGZpbGwtcnVsZTogbm9uemVybzsgb3BhY2l0eTogMTsiIGQ9Ik0gMzQuNDU2IDMzLjMxOSBIIDIxLjgwNyBjIC0wLjgyOSAwIC0xLjUgLTAuNjcxIC0xLjUgLTEuNSBzIDAuNjcxIC0xLjUgMS41IC0xLjUgaCAxMi42NDkgYyAwLjgyOSAwIDEuNSAwLjY3MSAxLjUgMS41IFMgMzUuMjg1IDMzLjMxOSAzNC40NTYgMzMuMzE5IHoiLz4mI3hhOwk8bGluZWFyR3JhZGllbnQgeTI9IjE5LjIzMzIiIHgyPSI0Mi4yOTg0IiB5MT0iMTkuMjMzMiIgeDE9IjIxLjgwNjQiIGdyYWRpZW50VW5pdHM9InVzZXJTcGFjZU9uVXNlIiBpZD0iU1ZHSURfMSI+JiN4YTs8c3RvcCBzdHlsZT0ic3RvcC1jb2xvcjpyZ2IoMjU1LDI1NSwyNTUpO3N0b3Atb3BhY2l0eTogMSIgb2Zmc2V0PSIwJSIvPiYjeGE7PHN0b3Agc3R5bGU9InN0b3AtY29sb3I6cmdiKDAsMCwwKTtzdG9wLW9wYWNpdHk6IDEiIG9mZnNldD0iMTAwJSIvPiYjeGE7PC9saW5lYXJHcmFkaWVudD4mI3hhOzxsaW5lIHRyYW5zZm9ybT0ibWF0cml4KDEgMCAwIDEgMCAwKSIgc3R5bGU9InN0cm9rZTogbm9uZTsgc3Ryb2tlLXdpZHRoOiAxOyBzdHJva2UtZGFzaGFycmF5OiBub25lOyBzdHJva2UtbGluZWNhcDogYnV0dDsgc3Ryb2tlLWxpbmVqb2luOiBtaXRlcjsgc3Ryb2tlLW1pdGVybGltaXQ6IDEwOyBmaWxsOiB1cmwoI1NWR0lEXzEpOyBmaWxsLXJ1bGU6IG5vbnplcm87IG9wYWNpdHk6IDE7IiB5Mj0iMCIgeDI9IjEwLjI0NiIgeTE9IjAiIHgxPSItMTAuMjQ2Ii8+JiN4YTsJPHBhdGggc3Ryb2tlLWxpbmVjYXA9InJvdW5kIiB0cmFuc2Zvcm09Im1hdHJpeCgxIDAgMCAxIDAgMCkiIHN0eWxlPSJzdHJva2U6IG5vbmU7IHN0cm9rZS13aWR0aDogMTsgc3Ryb2tlLWRhc2hhcnJheTogbm9uZTsgc3Ryb2tlLWxpbmVjYXA6IGJ1dHQ7IHN0cm9rZS1saW5lam9pbjogbWl0ZXI7IHN0cm9rZS1taXRlcmxpbWl0OiAxMDsgZmlsbDogcmdiKDAsMCwwKTsgZmlsbC1ydWxlOiBub256ZXJvOyBvcGFjaXR5OiAxOyIgZD0iTSA0Mi4yOTggMjAuNzMzIEggMjEuODA3IGMgLTAuODI5IDAgLTEuNSAtMC42NzEgLTEuNSAtMS41IHMgMC42NzEgLTEuNSAxLjUgLTEuNSBoIDIwLjQ5MiBjIDAuODI5IDAgMS41IDAuNjcxIDEuNSAxLjUgUyA0My4xMjcgMjAuNzMzIDQyLjI5OCAyMC43MzMgeiIvPiYjeGE7CTxwYXRoIHN0cm9rZS1saW5lY2FwPSJyb3VuZCIgdHJhbnNmb3JtPSJtYXRyaXgoMSAwIDAgMSAwIDApIiBzdHlsZT0ic3Ryb2tlOiBub25lOyBzdHJva2Utd2lkdGg6IDE7IHN0cm9rZS1kYXNoYXJyYXk6IG5vbmU7IHN0cm9rZS1saW5lY2FwOiBidXR0OyBzdHJva2UtbGluZWpvaW46IG1pdGVyOyBzdHJva2UtbWl0ZXJsaW1pdDogMTA7IGZpbGw6IHJnYigwLDAsMCk7IGZpbGwtcnVsZTogbm9uemVybzsgb3BhY2l0eTogMTsiIGQ9Ik0gNjguMTkzIDQ0LjMxOSBIIDIxLjgwNyBjIC0wLjgyOSAwIC0xLjUgLTAuNjcxIC0xLjUgLTEuNSBzIDAuNjcxIC0xLjUgMS41IC0xLjUgaCA0Ni4zODcgYyAwLjgyOCAwIDEuNSAwLjY3MSAxLjUgMS41IFMgNjkuMDIxIDQ0LjMxOSA2OC4xOTMgNDQuMzE5IHoiLz4mI3hhOwk8cGF0aCBzdHJva2UtbGluZWNhcD0icm91bmQiIHRyYW5zZm9ybT0ibWF0cml4KDEgMCAwIDEgMCAwKSIgc3R5bGU9InN0cm9rZTogbm9uZTsgc3Ryb2tlLXdpZHRoOiAxOyBzdHJva2UtZGFzaGFycmF5OiBub25lOyBzdHJva2UtbGluZWNhcDogYnV0dDsgc3Ryb2tlLWxpbmVqb2luOiBtaXRlcjsgc3Ryb2tlLW1pdGVybGltaXQ6IDEwOyBmaWxsOiByZ2IoMCwwLDApOyBmaWxsLXJ1bGU6IG5vbnplcm87IG9wYWNpdHk6IDE7IiBkPSJNIDQ4LjE5MSA1NS4zMTkgSCAyMS44MDcgYyAtMC44MjkgMCAtMS41IC0wLjY3MiAtMS41IC0xLjUgcyAwLjY3MSAtMS41IDEuNSAtMS41IGggMjYuMzg1IGMgMC44MjggMCAxLjUgMC42NzIgMS41IDEuNSBTIDQ5LjAyIDU1LjMxOSA0OC4xOTEgNTUuMzE5IHoiLz4mI3hhOwk8cGF0aCBzdHJva2UtbGluZWNhcD0icm91bmQiIHRyYW5zZm9ybT0ibWF0cml4KDEgMCAwIDEgMCAwKSIgc3R5bGU9InN0cm9rZTogbm9uZTsgc3Ryb2tlLXdpZHRoOiAxOyBzdHJva2UtZGFzaGFycmF5OiBub25lOyBzdHJva2UtbGluZWNhcDogYnV0dDsgc3Ryb2tlLWxpbmVqb2luOiBtaXRlcjsgc3Ryb2tlLW1pdGVybGltaXQ6IDEwOyBmaWxsOiByZ2IoMCwwLDApOyBmaWxsLXJ1bGU6IG5vbnplcm87IG9wYWNpdHk6IDE7IiBkPSJNIDY4LjE5MyA1NS4zMTkgSCA1NS41NDQgYyAtMC44MjggMCAtMS41IC0wLjY3MiAtMS41IC0xLjUgcyAwLjY3MiAtMS41IDEuNSAtMS41IGggMTIuNjQ5IGMgMC44MjggMCAxLjUgMC42NzIgMS41IDEuNSBTIDY5LjAyMSA1NS4zMTkgNjguMTkzIDU1LjMxOSB6Ii8+JiN4YTsJPHBhdGggc3Ryb2tlLWxpbmVjYXA9InJvdW5kIiB0cmFuc2Zvcm09Im1hdHJpeCgxIDAgMCAxIDAgMCkiIHN0eWxlPSJzdHJva2U6IG5vbmU7IHN0cm9rZS13aWR0aDogMTsgc3Ryb2tlLWRhc2hhcnJheTogbm9uZTsgc3Ryb2tlLWxpbmVjYXA6IGJ1dHQ7IHN0cm9rZS1saW5lam9pbjogbWl0ZXI7IHN0cm9rZS1taXRlcmxpbWl0OiAxMDsgZmlsbDogcmdiKDAsMCwwKTsgZmlsbC1ydWxlOiBub256ZXJvOyBvcGFjaXR5OiAxOyIgZD0iTSA2OC4xOTMgNjYuMzE5IEggMjEuODA3IGMgLTAuODI5IDAgLTEuNSAtMC42NzIgLTEuNSAtMS41IHMgMC42NzEgLTEuNSAxLjUgLTEuNSBoIDQ2LjM4NyBjIDAuODI4IDAgMS41IDAuNjcyIDEuNSAxLjUgUyA2OS4wMjEgNjYuMzE5IDY4LjE5MyA2Ni4zMTkgeiIvPiYjeGE7CTxwYXRoIHN0cm9rZS1saW5lY2FwPSJyb3VuZCIgdHJhbnNmb3JtPSJtYXRyaXgoMSAwIDAgMSAwIDApIiBzdHlsZT0ic3Ryb2tlOiBub25lOyBzdHJva2Utd2lkdGg6IDE7IHN0cm9rZS1kYXNoYXJyYXk6IG5vbmU7IHN0cm9rZS1saW5lY2FwOiBidXR0OyBzdHJva2UtbGluZWpvaW46IG1pdGVyOyBzdHJva2UtbWl0ZXJsaW1pdDogMTA7IGZpbGw6IHJnYigwLDAsMCk7IGZpbGwtcnVsZTogbm9uemVybzsgb3BhY2l0eTogMTsiIGQ9Ik0gNjguMTkzIDc3LjMxOSBIIDU1LjU0NCBjIC0wLjgyOCAwIC0xLjUgLTAuNjcyIC0xLjUgLTEuNSBzIDAuNjcyIC0xLjUgMS41IC0xLjUgaCAxMi42NDkgYyAwLjgyOCAwIDEuNSAwLjY3MiAxLjUgMS41IFMgNjkuMDIxIDc3LjMxOSA2OC4xOTMgNzcuMzE5IHoiLz4mI3hhOzwvZz4mI3hhOzwvc3ZnPg==;" vertex="1" parent="1">
          <mxGeometry x="165" y="375" width="15" height="15" as="geometry" />
        </mxCell>
        <mxCell id="4XcQBWDd-9xv3mYqZWtT-50" value=".clang-format" style="text;html=1;strokeColor=none;fillColor=none;align=left;verticalAlign=middle;whiteSpace=wrap;rounded=0;fontFamily=Computer Modern;" vertex="1" parent="1">
          <mxGeometry x="180" y="375" width="85" height="15" as="geometry" />
        </mxCell>
        <mxCell id="4XcQBWDd-9xv3mYqZWtT-51" value="" style="shape=image;verticalLabelPosition=bottom;labelBackgroundColor=default;verticalAlign=top;aspect=fixed;imageAspect=0;image=data:image/svg+xml,PHN2ZyB4bWxuczp4bGluaz0iaHR0cDovL3d3dy53My5vcmcvMTk5OS94bGluayIgeG1sbnM9Imh0dHA6Ly93d3cudzMub3JnLzIwMDAvc3ZnIiB4bWw6c3BhY2U9InByZXNlcnZlIiB2aWV3Qm94PSIwIDAgMjU2IDI1NiIgaGVpZ2h0PSIyNTYiIHdpZHRoPSIyNTYiIHZlcnNpb249IjEuMSI+JiN4YTsmI3hhOzxkZWZzPiYjeGE7PC9kZWZzPiYjeGE7PGcgdHJhbnNmb3JtPSJ0cmFuc2xhdGUoMS40MDY1OTM0MDY1OTM0MDE2IDEuNDA2NTkzNDA2NTkzNDAxNikgc2NhbGUoMi44MSAyLjgxKSIgc3R5bGU9InN0cm9rZTogbm9uZTsgc3Ryb2tlLXdpZHRoOiAwOyBzdHJva2UtZGFzaGFycmF5OiBub25lOyBzdHJva2UtbGluZWNhcDogYnV0dDsgc3Ryb2tlLWxpbmVqb2luOiBtaXRlcjsgc3Ryb2tlLW1pdGVybGltaXQ6IDEwOyBmaWxsOiBub25lOyBmaWxsLXJ1bGU6IG5vbnplcm87IG9wYWNpdHk6IDE7Ij4mI3hhOwk8cGF0aCBzdHJva2UtbGluZWNhcD0icm91bmQiIHRyYW5zZm9ybT0ibWF0cml4KDEgMCAwIDEgMCAwKSIgc3R5bGU9InN0cm9rZTogbm9uZTsgc3Ryb2tlLXdpZHRoOiAxOyBzdHJva2UtZGFzaGFycmF5OiBub25lOyBzdHJva2UtbGluZWNhcDogYnV0dDsgc3Ryb2tlLWxpbmVqb2luOiBtaXRlcjsgc3Ryb2tlLW1pdGVybGltaXQ6IDEwOyBmaWxsOiByZ2IoMCwwLDApOyBmaWxsLXJ1bGU6IG5vbnplcm87IG9wYWNpdHk6IDE7IiBkPSJNIDc3LjQ3NCAxNy4yOCBMIDYxLjUyNiAxLjMzMiBDIDYwLjY2OCAwLjQ3MyA1OS41MjUgMCA1OC4zMTEgMCBIIDE1Ljc0MiBjIC0yLjUwOCAwIC00LjU0OCAyLjA0IC00LjU0OCA0LjU0OCB2IDgwLjkwNCBjIDAgMi41MDggMi4wNCA0LjU0OCA0LjU0OCA0LjU0OCBoIDU4LjUxNiBjIDIuNTA4IDAgNC41NDkgLTIuMDQgNC41NDkgLTQuNTQ4IFYgMjAuNDk2IEMgNzguODA3IDE5LjI4MSA3OC4zMzMgMTguMTM4IDc3LjQ3NCAxNy4yOCB6IE0gNjEuMDczIDUuMTIxIGwgMTIuNjExIDEyLjYxMiBIIDYyLjM1IGMgLTAuNzA0IDAgLTEuMjc2IC0wLjU3MyAtMS4yNzYgLTEuMjc3IFYgNS4xMjEgeiBNIDc0LjI1OCA4NyBIIDE1Ljc0MiBjIC0wLjg1NCAwIC0xLjU0OCAtMC42OTQgLTEuNTQ4IC0xLjU0OCBWIDQuNTQ4IEMgMTQuMTk0IDMuNjk0IDE0Ljg4OCAzIDE1Ljc0MiAzIGggNDIuMzMyIHYgMTMuNDU2IGMgMCAyLjM1OCAxLjkxOCA0LjI3NyA0LjI3NiA0LjI3NyBoIDEzLjQ1NyB2IDY0LjcxOSBDIDc1LjgwNyA4Ni4zMDYgNzUuMTEyIDg3IDc0LjI1OCA4NyB6Ii8+JiN4YTsJPHBhdGggc3Ryb2tlLWxpbmVjYXA9InJvdW5kIiB0cmFuc2Zvcm09Im1hdHJpeCgxIDAgMCAxIDAgMCkiIHN0eWxlPSJzdHJva2U6IG5vbmU7IHN0cm9rZS13aWR0aDogMTsgc3Ryb2tlLWRhc2hhcnJheTogbm9uZTsgc3Ryb2tlLWxpbmVjYXA6IGJ1dHQ7IHN0cm9rZS1saW5lam9pbjogbWl0ZXI7IHN0cm9rZS1taXRlcmxpbWl0OiAxMDsgZmlsbDogcmdiKDAsMCwwKTsgZmlsbC1ydWxlOiBub256ZXJvOyBvcGFjaXR5OiAxOyIgZD0iTSA2OC4xOTMgMzMuMzE5IEggNDEuODA4IGMgLTAuODI5IDAgLTEuNSAtMC42NzEgLTEuNSAtMS41IHMgMC42NzEgLTEuNSAxLjUgLTEuNSBoIDI2LjM4NSBjIDAuODI4IDAgMS41IDAuNjcxIDEuNSAxLjUgUyA2OS4wMjEgMzMuMzE5IDY4LjE5MyAzMy4zMTkgeiIvPiYjeGE7CTxwYXRoIHN0cm9rZS1saW5lY2FwPSJyb3VuZCIgdHJhbnNmb3JtPSJtYXRyaXgoMSAwIDAgMSAwIDApIiBzdHlsZT0ic3Ryb2tlOiBub25lOyBzdHJva2Utd2lkdGg6IDE7IHN0cm9rZS1kYXNoYXJyYXk6IG5vbmU7IHN0cm9rZS1saW5lY2FwOiBidXR0OyBzdHJva2UtbGluZWpvaW46IG1pdGVyOyBzdHJva2UtbWl0ZXJsaW1pdDogMTA7IGZpbGw6IHJnYigwLDAsMCk7IGZpbGwtcnVsZTogbm9uemVybzsgb3BhY2l0eTogMTsiIGQ9Ik0gMzQuNDU2IDMzLjMxOSBIIDIxLjgwNyBjIC0wLjgyOSAwIC0xLjUgLTAuNjcxIC0xLjUgLTEuNSBzIDAuNjcxIC0xLjUgMS41IC0xLjUgaCAxMi42NDkgYyAwLjgyOSAwIDEuNSAwLjY3MSAxLjUgMS41IFMgMzUuMjg1IDMzLjMxOSAzNC40NTYgMzMuMzE5IHoiLz4mI3hhOwk8bGluZWFyR3JhZGllbnQgeTI9IjE5LjIzMzIiIHgyPSI0Mi4yOTg0IiB5MT0iMTkuMjMzMiIgeDE9IjIxLjgwNjQiIGdyYWRpZW50VW5pdHM9InVzZXJTcGFjZU9uVXNlIiBpZD0iU1ZHSURfMSI+JiN4YTs8c3RvcCBzdHlsZT0ic3RvcC1jb2xvcjpyZ2IoMjU1LDI1NSwyNTUpO3N0b3Atb3BhY2l0eTogMSIgb2Zmc2V0PSIwJSIvPiYjeGE7PHN0b3Agc3R5bGU9InN0b3AtY29sb3I6cmdiKDAsMCwwKTtzdG9wLW9wYWNpdHk6IDEiIG9mZnNldD0iMTAwJSIvPiYjeGE7PC9saW5lYXJHcmFkaWVudD4mI3hhOzxsaW5lIHRyYW5zZm9ybT0ibWF0cml4KDEgMCAwIDEgMCAwKSIgc3R5bGU9InN0cm9rZTogbm9uZTsgc3Ryb2tlLXdpZHRoOiAxOyBzdHJva2UtZGFzaGFycmF5OiBub25lOyBzdHJva2UtbGluZWNhcDogYnV0dDsgc3Ryb2tlLWxpbmVqb2luOiBtaXRlcjsgc3Ryb2tlLW1pdGVybGltaXQ6IDEwOyBmaWxsOiB1cmwoI1NWR0lEXzEpOyBmaWxsLXJ1bGU6IG5vbnplcm87IG9wYWNpdHk6IDE7IiB5Mj0iMCIgeDI9IjEwLjI0NiIgeTE9IjAiIHgxPSItMTAuMjQ2Ii8+JiN4YTsJPHBhdGggc3Ryb2tlLWxpbmVjYXA9InJvdW5kIiB0cmFuc2Zvcm09Im1hdHJpeCgxIDAgMCAxIDAgMCkiIHN0eWxlPSJzdHJva2U6IG5vbmU7IHN0cm9rZS13aWR0aDogMTsgc3Ryb2tlLWRhc2hhcnJheTogbm9uZTsgc3Ryb2tlLWxpbmVjYXA6IGJ1dHQ7IHN0cm9rZS1saW5lam9pbjogbWl0ZXI7IHN0cm9rZS1taXRlcmxpbWl0OiAxMDsgZmlsbDogcmdiKDAsMCwwKTsgZmlsbC1ydWxlOiBub256ZXJvOyBvcGFjaXR5OiAxOyIgZD0iTSA0Mi4yOTggMjAuNzMzIEggMjEuODA3IGMgLTAuODI5IDAgLTEuNSAtMC42NzEgLTEuNSAtMS41IHMgMC42NzEgLTEuNSAxLjUgLTEuNSBoIDIwLjQ5MiBjIDAuODI5IDAgMS41IDAuNjcxIDEuNSAxLjUgUyA0My4xMjcgMjAuNzMzIDQyLjI5OCAyMC43MzMgeiIvPiYjeGE7CTxwYXRoIHN0cm9rZS1saW5lY2FwPSJyb3VuZCIgdHJhbnNmb3JtPSJtYXRyaXgoMSAwIDAgMSAwIDApIiBzdHlsZT0ic3Ryb2tlOiBub25lOyBzdHJva2Utd2lkdGg6IDE7IHN0cm9rZS1kYXNoYXJyYXk6IG5vbmU7IHN0cm9rZS1saW5lY2FwOiBidXR0OyBzdHJva2UtbGluZWpvaW46IG1pdGVyOyBzdHJva2UtbWl0ZXJsaW1pdDogMTA7IGZpbGw6IHJnYigwLDAsMCk7IGZpbGwtcnVsZTogbm9uemVybzsgb3BhY2l0eTogMTsiIGQ9Ik0gNjguMTkzIDQ0LjMxOSBIIDIxLjgwNyBjIC0wLjgyOSAwIC0xLjUgLTAuNjcxIC0xLjUgLTEuNSBzIDAuNjcxIC0xLjUgMS41IC0xLjUgaCA0Ni4zODcgYyAwLjgyOCAwIDEuNSAwLjY3MSAxLjUgMS41IFMgNjkuMDIxIDQ0LjMxOSA2OC4xOTMgNDQuMzE5IHoiLz4mI3hhOwk8cGF0aCBzdHJva2UtbGluZWNhcD0icm91bmQiIHRyYW5zZm9ybT0ibWF0cml4KDEgMCAwIDEgMCAwKSIgc3R5bGU9InN0cm9rZTogbm9uZTsgc3Ryb2tlLXdpZHRoOiAxOyBzdHJva2UtZGFzaGFycmF5OiBub25lOyBzdHJva2UtbGluZWNhcDogYnV0dDsgc3Ryb2tlLWxpbmVqb2luOiBtaXRlcjsgc3Ryb2tlLW1pdGVybGltaXQ6IDEwOyBmaWxsOiByZ2IoMCwwLDApOyBmaWxsLXJ1bGU6IG5vbnplcm87IG9wYWNpdHk6IDE7IiBkPSJNIDQ4LjE5MSA1NS4zMTkgSCAyMS44MDcgYyAtMC44MjkgMCAtMS41IC0wLjY3MiAtMS41IC0xLjUgcyAwLjY3MSAtMS41IDEuNSAtMS41IGggMjYuMzg1IGMgMC44MjggMCAxLjUgMC42NzIgMS41IDEuNSBTIDQ5LjAyIDU1LjMxOSA0OC4xOTEgNTUuMzE5IHoiLz4mI3hhOwk8cGF0aCBzdHJva2UtbGluZWNhcD0icm91bmQiIHRyYW5zZm9ybT0ibWF0cml4KDEgMCAwIDEgMCAwKSIgc3R5bGU9InN0cm9rZTogbm9uZTsgc3Ryb2tlLXdpZHRoOiAxOyBzdHJva2UtZGFzaGFycmF5OiBub25lOyBzdHJva2UtbGluZWNhcDogYnV0dDsgc3Ryb2tlLWxpbmVqb2luOiBtaXRlcjsgc3Ryb2tlLW1pdGVybGltaXQ6IDEwOyBmaWxsOiByZ2IoMCwwLDApOyBmaWxsLXJ1bGU6IG5vbnplcm87IG9wYWNpdHk6IDE7IiBkPSJNIDY4LjE5MyA1NS4zMTkgSCA1NS41NDQgYyAtMC44MjggMCAtMS41IC0wLjY3MiAtMS41IC0xLjUgcyAwLjY3MiAtMS41IDEuNSAtMS41IGggMTIuNjQ5IGMgMC44MjggMCAxLjUgMC42NzIgMS41IDEuNSBTIDY5LjAyMSA1NS4zMTkgNjguMTkzIDU1LjMxOSB6Ii8+JiN4YTsJPHBhdGggc3Ryb2tlLWxpbmVjYXA9InJvdW5kIiB0cmFuc2Zvcm09Im1hdHJpeCgxIDAgMCAxIDAgMCkiIHN0eWxlPSJzdHJva2U6IG5vbmU7IHN0cm9rZS13aWR0aDogMTsgc3Ryb2tlLWRhc2hhcnJheTogbm9uZTsgc3Ryb2tlLWxpbmVjYXA6IGJ1dHQ7IHN0cm9rZS1saW5lam9pbjogbWl0ZXI7IHN0cm9rZS1taXRlcmxpbWl0OiAxMDsgZmlsbDogcmdiKDAsMCwwKTsgZmlsbC1ydWxlOiBub256ZXJvOyBvcGFjaXR5OiAxOyIgZD0iTSA2OC4xOTMgNjYuMzE5IEggMjEuODA3IGMgLTAuODI5IDAgLTEuNSAtMC42NzIgLTEuNSAtMS41IHMgMC42NzEgLTEuNSAxLjUgLTEuNSBoIDQ2LjM4NyBjIDAuODI4IDAgMS41IDAuNjcyIDEuNSAxLjUgUyA2OS4wMjEgNjYuMzE5IDY4LjE5MyA2Ni4zMTkgeiIvPiYjeGE7CTxwYXRoIHN0cm9rZS1saW5lY2FwPSJyb3VuZCIgdHJhbnNmb3JtPSJtYXRyaXgoMSAwIDAgMSAwIDApIiBzdHlsZT0ic3Ryb2tlOiBub25lOyBzdHJva2Utd2lkdGg6IDE7IHN0cm9rZS1kYXNoYXJyYXk6IG5vbmU7IHN0cm9rZS1saW5lY2FwOiBidXR0OyBzdHJva2UtbGluZWpvaW46IG1pdGVyOyBzdHJva2UtbWl0ZXJsaW1pdDogMTA7IGZpbGw6IHJnYigwLDAsMCk7IGZpbGwtcnVsZTogbm9uemVybzsgb3BhY2l0eTogMTsiIGQ9Ik0gNjguMTkzIDc3LjMxOSBIIDU1LjU0NCBjIC0wLjgyOCAwIC0xLjUgLTAuNjcyIC0xLjUgLTEuNSBzIDAuNjcyIC0xLjUgMS41IC0xLjUgaCAxMi42NDkgYyAwLjgyOCAwIDEuNSAwLjY3MiAxLjUgMS41IFMgNjkuMDIxIDc3LjMxOSA2OC4xOTMgNzcuMzE5IHoiLz4mI3hhOzwvZz4mI3hhOzwvc3ZnPg==;" vertex="1" parent="1">
          <mxGeometry x="165" y="395" width="15" height="15" as="geometry" />
        </mxCell>
        <mxCell id="4XcQBWDd-9xv3mYqZWtT-52" value=".clang-tidy" style="text;html=1;strokeColor=none;fillColor=none;align=left;verticalAlign=middle;whiteSpace=wrap;rounded=0;fontFamily=Computer Modern;" vertex="1" parent="1">
          <mxGeometry x="180" y="395" width="85" height="15" as="geometry" />
        </mxCell>
        <mxCell id="4XcQBWDd-9xv3mYqZWtT-53" value="" style="shape=image;verticalLabelPosition=bottom;labelBackgroundColor=default;verticalAlign=top;aspect=fixed;imageAspect=0;image=data:image/svg+xml,PHN2ZyB4bWxuczp4bGluaz0iaHR0cDovL3d3dy53My5vcmcvMTk5OS94bGluayIgeG1sbnM9Imh0dHA6Ly93d3cudzMub3JnLzIwMDAvc3ZnIiB4bWw6c3BhY2U9InByZXNlcnZlIiB2aWV3Qm94PSIwIDAgMjU2IDI1NiIgaGVpZ2h0PSIyNTYiIHdpZHRoPSIyNTYiIHZlcnNpb249IjEuMSI+JiN4YTsmI3hhOzxkZWZzPiYjeGE7PC9kZWZzPiYjeGE7PGcgdHJhbnNmb3JtPSJ0cmFuc2xhdGUoMS40MDY1OTM0MDY1OTM0MDE2IDEuNDA2NTkzNDA2NTkzNDAxNikgc2NhbGUoMi44MSAyLjgxKSIgc3R5bGU9InN0cm9rZTogbm9uZTsgc3Ryb2tlLXdpZHRoOiAwOyBzdHJva2UtZGFzaGFycmF5OiBub25lOyBzdHJva2UtbGluZWNhcDogYnV0dDsgc3Ryb2tlLWxpbmVqb2luOiBtaXRlcjsgc3Ryb2tlLW1pdGVybGltaXQ6IDEwOyBmaWxsOiBub25lOyBmaWxsLXJ1bGU6IG5vbnplcm87IG9wYWNpdHk6IDE7Ij4mI3hhOwk8cGF0aCBzdHJva2UtbGluZWNhcD0icm91bmQiIHRyYW5zZm9ybT0ibWF0cml4KDEgMCAwIDEgMCAwKSIgc3R5bGU9InN0cm9rZTogbm9uZTsgc3Ryb2tlLXdpZHRoOiAxOyBzdHJva2UtZGFzaGFycmF5OiBub25lOyBzdHJva2UtbGluZWNhcDogYnV0dDsgc3Ryb2tlLWxpbmVqb2luOiBtaXRlcjsgc3Ryb2tlLW1pdGVybGltaXQ6IDEwOyBmaWxsOiByZ2IoMCwwLDApOyBmaWxsLXJ1bGU6IG5vbnplcm87IG9wYWNpdHk6IDE7IiBkPSJNIDc3LjQ3NCAxNy4yOCBMIDYxLjUyNiAxLjMzMiBDIDYwLjY2OCAwLjQ3MyA1OS41MjUgMCA1OC4zMTEgMCBIIDE1Ljc0MiBjIC0yLjUwOCAwIC00LjU0OCAyLjA0IC00LjU0OCA0LjU0OCB2IDgwLjkwNCBjIDAgMi41MDggMi4wNCA0LjU0OCA0LjU0OCA0LjU0OCBoIDU4LjUxNiBjIDIuNTA4IDAgNC41NDkgLTIuMDQgNC41NDkgLTQuNTQ4IFYgMjAuNDk2IEMgNzguODA3IDE5LjI4MSA3OC4zMzMgMTguMTM4IDc3LjQ3NCAxNy4yOCB6IE0gNjEuMDczIDUuMTIxIGwgMTIuNjExIDEyLjYxMiBIIDYyLjM1IGMgLTAuNzA0IDAgLTEuMjc2IC0wLjU3MyAtMS4yNzYgLTEuMjc3IFYgNS4xMjEgeiBNIDc0LjI1OCA4NyBIIDE1Ljc0MiBjIC0wLjg1NCAwIC0xLjU0OCAtMC42OTQgLTEuNTQ4IC0xLjU0OCBWIDQuNTQ4IEMgMTQuMTk0IDMuNjk0IDE0Ljg4OCAzIDE1Ljc0MiAzIGggNDIuMzMyIHYgMTMuNDU2IGMgMCAyLjM1OCAxLjkxOCA0LjI3NyA0LjI3NiA0LjI3NyBoIDEzLjQ1NyB2IDY0LjcxOSBDIDc1LjgwNyA4Ni4zMDYgNzUuMTEyIDg3IDc0LjI1OCA4NyB6Ii8+JiN4YTsJPHBhdGggc3Ryb2tlLWxpbmVjYXA9InJvdW5kIiB0cmFuc2Zvcm09Im1hdHJpeCgxIDAgMCAxIDAgMCkiIHN0eWxlPSJzdHJva2U6IG5vbmU7IHN0cm9rZS13aWR0aDogMTsgc3Ryb2tlLWRhc2hhcnJheTogbm9uZTsgc3Ryb2tlLWxpbmVjYXA6IGJ1dHQ7IHN0cm9rZS1saW5lam9pbjogbWl0ZXI7IHN0cm9rZS1taXRlcmxpbWl0OiAxMDsgZmlsbDogcmdiKDAsMCwwKTsgZmlsbC1ydWxlOiBub256ZXJvOyBvcGFjaXR5OiAxOyIgZD0iTSA2OC4xOTMgMzMuMzE5IEggNDEuODA4IGMgLTAuODI5IDAgLTEuNSAtMC42NzEgLTEuNSAtMS41IHMgMC42NzEgLTEuNSAxLjUgLTEuNSBoIDI2LjM4NSBjIDAuODI4IDAgMS41IDAuNjcxIDEuNSAxLjUgUyA2OS4wMjEgMzMuMzE5IDY4LjE5MyAzMy4zMTkgeiIvPiYjeGE7CTxwYXRoIHN0cm9rZS1saW5lY2FwPSJyb3VuZCIgdHJhbnNmb3JtPSJtYXRyaXgoMSAwIDAgMSAwIDApIiBzdHlsZT0ic3Ryb2tlOiBub25lOyBzdHJva2Utd2lkdGg6IDE7IHN0cm9rZS1kYXNoYXJyYXk6IG5vbmU7IHN0cm9rZS1saW5lY2FwOiBidXR0OyBzdHJva2UtbGluZWpvaW46IG1pdGVyOyBzdHJva2UtbWl0ZXJsaW1pdDogMTA7IGZpbGw6IHJnYigwLDAsMCk7IGZpbGwtcnVsZTogbm9uemVybzsgb3BhY2l0eTogMTsiIGQ9Ik0gMzQuNDU2IDMzLjMxOSBIIDIxLjgwNyBjIC0wLjgyOSAwIC0xLjUgLTAuNjcxIC0xLjUgLTEuNSBzIDAuNjcxIC0xLjUgMS41IC0xLjUgaCAxMi42NDkgYyAwLjgyOSAwIDEuNSAwLjY3MSAxLjUgMS41IFMgMzUuMjg1IDMzLjMxOSAzNC40NTYgMzMuMzE5IHoiLz4mI3hhOwk8bGluZWFyR3JhZGllbnQgeTI9IjE5LjIzMzIiIHgyPSI0Mi4yOTg0IiB5MT0iMTkuMjMzMiIgeDE9IjIxLjgwNjQiIGdyYWRpZW50VW5pdHM9InVzZXJTcGFjZU9uVXNlIiBpZD0iU1ZHSURfMSI+JiN4YTs8c3RvcCBzdHlsZT0ic3RvcC1jb2xvcjpyZ2IoMjU1LDI1NSwyNTUpO3N0b3Atb3BhY2l0eTogMSIgb2Zmc2V0PSIwJSIvPiYjeGE7PHN0b3Agc3R5bGU9InN0b3AtY29sb3I6cmdiKDAsMCwwKTtzdG9wLW9wYWNpdHk6IDEiIG9mZnNldD0iMTAwJSIvPiYjeGE7PC9saW5lYXJHcmFkaWVudD4mI3hhOzxsaW5lIHRyYW5zZm9ybT0ibWF0cml4KDEgMCAwIDEgMCAwKSIgc3R5bGU9InN0cm9rZTogbm9uZTsgc3Ryb2tlLXdpZHRoOiAxOyBzdHJva2UtZGFzaGFycmF5OiBub25lOyBzdHJva2UtbGluZWNhcDogYnV0dDsgc3Ryb2tlLWxpbmVqb2luOiBtaXRlcjsgc3Ryb2tlLW1pdGVybGltaXQ6IDEwOyBmaWxsOiB1cmwoI1NWR0lEXzEpOyBmaWxsLXJ1bGU6IG5vbnplcm87IG9wYWNpdHk6IDE7IiB5Mj0iMCIgeDI9IjEwLjI0NiIgeTE9IjAiIHgxPSItMTAuMjQ2Ii8+JiN4YTsJPHBhdGggc3Ryb2tlLWxpbmVjYXA9InJvdW5kIiB0cmFuc2Zvcm09Im1hdHJpeCgxIDAgMCAxIDAgMCkiIHN0eWxlPSJzdHJva2U6IG5vbmU7IHN0cm9rZS13aWR0aDogMTsgc3Ryb2tlLWRhc2hhcnJheTogbm9uZTsgc3Ryb2tlLWxpbmVjYXA6IGJ1dHQ7IHN0cm9rZS1saW5lam9pbjogbWl0ZXI7IHN0cm9rZS1taXRlcmxpbWl0OiAxMDsgZmlsbDogcmdiKDAsMCwwKTsgZmlsbC1ydWxlOiBub256ZXJvOyBvcGFjaXR5OiAxOyIgZD0iTSA0Mi4yOTggMjAuNzMzIEggMjEuODA3IGMgLTAuODI5IDAgLTEuNSAtMC42NzEgLTEuNSAtMS41IHMgMC42NzEgLTEuNSAxLjUgLTEuNSBoIDIwLjQ5MiBjIDAuODI5IDAgMS41IDAuNjcxIDEuNSAxLjUgUyA0My4xMjcgMjAuNzMzIDQyLjI5OCAyMC43MzMgeiIvPiYjeGE7CTxwYXRoIHN0cm9rZS1saW5lY2FwPSJyb3VuZCIgdHJhbnNmb3JtPSJtYXRyaXgoMSAwIDAgMSAwIDApIiBzdHlsZT0ic3Ryb2tlOiBub25lOyBzdHJva2Utd2lkdGg6IDE7IHN0cm9rZS1kYXNoYXJyYXk6IG5vbmU7IHN0cm9rZS1saW5lY2FwOiBidXR0OyBzdHJva2UtbGluZWpvaW46IG1pdGVyOyBzdHJva2UtbWl0ZXJsaW1pdDogMTA7IGZpbGw6IHJnYigwLDAsMCk7IGZpbGwtcnVsZTogbm9uemVybzsgb3BhY2l0eTogMTsiIGQ9Ik0gNjguMTkzIDQ0LjMxOSBIIDIxLjgwNyBjIC0wLjgyOSAwIC0xLjUgLTAuNjcxIC0xLjUgLTEuNSBzIDAuNjcxIC0xLjUgMS41IC0xLjUgaCA0Ni4zODcgYyAwLjgyOCAwIDEuNSAwLjY3MSAxLjUgMS41IFMgNjkuMDIxIDQ0LjMxOSA2OC4xOTMgNDQuMzE5IHoiLz4mI3hhOwk8cGF0aCBzdHJva2UtbGluZWNhcD0icm91bmQiIHRyYW5zZm9ybT0ibWF0cml4KDEgMCAwIDEgMCAwKSIgc3R5bGU9InN0cm9rZTogbm9uZTsgc3Ryb2tlLXdpZHRoOiAxOyBzdHJva2UtZGFzaGFycmF5OiBub25lOyBzdHJva2UtbGluZWNhcDogYnV0dDsgc3Ryb2tlLWxpbmVqb2luOiBtaXRlcjsgc3Ryb2tlLW1pdGVybGltaXQ6IDEwOyBmaWxsOiByZ2IoMCwwLDApOyBmaWxsLXJ1bGU6IG5vbnplcm87IG9wYWNpdHk6IDE7IiBkPSJNIDQ4LjE5MSA1NS4zMTkgSCAyMS44MDcgYyAtMC44MjkgMCAtMS41IC0wLjY3MiAtMS41IC0xLjUgcyAwLjY3MSAtMS41IDEuNSAtMS41IGggMjYuMzg1IGMgMC44MjggMCAxLjUgMC42NzIgMS41IDEuNSBTIDQ5LjAyIDU1LjMxOSA0OC4xOTEgNTUuMzE5IHoiLz4mI3hhOwk8cGF0aCBzdHJva2UtbGluZWNhcD0icm91bmQiIHRyYW5zZm9ybT0ibWF0cml4KDEgMCAwIDEgMCAwKSIgc3R5bGU9InN0cm9rZTogbm9uZTsgc3Ryb2tlLXdpZHRoOiAxOyBzdHJva2UtZGFzaGFycmF5OiBub25lOyBzdHJva2UtbGluZWNhcDogYnV0dDsgc3Ryb2tlLWxpbmVqb2luOiBtaXRlcjsgc3Ryb2tlLW1pdGVybGltaXQ6IDEwOyBmaWxsOiByZ2IoMCwwLDApOyBmaWxsLXJ1bGU6IG5vbnplcm87IG9wYWNpdHk6IDE7IiBkPSJNIDY4LjE5MyA1NS4zMTkgSCA1NS41NDQgYyAtMC44MjggMCAtMS41IC0wLjY3MiAtMS41IC0xLjUgcyAwLjY3MiAtMS41IDEuNSAtMS41IGggMTIuNjQ5IGMgMC44MjggMCAxLjUgMC42NzIgMS41IDEuNSBTIDY5LjAyMSA1NS4zMTkgNjguMTkzIDU1LjMxOSB6Ii8+JiN4YTsJPHBhdGggc3Ryb2tlLWxpbmVjYXA9InJvdW5kIiB0cmFuc2Zvcm09Im1hdHJpeCgxIDAgMCAxIDAgMCkiIHN0eWxlPSJzdHJva2U6IG5vbmU7IHN0cm9rZS13aWR0aDogMTsgc3Ryb2tlLWRhc2hhcnJheTogbm9uZTsgc3Ryb2tlLWxpbmVjYXA6IGJ1dHQ7IHN0cm9rZS1saW5lam9pbjogbWl0ZXI7IHN0cm9rZS1taXRlcmxpbWl0OiAxMDsgZmlsbDogcmdiKDAsMCwwKTsgZmlsbC1ydWxlOiBub256ZXJvOyBvcGFjaXR5OiAxOyIgZD0iTSA2OC4xOTMgNjYuMzE5IEggMjEuODA3IGMgLTAuODI5IDAgLTEuNSAtMC42NzIgLTEuNSAtMS41IHMgMC42NzEgLTEuNSAxLjUgLTEuNSBoIDQ2LjM4NyBjIDAuODI4IDAgMS41IDAuNjcyIDEuNSAxLjUgUyA2OS4wMjEgNjYuMzE5IDY4LjE5MyA2Ni4zMTkgeiIvPiYjeGE7CTxwYXRoIHN0cm9rZS1saW5lY2FwPSJyb3VuZCIgdHJhbnNmb3JtPSJtYXRyaXgoMSAwIDAgMSAwIDApIiBzdHlsZT0ic3Ryb2tlOiBub25lOyBzdHJva2Utd2lkdGg6IDE7IHN0cm9rZS1kYXNoYXJyYXk6IG5vbmU7IHN0cm9rZS1saW5lY2FwOiBidXR0OyBzdHJva2UtbGluZWpvaW46IG1pdGVyOyBzdHJva2UtbWl0ZXJsaW1pdDogMTA7IGZpbGw6IHJnYigwLDAsMCk7IGZpbGwtcnVsZTogbm9uemVybzsgb3BhY2l0eTogMTsiIGQ9Ik0gNjguMTkzIDc3LjMxOSBIIDU1LjU0NCBjIC0wLjgyOCAwIC0xLjUgLTAuNjcyIC0xLjUgLTEuNSBzIDAuNjcyIC0xLjUgMS41IC0xLjUgaCAxMi42NDkgYyAwLjgyOCAwIDEuNSAwLjY3MiAxLjUgMS41IFMgNjkuMDIxIDc3LjMxOSA2OC4xOTMgNzcuMzE5IHoiLz4mI3hhOzwvZz4mI3hhOzwvc3ZnPg==;" vertex="1" parent="1">
          <mxGeometry x="165" y="415" width="15" height="15" as="geometry" />
        </mxCell>
        <mxCell id="4XcQBWDd-9xv3mYqZWtT-54" value=".gitignore" style="text;html=1;strokeColor=none;fillColor=none;align=left;verticalAlign=middle;whiteSpace=wrap;rounded=0;fontFamily=Computer Modern;" vertex="1" parent="1">
          <mxGeometry x="180" y="415" width="85" height="15" as="geometry" />
        </mxCell>
        <mxCell id="4XcQBWDd-9xv3mYqZWtT-55" value="" style="shape=image;verticalLabelPosition=bottom;labelBackgroundColor=default;verticalAlign=top;aspect=fixed;imageAspect=0;image=data:image/svg+xml,PHN2ZyB4bWxuczp4bGluaz0iaHR0cDovL3d3dy53My5vcmcvMTk5OS94bGluayIgeG1sbnM9Imh0dHA6Ly93d3cudzMub3JnLzIwMDAvc3ZnIiB4bWw6c3BhY2U9InByZXNlcnZlIiB2aWV3Qm94PSIwIDAgMjU2IDI1NiIgaGVpZ2h0PSIyNTYiIHdpZHRoPSIyNTYiIHZlcnNpb249IjEuMSI+JiN4YTsmI3hhOzxkZWZzPiYjeGE7PC9kZWZzPiYjeGE7PGcgdHJhbnNmb3JtPSJ0cmFuc2xhdGUoMS40MDY1OTM0MDY1OTM0MDE2IDEuNDA2NTkzNDA2NTkzNDAxNikgc2NhbGUoMi44MSAyLjgxKSIgc3R5bGU9InN0cm9rZTogbm9uZTsgc3Ryb2tlLXdpZHRoOiAwOyBzdHJva2UtZGFzaGFycmF5OiBub25lOyBzdHJva2UtbGluZWNhcDogYnV0dDsgc3Ryb2tlLWxpbmVqb2luOiBtaXRlcjsgc3Ryb2tlLW1pdGVybGltaXQ6IDEwOyBmaWxsOiBub25lOyBmaWxsLXJ1bGU6IG5vbnplcm87IG9wYWNpdHk6IDE7Ij4mI3hhOwk8cGF0aCBzdHJva2UtbGluZWNhcD0icm91bmQiIHRyYW5zZm9ybT0ibWF0cml4KDEgMCAwIDEgMCAwKSIgc3R5bGU9InN0cm9rZTogbm9uZTsgc3Ryb2tlLXdpZHRoOiAxOyBzdHJva2UtZGFzaGFycmF5OiBub25lOyBzdHJva2UtbGluZWNhcDogYnV0dDsgc3Ryb2tlLWxpbmVqb2luOiBtaXRlcjsgc3Ryb2tlLW1pdGVybGltaXQ6IDEwOyBmaWxsOiByZ2IoMCwwLDApOyBmaWxsLXJ1bGU6IG5vbnplcm87IG9wYWNpdHk6IDE7IiBkPSJNIDc3LjQ3NCAxNy4yOCBMIDYxLjUyNiAxLjMzMiBDIDYwLjY2OCAwLjQ3MyA1OS41MjUgMCA1OC4zMTEgMCBIIDE1Ljc0MiBjIC0yLjUwOCAwIC00LjU0OCAyLjA0IC00LjU0OCA0LjU0OCB2IDgwLjkwNCBjIDAgMi41MDggMi4wNCA0LjU0OCA0LjU0OCA0LjU0OCBoIDU4LjUxNiBjIDIuNTA4IDAgNC41NDkgLTIuMDQgNC41NDkgLTQuNTQ4IFYgMjAuNDk2IEMgNzguODA3IDE5LjI4MSA3OC4zMzMgMTguMTM4IDc3LjQ3NCAxNy4yOCB6IE0gNjEuMDczIDUuMTIxIGwgMTIuNjExIDEyLjYxMiBIIDYyLjM1IGMgLTAuNzA0IDAgLTEuMjc2IC0wLjU3MyAtMS4yNzYgLTEuMjc3IFYgNS4xMjEgeiBNIDc0LjI1OCA4NyBIIDE1Ljc0MiBjIC0wLjg1NCAwIC0xLjU0OCAtMC42OTQgLTEuNTQ4IC0xLjU0OCBWIDQuNTQ4IEMgMTQuMTk0IDMuNjk0IDE0Ljg4OCAzIDE1Ljc0MiAzIGggNDIuMzMyIHYgMTMuNDU2IGMgMCAyLjM1OCAxLjkxOCA0LjI3NyA0LjI3NiA0LjI3NyBoIDEzLjQ1NyB2IDY0LjcxOSBDIDc1LjgwNyA4Ni4zMDYgNzUuMTEyIDg3IDc0LjI1OCA4NyB6Ii8+JiN4YTsJPHBhdGggc3Ryb2tlLWxpbmVjYXA9InJvdW5kIiB0cmFuc2Zvcm09Im1hdHJpeCgxIDAgMCAxIDAgMCkiIHN0eWxlPSJzdHJva2U6IG5vbmU7IHN0cm9rZS13aWR0aDogMTsgc3Ryb2tlLWRhc2hhcnJheTogbm9uZTsgc3Ryb2tlLWxpbmVjYXA6IGJ1dHQ7IHN0cm9rZS1saW5lam9pbjogbWl0ZXI7IHN0cm9rZS1taXRlcmxpbWl0OiAxMDsgZmlsbDogcmdiKDAsMCwwKTsgZmlsbC1ydWxlOiBub256ZXJvOyBvcGFjaXR5OiAxOyIgZD0iTSA2OC4xOTMgMzMuMzE5IEggNDEuODA4IGMgLTAuODI5IDAgLTEuNSAtMC42NzEgLTEuNSAtMS41IHMgMC42NzEgLTEuNSAxLjUgLTEuNSBoIDI2LjM4NSBjIDAuODI4IDAgMS41IDAuNjcxIDEuNSAxLjUgUyA2OS4wMjEgMzMuMzE5IDY4LjE5MyAzMy4zMTkgeiIvPiYjeGE7CTxwYXRoIHN0cm9rZS1saW5lY2FwPSJyb3VuZCIgdHJhbnNmb3JtPSJtYXRyaXgoMSAwIDAgMSAwIDApIiBzdHlsZT0ic3Ryb2tlOiBub25lOyBzdHJva2Utd2lkdGg6IDE7IHN0cm9rZS1kYXNoYXJyYXk6IG5vbmU7IHN0cm9rZS1saW5lY2FwOiBidXR0OyBzdHJva2UtbGluZWpvaW46IG1pdGVyOyBzdHJva2UtbWl0ZXJsaW1pdDogMTA7IGZpbGw6IHJnYigwLDAsMCk7IGZpbGwtcnVsZTogbm9uemVybzsgb3BhY2l0eTogMTsiIGQ9Ik0gMzQuNDU2IDMzLjMxOSBIIDIxLjgwNyBjIC0wLjgyOSAwIC0xLjUgLTAuNjcxIC0xLjUgLTEuNSBzIDAuNjcxIC0xLjUgMS41IC0xLjUgaCAxMi42NDkgYyAwLjgyOSAwIDEuNSAwLjY3MSAxLjUgMS41IFMgMzUuMjg1IDMzLjMxOSAzNC40NTYgMzMuMzE5IHoiLz4mI3hhOwk8bGluZWFyR3JhZGllbnQgeTI9IjE5LjIzMzIiIHgyPSI0Mi4yOTg0IiB5MT0iMTkuMjMzMiIgeDE9IjIxLjgwNjQiIGdyYWRpZW50VW5pdHM9InVzZXJTcGFjZU9uVXNlIiBpZD0iU1ZHSURfMSI+JiN4YTs8c3RvcCBzdHlsZT0ic3RvcC1jb2xvcjpyZ2IoMjU1LDI1NSwyNTUpO3N0b3Atb3BhY2l0eTogMSIgb2Zmc2V0PSIwJSIvPiYjeGE7PHN0b3Agc3R5bGU9InN0b3AtY29sb3I6cmdiKDAsMCwwKTtzdG9wLW9wYWNpdHk6IDEiIG9mZnNldD0iMTAwJSIvPiYjeGE7PC9saW5lYXJHcmFkaWVudD4mI3hhOzxsaW5lIHRyYW5zZm9ybT0ibWF0cml4KDEgMCAwIDEgMCAwKSIgc3R5bGU9InN0cm9rZTogbm9uZTsgc3Ryb2tlLXdpZHRoOiAxOyBzdHJva2UtZGFzaGFycmF5OiBub25lOyBzdHJva2UtbGluZWNhcDogYnV0dDsgc3Ryb2tlLWxpbmVqb2luOiBtaXRlcjsgc3Ryb2tlLW1pdGVybGltaXQ6IDEwOyBmaWxsOiB1cmwoI1NWR0lEXzEpOyBmaWxsLXJ1bGU6IG5vbnplcm87IG9wYWNpdHk6IDE7IiB5Mj0iMCIgeDI9IjEwLjI0NiIgeTE9IjAiIHgxPSItMTAuMjQ2Ii8+JiN4YTsJPHBhdGggc3Ryb2tlLWxpbmVjYXA9InJvdW5kIiB0cmFuc2Zvcm09Im1hdHJpeCgxIDAgMCAxIDAgMCkiIHN0eWxlPSJzdHJva2U6IG5vbmU7IHN0cm9rZS13aWR0aDogMTsgc3Ryb2tlLWRhc2hhcnJheTogbm9uZTsgc3Ryb2tlLWxpbmVjYXA6IGJ1dHQ7IHN0cm9rZS1saW5lam9pbjogbWl0ZXI7IHN0cm9rZS1taXRlcmxpbWl0OiAxMDsgZmlsbDogcmdiKDAsMCwwKTsgZmlsbC1ydWxlOiBub256ZXJvOyBvcGFjaXR5OiAxOyIgZD0iTSA0Mi4yOTggMjAuNzMzIEggMjEuODA3IGMgLTAuODI5IDAgLTEuNSAtMC42NzEgLTEuNSAtMS41IHMgMC42NzEgLTEuNSAxLjUgLTEuNSBoIDIwLjQ5MiBjIDAuODI5IDAgMS41IDAuNjcxIDEuNSAxLjUgUyA0My4xMjcgMjAuNzMzIDQyLjI5OCAyMC43MzMgeiIvPiYjeGE7CTxwYXRoIHN0cm9rZS1saW5lY2FwPSJyb3VuZCIgdHJhbnNmb3JtPSJtYXRyaXgoMSAwIDAgMSAwIDApIiBzdHlsZT0ic3Ryb2tlOiBub25lOyBzdHJva2Utd2lkdGg6IDE7IHN0cm9rZS1kYXNoYXJyYXk6IG5vbmU7IHN0cm9rZS1saW5lY2FwOiBidXR0OyBzdHJva2UtbGluZWpvaW46IG1pdGVyOyBzdHJva2UtbWl0ZXJsaW1pdDogMTA7IGZpbGw6IHJnYigwLDAsMCk7IGZpbGwtcnVsZTogbm9uemVybzsgb3BhY2l0eTogMTsiIGQ9Ik0gNjguMTkzIDQ0LjMxOSBIIDIxLjgwNyBjIC0wLjgyOSAwIC0xLjUgLTAuNjcxIC0xLjUgLTEuNSBzIDAuNjcxIC0xLjUgMS41IC0xLjUgaCA0Ni4zODcgYyAwLjgyOCAwIDEuNSAwLjY3MSAxLjUgMS41IFMgNjkuMDIxIDQ0LjMxOSA2OC4xOTMgNDQuMzE5IHoiLz4mI3hhOwk8cGF0aCBzdHJva2UtbGluZWNhcD0icm91bmQiIHRyYW5zZm9ybT0ibWF0cml4KDEgMCAwIDEgMCAwKSIgc3R5bGU9InN0cm9rZTogbm9uZTsgc3Ryb2tlLXdpZHRoOiAxOyBzdHJva2UtZGFzaGFycmF5OiBub25lOyBzdHJva2UtbGluZWNhcDogYnV0dDsgc3Ryb2tlLWxpbmVqb2luOiBtaXRlcjsgc3Ryb2tlLW1pdGVybGltaXQ6IDEwOyBmaWxsOiByZ2IoMCwwLDApOyBmaWxsLXJ1bGU6IG5vbnplcm87IG9wYWNpdHk6IDE7IiBkPSJNIDQ4LjE5MSA1NS4zMTkgSCAyMS44MDcgYyAtMC44MjkgMCAtMS41IC0wLjY3MiAtMS41IC0xLjUgcyAwLjY3MSAtMS41IDEuNSAtMS41IGggMjYuMzg1IGMgMC44MjggMCAxLjUgMC42NzIgMS41IDEuNSBTIDQ5LjAyIDU1LjMxOSA0OC4xOTEgNTUuMzE5IHoiLz4mI3hhOwk8cGF0aCBzdHJva2UtbGluZWNhcD0icm91bmQiIHRyYW5zZm9ybT0ibWF0cml4KDEgMCAwIDEgMCAwKSIgc3R5bGU9InN0cm9rZTogbm9uZTsgc3Ryb2tlLXdpZHRoOiAxOyBzdHJva2UtZGFzaGFycmF5OiBub25lOyBzdHJva2UtbGluZWNhcDogYnV0dDsgc3Ryb2tlLWxpbmVqb2luOiBtaXRlcjsgc3Ryb2tlLW1pdGVybGltaXQ6IDEwOyBmaWxsOiByZ2IoMCwwLDApOyBmaWxsLXJ1bGU6IG5vbnplcm87IG9wYWNpdHk6IDE7IiBkPSJNIDY4LjE5MyA1NS4zMTkgSCA1NS41NDQgYyAtMC44MjggMCAtMS41IC0wLjY3MiAtMS41IC0xLjUgcyAwLjY3MiAtMS41IDEuNSAtMS41IGggMTIuNjQ5IGMgMC44MjggMCAxLjUgMC42NzIgMS41IDEuNSBTIDY5LjAyMSA1NS4zMTkgNjguMTkzIDU1LjMxOSB6Ii8+JiN4YTsJPHBhdGggc3Ryb2tlLWxpbmVjYXA9InJvdW5kIiB0cmFuc2Zvcm09Im1hdHJpeCgxIDAgMCAxIDAgMCkiIHN0eWxlPSJzdHJva2U6IG5vbmU7IHN0cm9rZS13aWR0aDogMTsgc3Ryb2tlLWRhc2hhcnJheTogbm9uZTsgc3Ryb2tlLWxpbmVjYXA6IGJ1dHQ7IHN0cm9rZS1saW5lam9pbjogbWl0ZXI7IHN0cm9rZS1taXRlcmxpbWl0OiAxMDsgZmlsbDogcmdiKDAsMCwwKTsgZmlsbC1ydWxlOiBub256ZXJvOyBvcGFjaXR5OiAxOyIgZD0iTSA2OC4xOTMgNjYuMzE5IEggMjEuODA3IGMgLTAuODI5IDAgLTEuNSAtMC42NzIgLTEuNSAtMS41IHMgMC42NzEgLTEuNSAxLjUgLTEuNSBoIDQ2LjM4NyBjIDAuODI4IDAgMS41IDAuNjcyIDEuNSAxLjUgUyA2OS4wMjEgNjYuMzE5IDY4LjE5MyA2Ni4zMTkgeiIvPiYjeGE7CTxwYXRoIHN0cm9rZS1saW5lY2FwPSJyb3VuZCIgdHJhbnNmb3JtPSJtYXRyaXgoMSAwIDAgMSAwIDApIiBzdHlsZT0ic3Ryb2tlOiBub25lOyBzdHJva2Utd2lkdGg6IDE7IHN0cm9rZS1kYXNoYXJyYXk6IG5vbmU7IHN0cm9rZS1saW5lY2FwOiBidXR0OyBzdHJva2UtbGluZWpvaW46IG1pdGVyOyBzdHJva2UtbWl0ZXJsaW1pdDogMTA7IGZpbGw6IHJnYigwLDAsMCk7IGZpbGwtcnVsZTogbm9uemVybzsgb3BhY2l0eTogMTsiIGQ9Ik0gNjguMTkzIDc3LjMxOSBIIDU1LjU0NCBjIC0wLjgyOCAwIC0xLjUgLTAuNjcyIC0xLjUgLTEuNSBzIDAuNjcyIC0xLjUgMS41IC0xLjUgaCAxMi42NDkgYyAwLjgyOCAwIDEuNSAwLjY3MiAxLjUgMS41IFMgNjkuMDIxIDc3LjMxOSA2OC4xOTMgNzcuMzE5IHoiLz4mI3hhOzwvZz4mI3hhOzwvc3ZnPg==;" vertex="1" parent="1">
          <mxGeometry x="165" y="435" width="15" height="15" as="geometry" />
        </mxCell>
        <mxCell id="4XcQBWDd-9xv3mYqZWtT-56" value=".gitmodules" style="text;html=1;strokeColor=none;fillColor=none;align=left;verticalAlign=middle;whiteSpace=wrap;rounded=0;fontFamily=Computer Modern;" vertex="1" parent="1">
          <mxGeometry x="180" y="435" width="85" height="15" as="geometry" />
        </mxCell>
        <mxCell id="4XcQBWDd-9xv3mYqZWtT-59" value="" style="shape=image;verticalLabelPosition=bottom;labelBackgroundColor=default;verticalAlign=top;aspect=fixed;imageAspect=0;image=data:image/svg+xml,PHN2ZyB4bWxuczp4bGluaz0iaHR0cDovL3d3dy53My5vcmcvMTk5OS94bGluayIgeG1sbnM9Imh0dHA6Ly93d3cudzMub3JnLzIwMDAvc3ZnIiB4bWw6c3BhY2U9InByZXNlcnZlIiB2aWV3Qm94PSIwIDAgMjU2IDI1NiIgaGVpZ2h0PSIyNTYiIHdpZHRoPSIyNTYiIHZlcnNpb249IjEuMSI+JiN4YTsmI3hhOzxkZWZzPiYjeGE7PC9kZWZzPiYjeGE7PGcgdHJhbnNmb3JtPSJ0cmFuc2xhdGUoMS40MDY1OTM0MDY1OTM0MDE2IDEuNDA2NTkzNDA2NTkzNDAxNikgc2NhbGUoMi44MSAyLjgxKSIgc3R5bGU9InN0cm9rZTogbm9uZTsgc3Ryb2tlLXdpZHRoOiAwOyBzdHJva2UtZGFzaGFycmF5OiBub25lOyBzdHJva2UtbGluZWNhcDogYnV0dDsgc3Ryb2tlLWxpbmVqb2luOiBtaXRlcjsgc3Ryb2tlLW1pdGVybGltaXQ6IDEwOyBmaWxsOiBub25lOyBmaWxsLXJ1bGU6IG5vbnplcm87IG9wYWNpdHk6IDE7Ij4mI3hhOwk8cGF0aCBzdHJva2UtbGluZWNhcD0icm91bmQiIHRyYW5zZm9ybT0ibWF0cml4KDEgMCAwIDEgMCAwKSIgc3R5bGU9InN0cm9rZTogbm9uZTsgc3Ryb2tlLXdpZHRoOiAxOyBzdHJva2UtZGFzaGFycmF5OiBub25lOyBzdHJva2UtbGluZWNhcDogYnV0dDsgc3Ryb2tlLWxpbmVqb2luOiBtaXRlcjsgc3Ryb2tlLW1pdGVybGltaXQ6IDEwOyBmaWxsOiByZ2IoMCwwLDApOyBmaWxsLXJ1bGU6IG5vbnplcm87IG9wYWNpdHk6IDE7IiBkPSJNIDc3LjQ3NCAxNy4yOCBMIDYxLjUyNiAxLjMzMiBDIDYwLjY2OCAwLjQ3MyA1OS41MjUgMCA1OC4zMTEgMCBIIDE1Ljc0MiBjIC0yLjUwOCAwIC00LjU0OCAyLjA0IC00LjU0OCA0LjU0OCB2IDgwLjkwNCBjIDAgMi41MDggMi4wNCA0LjU0OCA0LjU0OCA0LjU0OCBoIDU4LjUxNiBjIDIuNTA4IDAgNC41NDkgLTIuMDQgNC41NDkgLTQuNTQ4IFYgMjAuNDk2IEMgNzguODA3IDE5LjI4MSA3OC4zMzMgMTguMTM4IDc3LjQ3NCAxNy4yOCB6IE0gNjEuMDczIDUuMTIxIGwgMTIuNjExIDEyLjYxMiBIIDYyLjM1IGMgLTAuNzA0IDAgLTEuMjc2IC0wLjU3MyAtMS4yNzYgLTEuMjc3IFYgNS4xMjEgeiBNIDc0LjI1OCA4NyBIIDE1Ljc0MiBjIC0wLjg1NCAwIC0xLjU0OCAtMC42OTQgLTEuNTQ4IC0xLjU0OCBWIDQuNTQ4IEMgMTQuMTk0IDMuNjk0IDE0Ljg4OCAzIDE1Ljc0MiAzIGggNDIuMzMyIHYgMTMuNDU2IGMgMCAyLjM1OCAxLjkxOCA0LjI3NyA0LjI3NiA0LjI3NyBoIDEzLjQ1NyB2IDY0LjcxOSBDIDc1LjgwNyA4Ni4zMDYgNzUuMTEyIDg3IDc0LjI1OCA4NyB6Ii8+JiN4YTsJPHBhdGggc3Ryb2tlLWxpbmVjYXA9InJvdW5kIiB0cmFuc2Zvcm09Im1hdHJpeCgxIDAgMCAxIDAgMCkiIHN0eWxlPSJzdHJva2U6IG5vbmU7IHN0cm9rZS13aWR0aDogMTsgc3Ryb2tlLWRhc2hhcnJheTogbm9uZTsgc3Ryb2tlLWxpbmVjYXA6IGJ1dHQ7IHN0cm9rZS1saW5lam9pbjogbWl0ZXI7IHN0cm9rZS1taXRlcmxpbWl0OiAxMDsgZmlsbDogcmdiKDAsMCwwKTsgZmlsbC1ydWxlOiBub256ZXJvOyBvcGFjaXR5OiAxOyIgZD0iTSA2OC4xOTMgMzMuMzE5IEggNDEuODA4IGMgLTAuODI5IDAgLTEuNSAtMC42NzEgLTEuNSAtMS41IHMgMC42NzEgLTEuNSAxLjUgLTEuNSBoIDI2LjM4NSBjIDAuODI4IDAgMS41IDAuNjcxIDEuNSAxLjUgUyA2OS4wMjEgMzMuMzE5IDY4LjE5MyAzMy4zMTkgeiIvPiYjeGE7CTxwYXRoIHN0cm9rZS1saW5lY2FwPSJyb3VuZCIgdHJhbnNmb3JtPSJtYXRyaXgoMSAwIDAgMSAwIDApIiBzdHlsZT0ic3Ryb2tlOiBub25lOyBzdHJva2Utd2lkdGg6IDE7IHN0cm9rZS1kYXNoYXJyYXk6IG5vbmU7IHN0cm9rZS1saW5lY2FwOiBidXR0OyBzdHJva2UtbGluZWpvaW46IG1pdGVyOyBzdHJva2UtbWl0ZXJsaW1pdDogMTA7IGZpbGw6IHJnYigwLDAsMCk7IGZpbGwtcnVsZTogbm9uemVybzsgb3BhY2l0eTogMTsiIGQ9Ik0gMzQuNDU2IDMzLjMxOSBIIDIxLjgwNyBjIC0wLjgyOSAwIC0xLjUgLTAuNjcxIC0xLjUgLTEuNSBzIDAuNjcxIC0xLjUgMS41IC0xLjUgaCAxMi42NDkgYyAwLjgyOSAwIDEuNSAwLjY3MSAxLjUgMS41IFMgMzUuMjg1IDMzLjMxOSAzNC40NTYgMzMuMzE5IHoiLz4mI3hhOwk8bGluZWFyR3JhZGllbnQgeTI9IjE5LjIzMzIiIHgyPSI0Mi4yOTg0IiB5MT0iMTkuMjMzMiIgeDE9IjIxLjgwNjQiIGdyYWRpZW50VW5pdHM9InVzZXJTcGFjZU9uVXNlIiBpZD0iU1ZHSURfMSI+JiN4YTs8c3RvcCBzdHlsZT0ic3RvcC1jb2xvcjpyZ2IoMjU1LDI1NSwyNTUpO3N0b3Atb3BhY2l0eTogMSIgb2Zmc2V0PSIwJSIvPiYjeGE7PHN0b3Agc3R5bGU9InN0b3AtY29sb3I6cmdiKDAsMCwwKTtzdG9wLW9wYWNpdHk6IDEiIG9mZnNldD0iMTAwJSIvPiYjeGE7PC9saW5lYXJHcmFkaWVudD4mI3hhOzxsaW5lIHRyYW5zZm9ybT0ibWF0cml4KDEgMCAwIDEgMCAwKSIgc3R5bGU9InN0cm9rZTogbm9uZTsgc3Ryb2tlLXdpZHRoOiAxOyBzdHJva2UtZGFzaGFycmF5OiBub25lOyBzdHJva2UtbGluZWNhcDogYnV0dDsgc3Ryb2tlLWxpbmVqb2luOiBtaXRlcjsgc3Ryb2tlLW1pdGVybGltaXQ6IDEwOyBmaWxsOiB1cmwoI1NWR0lEXzEpOyBmaWxsLXJ1bGU6IG5vbnplcm87IG9wYWNpdHk6IDE7IiB5Mj0iMCIgeDI9IjEwLjI0NiIgeTE9IjAiIHgxPSItMTAuMjQ2Ii8+JiN4YTsJPHBhdGggc3Ryb2tlLWxpbmVjYXA9InJvdW5kIiB0cmFuc2Zvcm09Im1hdHJpeCgxIDAgMCAxIDAgMCkiIHN0eWxlPSJzdHJva2U6IG5vbmU7IHN0cm9rZS13aWR0aDogMTsgc3Ryb2tlLWRhc2hhcnJheTogbm9uZTsgc3Ryb2tlLWxpbmVjYXA6IGJ1dHQ7IHN0cm9rZS1saW5lam9pbjogbWl0ZXI7IHN0cm9rZS1taXRlcmxpbWl0OiAxMDsgZmlsbDogcmdiKDAsMCwwKTsgZmlsbC1ydWxlOiBub256ZXJvOyBvcGFjaXR5OiAxOyIgZD0iTSA0Mi4yOTggMjAuNzMzIEggMjEuODA3IGMgLTAuODI5IDAgLTEuNSAtMC42NzEgLTEuNSAtMS41IHMgMC42NzEgLTEuNSAxLjUgLTEuNSBoIDIwLjQ5MiBjIDAuODI5IDAgMS41IDAuNjcxIDEuNSAxLjUgUyA0My4xMjcgMjAuNzMzIDQyLjI5OCAyMC43MzMgeiIvPiYjeGE7CTxwYXRoIHN0cm9rZS1saW5lY2FwPSJyb3VuZCIgdHJhbnNmb3JtPSJtYXRyaXgoMSAwIDAgMSAwIDApIiBzdHlsZT0ic3Ryb2tlOiBub25lOyBzdHJva2Utd2lkdGg6IDE7IHN0cm9rZS1kYXNoYXJyYXk6IG5vbmU7IHN0cm9rZS1saW5lY2FwOiBidXR0OyBzdHJva2UtbGluZWpvaW46IG1pdGVyOyBzdHJva2UtbWl0ZXJsaW1pdDogMTA7IGZpbGw6IHJnYigwLDAsMCk7IGZpbGwtcnVsZTogbm9uemVybzsgb3BhY2l0eTogMTsiIGQ9Ik0gNjguMTkzIDQ0LjMxOSBIIDIxLjgwNyBjIC0wLjgyOSAwIC0xLjUgLTAuNjcxIC0xLjUgLTEuNSBzIDAuNjcxIC0xLjUgMS41IC0xLjUgaCA0Ni4zODcgYyAwLjgyOCAwIDEuNSAwLjY3MSAxLjUgMS41IFMgNjkuMDIxIDQ0LjMxOSA2OC4xOTMgNDQuMzE5IHoiLz4mI3hhOwk8cGF0aCBzdHJva2UtbGluZWNhcD0icm91bmQiIHRyYW5zZm9ybT0ibWF0cml4KDEgMCAwIDEgMCAwKSIgc3R5bGU9InN0cm9rZTogbm9uZTsgc3Ryb2tlLXdpZHRoOiAxOyBzdHJva2UtZGFzaGFycmF5OiBub25lOyBzdHJva2UtbGluZWNhcDogYnV0dDsgc3Ryb2tlLWxpbmVqb2luOiBtaXRlcjsgc3Ryb2tlLW1pdGVybGltaXQ6IDEwOyBmaWxsOiByZ2IoMCwwLDApOyBmaWxsLXJ1bGU6IG5vbnplcm87IG9wYWNpdHk6IDE7IiBkPSJNIDQ4LjE5MSA1NS4zMTkgSCAyMS44MDcgYyAtMC44MjkgMCAtMS41IC0wLjY3MiAtMS41IC0xLjUgcyAwLjY3MSAtMS41IDEuNSAtMS41IGggMjYuMzg1IGMgMC44MjggMCAxLjUgMC42NzIgMS41IDEuNSBTIDQ5LjAyIDU1LjMxOSA0OC4xOTEgNTUuMzE5IHoiLz4mI3hhOwk8cGF0aCBzdHJva2UtbGluZWNhcD0icm91bmQiIHRyYW5zZm9ybT0ibWF0cml4KDEgMCAwIDEgMCAwKSIgc3R5bGU9InN0cm9rZTogbm9uZTsgc3Ryb2tlLXdpZHRoOiAxOyBzdHJva2UtZGFzaGFycmF5OiBub25lOyBzdHJva2UtbGluZWNhcDogYnV0dDsgc3Ryb2tlLWxpbmVqb2luOiBtaXRlcjsgc3Ryb2tlLW1pdGVybGltaXQ6IDEwOyBmaWxsOiByZ2IoMCwwLDApOyBmaWxsLXJ1bGU6IG5vbnplcm87IG9wYWNpdHk6IDE7IiBkPSJNIDY4LjE5MyA1NS4zMTkgSCA1NS41NDQgYyAtMC44MjggMCAtMS41IC0wLjY3MiAtMS41IC0xLjUgcyAwLjY3MiAtMS41IDEuNSAtMS41IGggMTIuNjQ5IGMgMC44MjggMCAxLjUgMC42NzIgMS41IDEuNSBTIDY5LjAyMSA1NS4zMTkgNjguMTkzIDU1LjMxOSB6Ii8+JiN4YTsJPHBhdGggc3Ryb2tlLWxpbmVjYXA9InJvdW5kIiB0cmFuc2Zvcm09Im1hdHJpeCgxIDAgMCAxIDAgMCkiIHN0eWxlPSJzdHJva2U6IG5vbmU7IHN0cm9rZS13aWR0aDogMTsgc3Ryb2tlLWRhc2hhcnJheTogbm9uZTsgc3Ryb2tlLWxpbmVjYXA6IGJ1dHQ7IHN0cm9rZS1saW5lam9pbjogbWl0ZXI7IHN0cm9rZS1taXRlcmxpbWl0OiAxMDsgZmlsbDogcmdiKDAsMCwwKTsgZmlsbC1ydWxlOiBub256ZXJvOyBvcGFjaXR5OiAxOyIgZD0iTSA2OC4xOTMgNjYuMzE5IEggMjEuODA3IGMgLTAuODI5IDAgLTEuNSAtMC42NzIgLTEuNSAtMS41IHMgMC42NzEgLTEuNSAxLjUgLTEuNSBoIDQ2LjM4NyBjIDAuODI4IDAgMS41IDAuNjcyIDEuNSAxLjUgUyA2OS4wMjEgNjYuMzE5IDY4LjE5MyA2Ni4zMTkgeiIvPiYjeGE7CTxwYXRoIHN0cm9rZS1saW5lY2FwPSJyb3VuZCIgdHJhbnNmb3JtPSJtYXRyaXgoMSAwIDAgMSAwIDApIiBzdHlsZT0ic3Ryb2tlOiBub25lOyBzdHJva2Utd2lkdGg6IDE7IHN0cm9rZS1kYXNoYXJyYXk6IG5vbmU7IHN0cm9rZS1saW5lY2FwOiBidXR0OyBzdHJva2UtbGluZWpvaW46IG1pdGVyOyBzdHJva2UtbWl0ZXJsaW1pdDogMTA7IGZpbGw6IHJnYigwLDAsMCk7IGZpbGwtcnVsZTogbm9uemVybzsgb3BhY2l0eTogMTsiIGQ9Ik0gNjguMTkzIDc3LjMxOSBIIDU1LjU0NCBjIC0wLjgyOCAwIC0xLjUgLTAuNjcyIC0xLjUgLTEuNSBzIDAuNjcyIC0xLjUgMS41IC0xLjUgaCAxMi42NDkgYyAwLjgyOCAwIDEuNSAwLjY3MiAxLjUgMS41IFMgNjkuMDIxIDc3LjMxOSA2OC4xOTMgNzcuMzE5IHoiLz4mI3hhOzwvZz4mI3hhOzwvc3ZnPg==;" vertex="1" parent="1">
          <mxGeometry x="165" y="453" width="15" height="15" as="geometry" />
        </mxCell>
        <mxCell id="4XcQBWDd-9xv3mYqZWtT-60" value="CMakeLists.txt" style="text;html=1;strokeColor=none;fillColor=none;align=left;verticalAlign=middle;whiteSpace=wrap;rounded=0;fontFamily=Computer Modern;" vertex="1" parent="1">
          <mxGeometry x="180" y="453" width="85" height="15" as="geometry" />
        </mxCell>
        <mxCell id="4XcQBWDd-9xv3mYqZWtT-61" value="" style="shape=image;verticalLabelPosition=bottom;labelBackgroundColor=default;verticalAlign=top;aspect=fixed;imageAspect=0;image=data:image/svg+xml,PHN2ZyB4bWxuczp4bGluaz0iaHR0cDovL3d3dy53My5vcmcvMTk5OS94bGluayIgeG1sbnM9Imh0dHA6Ly93d3cudzMub3JnLzIwMDAvc3ZnIiB4bWw6c3BhY2U9InByZXNlcnZlIiB2aWV3Qm94PSIwIDAgMjU2IDI1NiIgaGVpZ2h0PSIyNTYiIHdpZHRoPSIyNTYiIHZlcnNpb249IjEuMSI+JiN4YTsmI3hhOzxkZWZzPiYjeGE7PC9kZWZzPiYjeGE7PGcgdHJhbnNmb3JtPSJ0cmFuc2xhdGUoMS40MDY1OTM0MDY1OTM0MDE2IDEuNDA2NTkzNDA2NTkzNDAxNikgc2NhbGUoMi44MSAyLjgxKSIgc3R5bGU9InN0cm9rZTogbm9uZTsgc3Ryb2tlLXdpZHRoOiAwOyBzdHJva2UtZGFzaGFycmF5OiBub25lOyBzdHJva2UtbGluZWNhcDogYnV0dDsgc3Ryb2tlLWxpbmVqb2luOiBtaXRlcjsgc3Ryb2tlLW1pdGVybGltaXQ6IDEwOyBmaWxsOiBub25lOyBmaWxsLXJ1bGU6IG5vbnplcm87IG9wYWNpdHk6IDE7Ij4mI3hhOwk8cGF0aCBzdHJva2UtbGluZWNhcD0icm91bmQiIHRyYW5zZm9ybT0ibWF0cml4KDEgMCAwIDEgMCAwKSIgc3R5bGU9InN0cm9rZTogbm9uZTsgc3Ryb2tlLXdpZHRoOiAxOyBzdHJva2UtZGFzaGFycmF5OiBub25lOyBzdHJva2UtbGluZWNhcDogYnV0dDsgc3Ryb2tlLWxpbmVqb2luOiBtaXRlcjsgc3Ryb2tlLW1pdGVybGltaXQ6IDEwOyBmaWxsOiByZ2IoMCwwLDApOyBmaWxsLXJ1bGU6IG5vbnplcm87IG9wYWNpdHk6IDE7IiBkPSJNIDc3LjQ3NCAxNy4yOCBMIDYxLjUyNiAxLjMzMiBDIDYwLjY2OCAwLjQ3MyA1OS41MjUgMCA1OC4zMTEgMCBIIDE1Ljc0MiBjIC0yLjUwOCAwIC00LjU0OCAyLjA0IC00LjU0OCA0LjU0OCB2IDgwLjkwNCBjIDAgMi41MDggMi4wNCA0LjU0OCA0LjU0OCA0LjU0OCBoIDU4LjUxNiBjIDIuNTA4IDAgNC41NDkgLTIuMDQgNC41NDkgLTQuNTQ4IFYgMjAuNDk2IEMgNzguODA3IDE5LjI4MSA3OC4zMzMgMTguMTM4IDc3LjQ3NCAxNy4yOCB6IE0gNjEuMDczIDUuMTIxIGwgMTIuNjExIDEyLjYxMiBIIDYyLjM1IGMgLTAuNzA0IDAgLTEuMjc2IC0wLjU3MyAtMS4yNzYgLTEuMjc3IFYgNS4xMjEgeiBNIDc0LjI1OCA4NyBIIDE1Ljc0MiBjIC0wLjg1NCAwIC0xLjU0OCAtMC42OTQgLTEuNTQ4IC0xLjU0OCBWIDQuNTQ4IEMgMTQuMTk0IDMuNjk0IDE0Ljg4OCAzIDE1Ljc0MiAzIGggNDIuMzMyIHYgMTMuNDU2IGMgMCAyLjM1OCAxLjkxOCA0LjI3NyA0LjI3NiA0LjI3NyBoIDEzLjQ1NyB2IDY0LjcxOSBDIDc1LjgwNyA4Ni4zMDYgNzUuMTEyIDg3IDc0LjI1OCA4NyB6Ii8+JiN4YTsJPHBhdGggc3Ryb2tlLWxpbmVjYXA9InJvdW5kIiB0cmFuc2Zvcm09Im1hdHJpeCgxIDAgMCAxIDAgMCkiIHN0eWxlPSJzdHJva2U6IG5vbmU7IHN0cm9rZS13aWR0aDogMTsgc3Ryb2tlLWRhc2hhcnJheTogbm9uZTsgc3Ryb2tlLWxpbmVjYXA6IGJ1dHQ7IHN0cm9rZS1saW5lam9pbjogbWl0ZXI7IHN0cm9rZS1taXRlcmxpbWl0OiAxMDsgZmlsbDogcmdiKDAsMCwwKTsgZmlsbC1ydWxlOiBub256ZXJvOyBvcGFjaXR5OiAxOyIgZD0iTSA2OC4xOTMgMzMuMzE5IEggNDEuODA4IGMgLTAuODI5IDAgLTEuNSAtMC42NzEgLTEuNSAtMS41IHMgMC42NzEgLTEuNSAxLjUgLTEuNSBoIDI2LjM4NSBjIDAuODI4IDAgMS41IDAuNjcxIDEuNSAxLjUgUyA2OS4wMjEgMzMuMzE5IDY4LjE5MyAzMy4zMTkgeiIvPiYjeGE7CTxwYXRoIHN0cm9rZS1saW5lY2FwPSJyb3VuZCIgdHJhbnNmb3JtPSJtYXRyaXgoMSAwIDAgMSAwIDApIiBzdHlsZT0ic3Ryb2tlOiBub25lOyBzdHJva2Utd2lkdGg6IDE7IHN0cm9rZS1kYXNoYXJyYXk6IG5vbmU7IHN0cm9rZS1saW5lY2FwOiBidXR0OyBzdHJva2UtbGluZWpvaW46IG1pdGVyOyBzdHJva2UtbWl0ZXJsaW1pdDogMTA7IGZpbGw6IHJnYigwLDAsMCk7IGZpbGwtcnVsZTogbm9uemVybzsgb3BhY2l0eTogMTsiIGQ9Ik0gMzQuNDU2IDMzLjMxOSBIIDIxLjgwNyBjIC0wLjgyOSAwIC0xLjUgLTAuNjcxIC0xLjUgLTEuNSBzIDAuNjcxIC0xLjUgMS41IC0xLjUgaCAxMi42NDkgYyAwLjgyOSAwIDEuNSAwLjY3MSAxLjUgMS41IFMgMzUuMjg1IDMzLjMxOSAzNC40NTYgMzMuMzE5IHoiLz4mI3hhOwk8bGluZWFyR3JhZGllbnQgeTI9IjE5LjIzMzIiIHgyPSI0Mi4yOTg0IiB5MT0iMTkuMjMzMiIgeDE9IjIxLjgwNjQiIGdyYWRpZW50VW5pdHM9InVzZXJTcGFjZU9uVXNlIiBpZD0iU1ZHSURfMSI+JiN4YTs8c3RvcCBzdHlsZT0ic3RvcC1jb2xvcjpyZ2IoMjU1LDI1NSwyNTUpO3N0b3Atb3BhY2l0eTogMSIgb2Zmc2V0PSIwJSIvPiYjeGE7PHN0b3Agc3R5bGU9InN0b3AtY29sb3I6cmdiKDAsMCwwKTtzdG9wLW9wYWNpdHk6IDEiIG9mZnNldD0iMTAwJSIvPiYjeGE7PC9saW5lYXJHcmFkaWVudD4mI3hhOzxsaW5lIHRyYW5zZm9ybT0ibWF0cml4KDEgMCAwIDEgMCAwKSIgc3R5bGU9InN0cm9rZTogbm9uZTsgc3Ryb2tlLXdpZHRoOiAxOyBzdHJva2UtZGFzaGFycmF5OiBub25lOyBzdHJva2UtbGluZWNhcDogYnV0dDsgc3Ryb2tlLWxpbmVqb2luOiBtaXRlcjsgc3Ryb2tlLW1pdGVybGltaXQ6IDEwOyBmaWxsOiB1cmwoI1NWR0lEXzEpOyBmaWxsLXJ1bGU6IG5vbnplcm87IG9wYWNpdHk6IDE7IiB5Mj0iMCIgeDI9IjEwLjI0NiIgeTE9IjAiIHgxPSItMTAuMjQ2Ii8+JiN4YTsJPHBhdGggc3Ryb2tlLWxpbmVjYXA9InJvdW5kIiB0cmFuc2Zvcm09Im1hdHJpeCgxIDAgMCAxIDAgMCkiIHN0eWxlPSJzdHJva2U6IG5vbmU7IHN0cm9rZS13aWR0aDogMTsgc3Ryb2tlLWRhc2hhcnJheTogbm9uZTsgc3Ryb2tlLWxpbmVjYXA6IGJ1dHQ7IHN0cm9rZS1saW5lam9pbjogbWl0ZXI7IHN0cm9rZS1taXRlcmxpbWl0OiAxMDsgZmlsbDogcmdiKDAsMCwwKTsgZmlsbC1ydWxlOiBub256ZXJvOyBvcGFjaXR5OiAxOyIgZD0iTSA0Mi4yOTggMjAuNzMzIEggMjEuODA3IGMgLTAuODI5IDAgLTEuNSAtMC42NzEgLTEuNSAtMS41IHMgMC42NzEgLTEuNSAxLjUgLTEuNSBoIDIwLjQ5MiBjIDAuODI5IDAgMS41IDAuNjcxIDEuNSAxLjUgUyA0My4xMjcgMjAuNzMzIDQyLjI5OCAyMC43MzMgeiIvPiYjeGE7CTxwYXRoIHN0cm9rZS1saW5lY2FwPSJyb3VuZCIgdHJhbnNmb3JtPSJtYXRyaXgoMSAwIDAgMSAwIDApIiBzdHlsZT0ic3Ryb2tlOiBub25lOyBzdHJva2Utd2lkdGg6IDE7IHN0cm9rZS1kYXNoYXJyYXk6IG5vbmU7IHN0cm9rZS1saW5lY2FwOiBidXR0OyBzdHJva2UtbGluZWpvaW46IG1pdGVyOyBzdHJva2UtbWl0ZXJsaW1pdDogMTA7IGZpbGw6IHJnYigwLDAsMCk7IGZpbGwtcnVsZTogbm9uemVybzsgb3BhY2l0eTogMTsiIGQ9Ik0gNjguMTkzIDQ0LjMxOSBIIDIxLjgwNyBjIC0wLjgyOSAwIC0xLjUgLTAuNjcxIC0xLjUgLTEuNSBzIDAuNjcxIC0xLjUgMS41IC0xLjUgaCA0Ni4zODcgYyAwLjgyOCAwIDEuNSAwLjY3MSAxLjUgMS41IFMgNjkuMDIxIDQ0LjMxOSA2OC4xOTMgNDQuMzE5IHoiLz4mI3hhOwk8cGF0aCBzdHJva2UtbGluZWNhcD0icm91bmQiIHRyYW5zZm9ybT0ibWF0cml4KDEgMCAwIDEgMCAwKSIgc3R5bGU9InN0cm9rZTogbm9uZTsgc3Ryb2tlLXdpZHRoOiAxOyBzdHJva2UtZGFzaGFycmF5OiBub25lOyBzdHJva2UtbGluZWNhcDogYnV0dDsgc3Ryb2tlLWxpbmVqb2luOiBtaXRlcjsgc3Ryb2tlLW1pdGVybGltaXQ6IDEwOyBmaWxsOiByZ2IoMCwwLDApOyBmaWxsLXJ1bGU6IG5vbnplcm87IG9wYWNpdHk6IDE7IiBkPSJNIDQ4LjE5MSA1NS4zMTkgSCAyMS44MDcgYyAtMC44MjkgMCAtMS41IC0wLjY3MiAtMS41IC0xLjUgcyAwLjY3MSAtMS41IDEuNSAtMS41IGggMjYuMzg1IGMgMC44MjggMCAxLjUgMC42NzIgMS41IDEuNSBTIDQ5LjAyIDU1LjMxOSA0OC4xOTEgNTUuMzE5IHoiLz4mI3hhOwk8cGF0aCBzdHJva2UtbGluZWNhcD0icm91bmQiIHRyYW5zZm9ybT0ibWF0cml4KDEgMCAwIDEgMCAwKSIgc3R5bGU9InN0cm9rZTogbm9uZTsgc3Ryb2tlLXdpZHRoOiAxOyBzdHJva2UtZGFzaGFycmF5OiBub25lOyBzdHJva2UtbGluZWNhcDogYnV0dDsgc3Ryb2tlLWxpbmVqb2luOiBtaXRlcjsgc3Ryb2tlLW1pdGVybGltaXQ6IDEwOyBmaWxsOiByZ2IoMCwwLDApOyBmaWxsLXJ1bGU6IG5vbnplcm87IG9wYWNpdHk6IDE7IiBkPSJNIDY4LjE5MyA1NS4zMTkgSCA1NS41NDQgYyAtMC44MjggMCAtMS41IC0wLjY3MiAtMS41IC0xLjUgcyAwLjY3MiAtMS41IDEuNSAtMS41IGggMTIuNjQ5IGMgMC44MjggMCAxLjUgMC42NzIgMS41IDEuNSBTIDY5LjAyMSA1NS4zMTkgNjguMTkzIDU1LjMxOSB6Ii8+JiN4YTsJPHBhdGggc3Ryb2tlLWxpbmVjYXA9InJvdW5kIiB0cmFuc2Zvcm09Im1hdHJpeCgxIDAgMCAxIDAgMCkiIHN0eWxlPSJzdHJva2U6IG5vbmU7IHN0cm9rZS13aWR0aDogMTsgc3Ryb2tlLWRhc2hhcnJheTogbm9uZTsgc3Ryb2tlLWxpbmVjYXA6IGJ1dHQ7IHN0cm9rZS1saW5lam9pbjogbWl0ZXI7IHN0cm9rZS1taXRlcmxpbWl0OiAxMDsgZmlsbDogcmdiKDAsMCwwKTsgZmlsbC1ydWxlOiBub256ZXJvOyBvcGFjaXR5OiAxOyIgZD0iTSA2OC4xOTMgNjYuMzE5IEggMjEuODA3IGMgLTAuODI5IDAgLTEuNSAtMC42NzIgLTEuNSAtMS41IHMgMC42NzEgLTEuNSAxLjUgLTEuNSBoIDQ2LjM4NyBjIDAuODI4IDAgMS41IDAuNjcyIDEuNSAxLjUgUyA2OS4wMjEgNjYuMzE5IDY4LjE5MyA2Ni4zMTkgeiIvPiYjeGE7CTxwYXRoIHN0cm9rZS1saW5lY2FwPSJyb3VuZCIgdHJhbnNmb3JtPSJtYXRyaXgoMSAwIDAgMSAwIDApIiBzdHlsZT0ic3Ryb2tlOiBub25lOyBzdHJva2Utd2lkdGg6IDE7IHN0cm9rZS1kYXNoYXJyYXk6IG5vbmU7IHN0cm9rZS1saW5lY2FwOiBidXR0OyBzdHJva2UtbGluZWpvaW46IG1pdGVyOyBzdHJva2UtbWl0ZXJsaW1pdDogMTA7IGZpbGw6IHJnYigwLDAsMCk7IGZpbGwtcnVsZTogbm9uemVybzsgb3BhY2l0eTogMTsiIGQ9Ik0gNjguMTkzIDc3LjMxOSBIIDU1LjU0NCBjIC0wLjgyOCAwIC0xLjUgLTAuNjcyIC0xLjUgLTEuNSBzIDAuNjcyIC0xLjUgMS41IC0xLjUgaCAxMi42NDkgYyAwLjgyOCAwIDEuNSAwLjY3MiAxLjUgMS41IFMgNjkuMDIxIDc3LjMxOSA2OC4xOTMgNzcuMzE5IHoiLz4mI3hhOzwvZz4mI3hhOzwvc3ZnPg==;" vertex="1" parent="1">
          <mxGeometry x="165" y="473" width="15" height="15" as="geometry" />
        </mxCell>
        <mxCell id="4XcQBWDd-9xv3mYqZWtT-62" value="CMakePresets.json" style="text;html=1;strokeColor=none;fillColor=none;align=left;verticalAlign=middle;whiteSpace=wrap;rounded=0;fontFamily=Computer Modern;" vertex="1" parent="1">
          <mxGeometry x="180" y="473" width="85" height="15" as="geometry" />
        </mxCell>
        <mxCell id="4XcQBWDd-9xv3mYqZWtT-63" value="" style="shape=image;verticalLabelPosition=bottom;labelBackgroundColor=default;verticalAlign=top;aspect=fixed;imageAspect=0;image=data:image/svg+xml,PHN2ZyB4bWxuczp4bGluaz0iaHR0cDovL3d3dy53My5vcmcvMTk5OS94bGluayIgeG1sbnM9Imh0dHA6Ly93d3cudzMub3JnLzIwMDAvc3ZnIiB4bWw6c3BhY2U9InByZXNlcnZlIiB2aWV3Qm94PSIwIDAgMjU2IDI1NiIgaGVpZ2h0PSIyNTYiIHdpZHRoPSIyNTYiIHZlcnNpb249IjEuMSI+JiN4YTsmI3hhOzxkZWZzPiYjeGE7PC9kZWZzPiYjeGE7PGcgdHJhbnNmb3JtPSJ0cmFuc2xhdGUoMS40MDY1OTM0MDY1OTM0MDE2IDEuNDA2NTkzNDA2NTkzNDAxNikgc2NhbGUoMi44MSAyLjgxKSIgc3R5bGU9InN0cm9rZTogbm9uZTsgc3Ryb2tlLXdpZHRoOiAwOyBzdHJva2UtZGFzaGFycmF5OiBub25lOyBzdHJva2UtbGluZWNhcDogYnV0dDsgc3Ryb2tlLWxpbmVqb2luOiBtaXRlcjsgc3Ryb2tlLW1pdGVybGltaXQ6IDEwOyBmaWxsOiBub25lOyBmaWxsLXJ1bGU6IG5vbnplcm87IG9wYWNpdHk6IDE7Ij4mI3hhOwk8cGF0aCBzdHJva2UtbGluZWNhcD0icm91bmQiIHRyYW5zZm9ybT0ibWF0cml4KDEgMCAwIDEgMCAwKSIgc3R5bGU9InN0cm9rZTogbm9uZTsgc3Ryb2tlLXdpZHRoOiAxOyBzdHJva2UtZGFzaGFycmF5OiBub25lOyBzdHJva2UtbGluZWNhcDogYnV0dDsgc3Ryb2tlLWxpbmVqb2luOiBtaXRlcjsgc3Ryb2tlLW1pdGVybGltaXQ6IDEwOyBmaWxsOiByZ2IoMCwwLDApOyBmaWxsLXJ1bGU6IG5vbnplcm87IG9wYWNpdHk6IDE7IiBkPSJNIDc3LjQ3NCAxNy4yOCBMIDYxLjUyNiAxLjMzMiBDIDYwLjY2OCAwLjQ3MyA1OS41MjUgMCA1OC4zMTEgMCBIIDE1Ljc0MiBjIC0yLjUwOCAwIC00LjU0OCAyLjA0IC00LjU0OCA0LjU0OCB2IDgwLjkwNCBjIDAgMi41MDggMi4wNCA0LjU0OCA0LjU0OCA0LjU0OCBoIDU4LjUxNiBjIDIuNTA4IDAgNC41NDkgLTIuMDQgNC41NDkgLTQuNTQ4IFYgMjAuNDk2IEMgNzguODA3IDE5LjI4MSA3OC4zMzMgMTguMTM4IDc3LjQ3NCAxNy4yOCB6IE0gNjEuMDczIDUuMTIxIGwgMTIuNjExIDEyLjYxMiBIIDYyLjM1IGMgLTAuNzA0IDAgLTEuMjc2IC0wLjU3MyAtMS4yNzYgLTEuMjc3IFYgNS4xMjEgeiBNIDc0LjI1OCA4NyBIIDE1Ljc0MiBjIC0wLjg1NCAwIC0xLjU0OCAtMC42OTQgLTEuNTQ4IC0xLjU0OCBWIDQuNTQ4IEMgMTQuMTk0IDMuNjk0IDE0Ljg4OCAzIDE1Ljc0MiAzIGggNDIuMzMyIHYgMTMuNDU2IGMgMCAyLjM1OCAxLjkxOCA0LjI3NyA0LjI3NiA0LjI3NyBoIDEzLjQ1NyB2IDY0LjcxOSBDIDc1LjgwNyA4Ni4zMDYgNzUuMTEyIDg3IDc0LjI1OCA4NyB6Ii8+JiN4YTsJPHBhdGggc3Ryb2tlLWxpbmVjYXA9InJvdW5kIiB0cmFuc2Zvcm09Im1hdHJpeCgxIDAgMCAxIDAgMCkiIHN0eWxlPSJzdHJva2U6IG5vbmU7IHN0cm9rZS13aWR0aDogMTsgc3Ryb2tlLWRhc2hhcnJheTogbm9uZTsgc3Ryb2tlLWxpbmVjYXA6IGJ1dHQ7IHN0cm9rZS1saW5lam9pbjogbWl0ZXI7IHN0cm9rZS1taXRlcmxpbWl0OiAxMDsgZmlsbDogcmdiKDAsMCwwKTsgZmlsbC1ydWxlOiBub256ZXJvOyBvcGFjaXR5OiAxOyIgZD0iTSA2OC4xOTMgMzMuMzE5IEggNDEuODA4IGMgLTAuODI5IDAgLTEuNSAtMC42NzEgLTEuNSAtMS41IHMgMC42NzEgLTEuNSAxLjUgLTEuNSBoIDI2LjM4NSBjIDAuODI4IDAgMS41IDAuNjcxIDEuNSAxLjUgUyA2OS4wMjEgMzMuMzE5IDY4LjE5MyAzMy4zMTkgeiIvPiYjeGE7CTxwYXRoIHN0cm9rZS1saW5lY2FwPSJyb3VuZCIgdHJhbnNmb3JtPSJtYXRyaXgoMSAwIDAgMSAwIDApIiBzdHlsZT0ic3Ryb2tlOiBub25lOyBzdHJva2Utd2lkdGg6IDE7IHN0cm9rZS1kYXNoYXJyYXk6IG5vbmU7IHN0cm9rZS1saW5lY2FwOiBidXR0OyBzdHJva2UtbGluZWpvaW46IG1pdGVyOyBzdHJva2UtbWl0ZXJsaW1pdDogMTA7IGZpbGw6IHJnYigwLDAsMCk7IGZpbGwtcnVsZTogbm9uemVybzsgb3BhY2l0eTogMTsiIGQ9Ik0gMzQuNDU2IDMzLjMxOSBIIDIxLjgwNyBjIC0wLjgyOSAwIC0xLjUgLTAuNjcxIC0xLjUgLTEuNSBzIDAuNjcxIC0xLjUgMS41IC0xLjUgaCAxMi42NDkgYyAwLjgyOSAwIDEuNSAwLjY3MSAxLjUgMS41IFMgMzUuMjg1IDMzLjMxOSAzNC40NTYgMzMuMzE5IHoiLz4mI3hhOwk8bGluZWFyR3JhZGllbnQgeTI9IjE5LjIzMzIiIHgyPSI0Mi4yOTg0IiB5MT0iMTkuMjMzMiIgeDE9IjIxLjgwNjQiIGdyYWRpZW50VW5pdHM9InVzZXJTcGFjZU9uVXNlIiBpZD0iU1ZHSURfMSI+JiN4YTs8c3RvcCBzdHlsZT0ic3RvcC1jb2xvcjpyZ2IoMjU1LDI1NSwyNTUpO3N0b3Atb3BhY2l0eTogMSIgb2Zmc2V0PSIwJSIvPiYjeGE7PHN0b3Agc3R5bGU9InN0b3AtY29sb3I6cmdiKDAsMCwwKTtzdG9wLW9wYWNpdHk6IDEiIG9mZnNldD0iMTAwJSIvPiYjeGE7PC9saW5lYXJHcmFkaWVudD4mI3hhOzxsaW5lIHRyYW5zZm9ybT0ibWF0cml4KDEgMCAwIDEgMCAwKSIgc3R5bGU9InN0cm9rZTogbm9uZTsgc3Ryb2tlLXdpZHRoOiAxOyBzdHJva2UtZGFzaGFycmF5OiBub25lOyBzdHJva2UtbGluZWNhcDogYnV0dDsgc3Ryb2tlLWxpbmVqb2luOiBtaXRlcjsgc3Ryb2tlLW1pdGVybGltaXQ6IDEwOyBmaWxsOiB1cmwoI1NWR0lEXzEpOyBmaWxsLXJ1bGU6IG5vbnplcm87IG9wYWNpdHk6IDE7IiB5Mj0iMCIgeDI9IjEwLjI0NiIgeTE9IjAiIHgxPSItMTAuMjQ2Ii8+JiN4YTsJPHBhdGggc3Ryb2tlLWxpbmVjYXA9InJvdW5kIiB0cmFuc2Zvcm09Im1hdHJpeCgxIDAgMCAxIDAgMCkiIHN0eWxlPSJzdHJva2U6IG5vbmU7IHN0cm9rZS13aWR0aDogMTsgc3Ryb2tlLWRhc2hhcnJheTogbm9uZTsgc3Ryb2tlLWxpbmVjYXA6IGJ1dHQ7IHN0cm9rZS1saW5lam9pbjogbWl0ZXI7IHN0cm9rZS1taXRlcmxpbWl0OiAxMDsgZmlsbDogcmdiKDAsMCwwKTsgZmlsbC1ydWxlOiBub256ZXJvOyBvcGFjaXR5OiAxOyIgZD0iTSA0Mi4yOTggMjAuNzMzIEggMjEuODA3IGMgLTAuODI5IDAgLTEuNSAtMC42NzEgLTEuNSAtMS41IHMgMC42NzEgLTEuNSAxLjUgLTEuNSBoIDIwLjQ5MiBjIDAuODI5IDAgMS41IDAuNjcxIDEuNSAxLjUgUyA0My4xMjcgMjAuNzMzIDQyLjI5OCAyMC43MzMgeiIvPiYjeGE7CTxwYXRoIHN0cm9rZS1saW5lY2FwPSJyb3VuZCIgdHJhbnNmb3JtPSJtYXRyaXgoMSAwIDAgMSAwIDApIiBzdHlsZT0ic3Ryb2tlOiBub25lOyBzdHJva2Utd2lkdGg6IDE7IHN0cm9rZS1kYXNoYXJyYXk6IG5vbmU7IHN0cm9rZS1saW5lY2FwOiBidXR0OyBzdHJva2UtbGluZWpvaW46IG1pdGVyOyBzdHJva2UtbWl0ZXJsaW1pdDogMTA7IGZpbGw6IHJnYigwLDAsMCk7IGZpbGwtcnVsZTogbm9uemVybzsgb3BhY2l0eTogMTsiIGQ9Ik0gNjguMTkzIDQ0LjMxOSBIIDIxLjgwNyBjIC0wLjgyOSAwIC0xLjUgLTAuNjcxIC0xLjUgLTEuNSBzIDAuNjcxIC0xLjUgMS41IC0xLjUgaCA0Ni4zODcgYyAwLjgyOCAwIDEuNSAwLjY3MSAxLjUgMS41IFMgNjkuMDIxIDQ0LjMxOSA2OC4xOTMgNDQuMzE5IHoiLz4mI3hhOwk8cGF0aCBzdHJva2UtbGluZWNhcD0icm91bmQiIHRyYW5zZm9ybT0ibWF0cml4KDEgMCAwIDEgMCAwKSIgc3R5bGU9InN0cm9rZTogbm9uZTsgc3Ryb2tlLXdpZHRoOiAxOyBzdHJva2UtZGFzaGFycmF5OiBub25lOyBzdHJva2UtbGluZWNhcDogYnV0dDsgc3Ryb2tlLWxpbmVqb2luOiBtaXRlcjsgc3Ryb2tlLW1pdGVybGltaXQ6IDEwOyBmaWxsOiByZ2IoMCwwLDApOyBmaWxsLXJ1bGU6IG5vbnplcm87IG9wYWNpdHk6IDE7IiBkPSJNIDQ4LjE5MSA1NS4zMTkgSCAyMS44MDcgYyAtMC44MjkgMCAtMS41IC0wLjY3MiAtMS41IC0xLjUgcyAwLjY3MSAtMS41IDEuNSAtMS41IGggMjYuMzg1IGMgMC44MjggMCAxLjUgMC42NzIgMS41IDEuNSBTIDQ5LjAyIDU1LjMxOSA0OC4xOTEgNTUuMzE5IHoiLz4mI3hhOwk8cGF0aCBzdHJva2UtbGluZWNhcD0icm91bmQiIHRyYW5zZm9ybT0ibWF0cml4KDEgMCAwIDEgMCAwKSIgc3R5bGU9InN0cm9rZTogbm9uZTsgc3Ryb2tlLXdpZHRoOiAxOyBzdHJva2UtZGFzaGFycmF5OiBub25lOyBzdHJva2UtbGluZWNhcDogYnV0dDsgc3Ryb2tlLWxpbmVqb2luOiBtaXRlcjsgc3Ryb2tlLW1pdGVybGltaXQ6IDEwOyBmaWxsOiByZ2IoMCwwLDApOyBmaWxsLXJ1bGU6IG5vbnplcm87IG9wYWNpdHk6IDE7IiBkPSJNIDY4LjE5MyA1NS4zMTkgSCA1NS41NDQgYyAtMC44MjggMCAtMS41IC0wLjY3MiAtMS41IC0xLjUgcyAwLjY3MiAtMS41IDEuNSAtMS41IGggMTIuNjQ5IGMgMC44MjggMCAxLjUgMC42NzIgMS41IDEuNSBTIDY5LjAyMSA1NS4zMTkgNjguMTkzIDU1LjMxOSB6Ii8+JiN4YTsJPHBhdGggc3Ryb2tlLWxpbmVjYXA9InJvdW5kIiB0cmFuc2Zvcm09Im1hdHJpeCgxIDAgMCAxIDAgMCkiIHN0eWxlPSJzdHJva2U6IG5vbmU7IHN0cm9rZS13aWR0aDogMTsgc3Ryb2tlLWRhc2hhcnJheTogbm9uZTsgc3Ryb2tlLWxpbmVjYXA6IGJ1dHQ7IHN0cm9rZS1saW5lam9pbjogbWl0ZXI7IHN0cm9rZS1taXRlcmxpbWl0OiAxMDsgZmlsbDogcmdiKDAsMCwwKTsgZmlsbC1ydWxlOiBub256ZXJvOyBvcGFjaXR5OiAxOyIgZD0iTSA2OC4xOTMgNjYuMzE5IEggMjEuODA3IGMgLTAuODI5IDAgLTEuNSAtMC42NzIgLTEuNSAtMS41IHMgMC42NzEgLTEuNSAxLjUgLTEuNSBoIDQ2LjM4NyBjIDAuODI4IDAgMS41IDAuNjcyIDEuNSAxLjUgUyA2OS4wMjEgNjYuMzE5IDY4LjE5MyA2Ni4zMTkgeiIvPiYjeGE7CTxwYXRoIHN0cm9rZS1saW5lY2FwPSJyb3VuZCIgdHJhbnNmb3JtPSJtYXRyaXgoMSAwIDAgMSAwIDApIiBzdHlsZT0ic3Ryb2tlOiBub25lOyBzdHJva2Utd2lkdGg6IDE7IHN0cm9rZS1kYXNoYXJyYXk6IG5vbmU7IHN0cm9rZS1saW5lY2FwOiBidXR0OyBzdHJva2UtbGluZWpvaW46IG1pdGVyOyBzdHJva2UtbWl0ZXJsaW1pdDogMTA7IGZpbGw6IHJnYigwLDAsMCk7IGZpbGwtcnVsZTogbm9uemVybzsgb3BhY2l0eTogMTsiIGQ9Ik0gNjguMTkzIDc3LjMxOSBIIDU1LjU0NCBjIC0wLjgyOCAwIC0xLjUgLTAuNjcyIC0xLjUgLTEuNSBzIDAuNjcyIC0xLjUgMS41IC0xLjUgaCAxMi42NDkgYyAwLjgyOCAwIDEuNSAwLjY3MiAxLjUgMS41IFMgNjkuMDIxIDc3LjMxOSA2OC4xOTMgNzcuMzE5IHoiLz4mI3hhOzwvZz4mI3hhOzwvc3ZnPg==;" vertex="1" parent="1">
          <mxGeometry x="165" y="493" width="15" height="15" as="geometry" />
        </mxCell>
        <mxCell id="4XcQBWDd-9xv3mYqZWtT-64" value="Doxyfile" style="text;html=1;strokeColor=none;fillColor=none;align=left;verticalAlign=middle;whiteSpace=wrap;rounded=0;fontFamily=Computer Modern;" vertex="1" parent="1">
          <mxGeometry x="180" y="493" width="85" height="15" as="geometry" />
        </mxCell>
        <mxCell id="4XcQBWDd-9xv3mYqZWtT-65" value="" style="shape=image;verticalLabelPosition=bottom;labelBackgroundColor=default;verticalAlign=top;aspect=fixed;imageAspect=0;image=data:image/svg+xml,PHN2ZyB4bWxuczp4bGluaz0iaHR0cDovL3d3dy53My5vcmcvMTk5OS94bGluayIgeG1sbnM9Imh0dHA6Ly93d3cudzMub3JnLzIwMDAvc3ZnIiB4bWw6c3BhY2U9InByZXNlcnZlIiB2aWV3Qm94PSIwIDAgMjU2IDI1NiIgaGVpZ2h0PSIyNTYiIHdpZHRoPSIyNTYiIHZlcnNpb249IjEuMSI+JiN4YTsmI3hhOzxkZWZzPiYjeGE7PC9kZWZzPiYjeGE7PGcgdHJhbnNmb3JtPSJ0cmFuc2xhdGUoMS40MDY1OTM0MDY1OTM0MDE2IDEuNDA2NTkzNDA2NTkzNDAxNikgc2NhbGUoMi44MSAyLjgxKSIgc3R5bGU9InN0cm9rZTogbm9uZTsgc3Ryb2tlLXdpZHRoOiAwOyBzdHJva2UtZGFzaGFycmF5OiBub25lOyBzdHJva2UtbGluZWNhcDogYnV0dDsgc3Ryb2tlLWxpbmVqb2luOiBtaXRlcjsgc3Ryb2tlLW1pdGVybGltaXQ6IDEwOyBmaWxsOiBub25lOyBmaWxsLXJ1bGU6IG5vbnplcm87IG9wYWNpdHk6IDE7Ij4mI3hhOwk8cGF0aCBzdHJva2UtbGluZWNhcD0icm91bmQiIHRyYW5zZm9ybT0ibWF0cml4KDEgMCAwIDEgMCAwKSIgc3R5bGU9InN0cm9rZTogbm9uZTsgc3Ryb2tlLXdpZHRoOiAxOyBzdHJva2UtZGFzaGFycmF5OiBub25lOyBzdHJva2UtbGluZWNhcDogYnV0dDsgc3Ryb2tlLWxpbmVqb2luOiBtaXRlcjsgc3Ryb2tlLW1pdGVybGltaXQ6IDEwOyBmaWxsOiByZ2IoMCwwLDApOyBmaWxsLXJ1bGU6IG5vbnplcm87IG9wYWNpdHk6IDE7IiBkPSJNIDc3LjQ3NCAxNy4yOCBMIDYxLjUyNiAxLjMzMiBDIDYwLjY2OCAwLjQ3MyA1OS41MjUgMCA1OC4zMTEgMCBIIDE1Ljc0MiBjIC0yLjUwOCAwIC00LjU0OCAyLjA0IC00LjU0OCA0LjU0OCB2IDgwLjkwNCBjIDAgMi41MDggMi4wNCA0LjU0OCA0LjU0OCA0LjU0OCBoIDU4LjUxNiBjIDIuNTA4IDAgNC41NDkgLTIuMDQgNC41NDkgLTQuNTQ4IFYgMjAuNDk2IEMgNzguODA3IDE5LjI4MSA3OC4zMzMgMTguMTM4IDc3LjQ3NCAxNy4yOCB6IE0gNjEuMDczIDUuMTIxIGwgMTIuNjExIDEyLjYxMiBIIDYyLjM1IGMgLTAuNzA0IDAgLTEuMjc2IC0wLjU3MyAtMS4yNzYgLTEuMjc3IFYgNS4xMjEgeiBNIDc0LjI1OCA4NyBIIDE1Ljc0MiBjIC0wLjg1NCAwIC0xLjU0OCAtMC42OTQgLTEuNTQ4IC0xLjU0OCBWIDQuNTQ4IEMgMTQuMTk0IDMuNjk0IDE0Ljg4OCAzIDE1Ljc0MiAzIGggNDIuMzMyIHYgMTMuNDU2IGMgMCAyLjM1OCAxLjkxOCA0LjI3NyA0LjI3NiA0LjI3NyBoIDEzLjQ1NyB2IDY0LjcxOSBDIDc1LjgwNyA4Ni4zMDYgNzUuMTEyIDg3IDc0LjI1OCA4NyB6Ii8+JiN4YTsJPHBhdGggc3Ryb2tlLWxpbmVjYXA9InJvdW5kIiB0cmFuc2Zvcm09Im1hdHJpeCgxIDAgMCAxIDAgMCkiIHN0eWxlPSJzdHJva2U6IG5vbmU7IHN0cm9rZS13aWR0aDogMTsgc3Ryb2tlLWRhc2hhcnJheTogbm9uZTsgc3Ryb2tlLWxpbmVjYXA6IGJ1dHQ7IHN0cm9rZS1saW5lam9pbjogbWl0ZXI7IHN0cm9rZS1taXRlcmxpbWl0OiAxMDsgZmlsbDogcmdiKDAsMCwwKTsgZmlsbC1ydWxlOiBub256ZXJvOyBvcGFjaXR5OiAxOyIgZD0iTSA2OC4xOTMgMzMuMzE5IEggNDEuODA4IGMgLTAuODI5IDAgLTEuNSAtMC42NzEgLTEuNSAtMS41IHMgMC42NzEgLTEuNSAxLjUgLTEuNSBoIDI2LjM4NSBjIDAuODI4IDAgMS41IDAuNjcxIDEuNSAxLjUgUyA2OS4wMjEgMzMuMzE5IDY4LjE5MyAzMy4zMTkgeiIvPiYjeGE7CTxwYXRoIHN0cm9rZS1saW5lY2FwPSJyb3VuZCIgdHJhbnNmb3JtPSJtYXRyaXgoMSAwIDAgMSAwIDApIiBzdHlsZT0ic3Ryb2tlOiBub25lOyBzdHJva2Utd2lkdGg6IDE7IHN0cm9rZS1kYXNoYXJyYXk6IG5vbmU7IHN0cm9rZS1saW5lY2FwOiBidXR0OyBzdHJva2UtbGluZWpvaW46IG1pdGVyOyBzdHJva2UtbWl0ZXJsaW1pdDogMTA7IGZpbGw6IHJnYigwLDAsMCk7IGZpbGwtcnVsZTogbm9uemVybzsgb3BhY2l0eTogMTsiIGQ9Ik0gMzQuNDU2IDMzLjMxOSBIIDIxLjgwNyBjIC0wLjgyOSAwIC0xLjUgLTAuNjcxIC0xLjUgLTEuNSBzIDAuNjcxIC0xLjUgMS41IC0xLjUgaCAxMi42NDkgYyAwLjgyOSAwIDEuNSAwLjY3MSAxLjUgMS41IFMgMzUuMjg1IDMzLjMxOSAzNC40NTYgMzMuMzE5IHoiLz4mI3hhOwk8bGluZWFyR3JhZGllbnQgeTI9IjE5LjIzMzIiIHgyPSI0Mi4yOTg0IiB5MT0iMTkuMjMzMiIgeDE9IjIxLjgwNjQiIGdyYWRpZW50VW5pdHM9InVzZXJTcGFjZU9uVXNlIiBpZD0iU1ZHSURfMSI+JiN4YTs8c3RvcCBzdHlsZT0ic3RvcC1jb2xvcjpyZ2IoMjU1LDI1NSwyNTUpO3N0b3Atb3BhY2l0eTogMSIgb2Zmc2V0PSIwJSIvPiYjeGE7PHN0b3Agc3R5bGU9InN0b3AtY29sb3I6cmdiKDAsMCwwKTtzdG9wLW9wYWNpdHk6IDEiIG9mZnNldD0iMTAwJSIvPiYjeGE7PC9saW5lYXJHcmFkaWVudD4mI3hhOzxsaW5lIHRyYW5zZm9ybT0ibWF0cml4KDEgMCAwIDEgMCAwKSIgc3R5bGU9InN0cm9rZTogbm9uZTsgc3Ryb2tlLXdpZHRoOiAxOyBzdHJva2UtZGFzaGFycmF5OiBub25lOyBzdHJva2UtbGluZWNhcDogYnV0dDsgc3Ryb2tlLWxpbmVqb2luOiBtaXRlcjsgc3Ryb2tlLW1pdGVybGltaXQ6IDEwOyBmaWxsOiB1cmwoI1NWR0lEXzEpOyBmaWxsLXJ1bGU6IG5vbnplcm87IG9wYWNpdHk6IDE7IiB5Mj0iMCIgeDI9IjEwLjI0NiIgeTE9IjAiIHgxPSItMTAuMjQ2Ii8+JiN4YTsJPHBhdGggc3Ryb2tlLWxpbmVjYXA9InJvdW5kIiB0cmFuc2Zvcm09Im1hdHJpeCgxIDAgMCAxIDAgMCkiIHN0eWxlPSJzdHJva2U6IG5vbmU7IHN0cm9rZS13aWR0aDogMTsgc3Ryb2tlLWRhc2hhcnJheTogbm9uZTsgc3Ryb2tlLWxpbmVjYXA6IGJ1dHQ7IHN0cm9rZS1saW5lam9pbjogbWl0ZXI7IHN0cm9rZS1taXRlcmxpbWl0OiAxMDsgZmlsbDogcmdiKDAsMCwwKTsgZmlsbC1ydWxlOiBub256ZXJvOyBvcGFjaXR5OiAxOyIgZD0iTSA0Mi4yOTggMjAuNzMzIEggMjEuODA3IGMgLTAuODI5IDAgLTEuNSAtMC42NzEgLTEuNSAtMS41IHMgMC42NzEgLTEuNSAxLjUgLTEuNSBoIDIwLjQ5MiBjIDAuODI5IDAgMS41IDAuNjcxIDEuNSAxLjUgUyA0My4xMjcgMjAuNzMzIDQyLjI5OCAyMC43MzMgeiIvPiYjeGE7CTxwYXRoIHN0cm9rZS1saW5lY2FwPSJyb3VuZCIgdHJhbnNmb3JtPSJtYXRyaXgoMSAwIDAgMSAwIDApIiBzdHlsZT0ic3Ryb2tlOiBub25lOyBzdHJva2Utd2lkdGg6IDE7IHN0cm9rZS1kYXNoYXJyYXk6IG5vbmU7IHN0cm9rZS1saW5lY2FwOiBidXR0OyBzdHJva2UtbGluZWpvaW46IG1pdGVyOyBzdHJva2UtbWl0ZXJsaW1pdDogMTA7IGZpbGw6IHJnYigwLDAsMCk7IGZpbGwtcnVsZTogbm9uemVybzsgb3BhY2l0eTogMTsiIGQ9Ik0gNjguMTkzIDQ0LjMxOSBIIDIxLjgwNyBjIC0wLjgyOSAwIC0xLjUgLTAuNjcxIC0xLjUgLTEuNSBzIDAuNjcxIC0xLjUgMS41IC0xLjUgaCA0Ni4zODcgYyAwLjgyOCAwIDEuNSAwLjY3MSAxLjUgMS41IFMgNjkuMDIxIDQ0LjMxOSA2OC4xOTMgNDQuMzE5IHoiLz4mI3hhOwk8cGF0aCBzdHJva2UtbGluZWNhcD0icm91bmQiIHRyYW5zZm9ybT0ibWF0cml4KDEgMCAwIDEgMCAwKSIgc3R5bGU9InN0cm9rZTogbm9uZTsgc3Ryb2tlLXdpZHRoOiAxOyBzdHJva2UtZGFzaGFycmF5OiBub25lOyBzdHJva2UtbGluZWNhcDogYnV0dDsgc3Ryb2tlLWxpbmVqb2luOiBtaXRlcjsgc3Ryb2tlLW1pdGVybGltaXQ6IDEwOyBmaWxsOiByZ2IoMCwwLDApOyBmaWxsLXJ1bGU6IG5vbnplcm87IG9wYWNpdHk6IDE7IiBkPSJNIDQ4LjE5MSA1NS4zMTkgSCAyMS44MDcgYyAtMC44MjkgMCAtMS41IC0wLjY3MiAtMS41IC0xLjUgcyAwLjY3MSAtMS41IDEuNSAtMS41IGggMjYuMzg1IGMgMC44MjggMCAxLjUgMC42NzIgMS41IDEuNSBTIDQ5LjAyIDU1LjMxOSA0OC4xOTEgNTUuMzE5IHoiLz4mI3hhOwk8cGF0aCBzdHJva2UtbGluZWNhcD0icm91bmQiIHRyYW5zZm9ybT0ibWF0cml4KDEgMCAwIDEgMCAwKSIgc3R5bGU9InN0cm9rZTogbm9uZTsgc3Ryb2tlLXdpZHRoOiAxOyBzdHJva2UtZGFzaGFycmF5OiBub25lOyBzdHJva2UtbGluZWNhcDogYnV0dDsgc3Ryb2tlLWxpbmVqb2luOiBtaXRlcjsgc3Ryb2tlLW1pdGVybGltaXQ6IDEwOyBmaWxsOiByZ2IoMCwwLDApOyBmaWxsLXJ1bGU6IG5vbnplcm87IG9wYWNpdHk6IDE7IiBkPSJNIDY4LjE5MyA1NS4zMTkgSCA1NS41NDQgYyAtMC44MjggMCAtMS41IC0wLjY3MiAtMS41IC0xLjUgcyAwLjY3MiAtMS41IDEuNSAtMS41IGggMTIuNjQ5IGMgMC44MjggMCAxLjUgMC42NzIgMS41IDEuNSBTIDY5LjAyMSA1NS4zMTkgNjguMTkzIDU1LjMxOSB6Ii8+JiN4YTsJPHBhdGggc3Ryb2tlLWxpbmVjYXA9InJvdW5kIiB0cmFuc2Zvcm09Im1hdHJpeCgxIDAgMCAxIDAgMCkiIHN0eWxlPSJzdHJva2U6IG5vbmU7IHN0cm9rZS13aWR0aDogMTsgc3Ryb2tlLWRhc2hhcnJheTogbm9uZTsgc3Ryb2tlLWxpbmVjYXA6IGJ1dHQ7IHN0cm9rZS1saW5lam9pbjogbWl0ZXI7IHN0cm9rZS1taXRlcmxpbWl0OiAxMDsgZmlsbDogcmdiKDAsMCwwKTsgZmlsbC1ydWxlOiBub256ZXJvOyBvcGFjaXR5OiAxOyIgZD0iTSA2OC4xOTMgNjYuMzE5IEggMjEuODA3IGMgLTAuODI5IDAgLTEuNSAtMC42NzIgLTEuNSAtMS41IHMgMC42NzEgLTEuNSAxLjUgLTEuNSBoIDQ2LjM4NyBjIDAuODI4IDAgMS41IDAuNjcyIDEuNSAxLjUgUyA2OS4wMjEgNjYuMzE5IDY4LjE5MyA2Ni4zMTkgeiIvPiYjeGE7CTxwYXRoIHN0cm9rZS1saW5lY2FwPSJyb3VuZCIgdHJhbnNmb3JtPSJtYXRyaXgoMSAwIDAgMSAwIDApIiBzdHlsZT0ic3Ryb2tlOiBub25lOyBzdHJva2Utd2lkdGg6IDE7IHN0cm9rZS1kYXNoYXJyYXk6IG5vbmU7IHN0cm9rZS1saW5lY2FwOiBidXR0OyBzdHJva2UtbGluZWpvaW46IG1pdGVyOyBzdHJva2UtbWl0ZXJsaW1pdDogMTA7IGZpbGw6IHJnYigwLDAsMCk7IGZpbGwtcnVsZTogbm9uemVybzsgb3BhY2l0eTogMTsiIGQ9Ik0gNjguMTkzIDc3LjMxOSBIIDU1LjU0NCBjIC0wLjgyOCAwIC0xLjUgLTAuNjcyIC0xLjUgLTEuNSBzIDAuNjcyIC0xLjUgMS41IC0xLjUgaCAxMi42NDkgYyAwLjgyOCAwIDEuNSAwLjY3MiAxLjUgMS41IFMgNjkuMDIxIDc3LjMxOSA2OC4xOTMgNzcuMzE5IHoiLz4mI3hhOzwvZz4mI3hhOzwvc3ZnPg==;" vertex="1" parent="1">
          <mxGeometry x="165" y="513" width="15" height="15" as="geometry" />
        </mxCell>
        <mxCell id="4XcQBWDd-9xv3mYqZWtT-66" value="LICENSE" style="text;html=1;strokeColor=none;fillColor=none;align=left;verticalAlign=middle;whiteSpace=wrap;rounded=0;fontFamily=Computer Modern;" vertex="1" parent="1">
          <mxGeometry x="180" y="513" width="85" height="15" as="geometry" />
        </mxCell>
        <mxCell id="4XcQBWDd-9xv3mYqZWtT-67" value="" style="shape=image;verticalLabelPosition=bottom;labelBackgroundColor=default;verticalAlign=top;aspect=fixed;imageAspect=0;image=data:image/svg+xml,PHN2ZyB4bWxuczp4bGluaz0iaHR0cDovL3d3dy53My5vcmcvMTk5OS94bGluayIgeG1sbnM9Imh0dHA6Ly93d3cudzMub3JnLzIwMDAvc3ZnIiB4bWw6c3BhY2U9InByZXNlcnZlIiB2aWV3Qm94PSIwIDAgMjU2IDI1NiIgaGVpZ2h0PSIyNTYiIHdpZHRoPSIyNTYiIHZlcnNpb249IjEuMSI+JiN4YTsmI3hhOzxkZWZzPiYjeGE7PC9kZWZzPiYjeGE7PGcgdHJhbnNmb3JtPSJ0cmFuc2xhdGUoMS40MDY1OTM0MDY1OTM0MDE2IDEuNDA2NTkzNDA2NTkzNDAxNikgc2NhbGUoMi44MSAyLjgxKSIgc3R5bGU9InN0cm9rZTogbm9uZTsgc3Ryb2tlLXdpZHRoOiAwOyBzdHJva2UtZGFzaGFycmF5OiBub25lOyBzdHJva2UtbGluZWNhcDogYnV0dDsgc3Ryb2tlLWxpbmVqb2luOiBtaXRlcjsgc3Ryb2tlLW1pdGVybGltaXQ6IDEwOyBmaWxsOiBub25lOyBmaWxsLXJ1bGU6IG5vbnplcm87IG9wYWNpdHk6IDE7Ij4mI3hhOwk8cGF0aCBzdHJva2UtbGluZWNhcD0icm91bmQiIHRyYW5zZm9ybT0ibWF0cml4KDEgMCAwIDEgMCAwKSIgc3R5bGU9InN0cm9rZTogbm9uZTsgc3Ryb2tlLXdpZHRoOiAxOyBzdHJva2UtZGFzaGFycmF5OiBub25lOyBzdHJva2UtbGluZWNhcDogYnV0dDsgc3Ryb2tlLWxpbmVqb2luOiBtaXRlcjsgc3Ryb2tlLW1pdGVybGltaXQ6IDEwOyBmaWxsOiByZ2IoMCwwLDApOyBmaWxsLXJ1bGU6IG5vbnplcm87IG9wYWNpdHk6IDE7IiBkPSJNIDc3LjQ3NCAxNy4yOCBMIDYxLjUyNiAxLjMzMiBDIDYwLjY2OCAwLjQ3MyA1OS41MjUgMCA1OC4zMTEgMCBIIDE1Ljc0MiBjIC0yLjUwOCAwIC00LjU0OCAyLjA0IC00LjU0OCA0LjU0OCB2IDgwLjkwNCBjIDAgMi41MDggMi4wNCA0LjU0OCA0LjU0OCA0LjU0OCBoIDU4LjUxNiBjIDIuNTA4IDAgNC41NDkgLTIuMDQgNC41NDkgLTQuNTQ4IFYgMjAuNDk2IEMgNzguODA3IDE5LjI4MSA3OC4zMzMgMTguMTM4IDc3LjQ3NCAxNy4yOCB6IE0gNjEuMDczIDUuMTIxIGwgMTIuNjExIDEyLjYxMiBIIDYyLjM1IGMgLTAuNzA0IDAgLTEuMjc2IC0wLjU3MyAtMS4yNzYgLTEuMjc3IFYgNS4xMjEgeiBNIDc0LjI1OCA4NyBIIDE1Ljc0MiBjIC0wLjg1NCAwIC0xLjU0OCAtMC42OTQgLTEuNTQ4IC0xLjU0OCBWIDQuNTQ4IEMgMTQuMTk0IDMuNjk0IDE0Ljg4OCAzIDE1Ljc0MiAzIGggNDIuMzMyIHYgMTMuNDU2IGMgMCAyLjM1OCAxLjkxOCA0LjI3NyA0LjI3NiA0LjI3NyBoIDEzLjQ1NyB2IDY0LjcxOSBDIDc1LjgwNyA4Ni4zMDYgNzUuMTEyIDg3IDc0LjI1OCA4NyB6Ii8+JiN4YTsJPHBhdGggc3Ryb2tlLWxpbmVjYXA9InJvdW5kIiB0cmFuc2Zvcm09Im1hdHJpeCgxIDAgMCAxIDAgMCkiIHN0eWxlPSJzdHJva2U6IG5vbmU7IHN0cm9rZS13aWR0aDogMTsgc3Ryb2tlLWRhc2hhcnJheTogbm9uZTsgc3Ryb2tlLWxpbmVjYXA6IGJ1dHQ7IHN0cm9rZS1saW5lam9pbjogbWl0ZXI7IHN0cm9rZS1taXRlcmxpbWl0OiAxMDsgZmlsbDogcmdiKDAsMCwwKTsgZmlsbC1ydWxlOiBub256ZXJvOyBvcGFjaXR5OiAxOyIgZD0iTSA2OC4xOTMgMzMuMzE5IEggNDEuODA4IGMgLTAuODI5IDAgLTEuNSAtMC42NzEgLTEuNSAtMS41IHMgMC42NzEgLTEuNSAxLjUgLTEuNSBoIDI2LjM4NSBjIDAuODI4IDAgMS41IDAuNjcxIDEuNSAxLjUgUyA2OS4wMjEgMzMuMzE5IDY4LjE5MyAzMy4zMTkgeiIvPiYjeGE7CTxwYXRoIHN0cm9rZS1saW5lY2FwPSJyb3VuZCIgdHJhbnNmb3JtPSJtYXRyaXgoMSAwIDAgMSAwIDApIiBzdHlsZT0ic3Ryb2tlOiBub25lOyBzdHJva2Utd2lkdGg6IDE7IHN0cm9rZS1kYXNoYXJyYXk6IG5vbmU7IHN0cm9rZS1saW5lY2FwOiBidXR0OyBzdHJva2UtbGluZWpvaW46IG1pdGVyOyBzdHJva2UtbWl0ZXJsaW1pdDogMTA7IGZpbGw6IHJnYigwLDAsMCk7IGZpbGwtcnVsZTogbm9uemVybzsgb3BhY2l0eTogMTsiIGQ9Ik0gMzQuNDU2IDMzLjMxOSBIIDIxLjgwNyBjIC0wLjgyOSAwIC0xLjUgLTAuNjcxIC0xLjUgLTEuNSBzIDAuNjcxIC0xLjUgMS41IC0xLjUgaCAxMi42NDkgYyAwLjgyOSAwIDEuNSAwLjY3MSAxLjUgMS41IFMgMzUuMjg1IDMzLjMxOSAzNC40NTYgMzMuMzE5IHoiLz4mI3hhOwk8bGluZWFyR3JhZGllbnQgeTI9IjE5LjIzMzIiIHgyPSI0Mi4yOTg0IiB5MT0iMTkuMjMzMiIgeDE9IjIxLjgwNjQiIGdyYWRpZW50VW5pdHM9InVzZXJTcGFjZU9uVXNlIiBpZD0iU1ZHSURfMSI+JiN4YTs8c3RvcCBzdHlsZT0ic3RvcC1jb2xvcjpyZ2IoMjU1LDI1NSwyNTUpO3N0b3Atb3BhY2l0eTogMSIgb2Zmc2V0PSIwJSIvPiYjeGE7PHN0b3Agc3R5bGU9InN0b3AtY29sb3I6cmdiKDAsMCwwKTtzdG9wLW9wYWNpdHk6IDEiIG9mZnNldD0iMTAwJSIvPiYjeGE7PC9saW5lYXJHcmFkaWVudD4mI3hhOzxsaW5lIHRyYW5zZm9ybT0ibWF0cml4KDEgMCAwIDEgMCAwKSIgc3R5bGU9InN0cm9rZTogbm9uZTsgc3Ryb2tlLXdpZHRoOiAxOyBzdHJva2UtZGFzaGFycmF5OiBub25lOyBzdHJva2UtbGluZWNhcDogYnV0dDsgc3Ryb2tlLWxpbmVqb2luOiBtaXRlcjsgc3Ryb2tlLW1pdGVybGltaXQ6IDEwOyBmaWxsOiB1cmwoI1NWR0lEXzEpOyBmaWxsLXJ1bGU6IG5vbnplcm87IG9wYWNpdHk6IDE7IiB5Mj0iMCIgeDI9IjEwLjI0NiIgeTE9IjAiIHgxPSItMTAuMjQ2Ii8+JiN4YTsJPHBhdGggc3Ryb2tlLWxpbmVjYXA9InJvdW5kIiB0cmFuc2Zvcm09Im1hdHJpeCgxIDAgMCAxIDAgMCkiIHN0eWxlPSJzdHJva2U6IG5vbmU7IHN0cm9rZS13aWR0aDogMTsgc3Ryb2tlLWRhc2hhcnJheTogbm9uZTsgc3Ryb2tlLWxpbmVjYXA6IGJ1dHQ7IHN0cm9rZS1saW5lam9pbjogbWl0ZXI7IHN0cm9rZS1taXRlcmxpbWl0OiAxMDsgZmlsbDogcmdiKDAsMCwwKTsgZmlsbC1ydWxlOiBub256ZXJvOyBvcGFjaXR5OiAxOyIgZD0iTSA0Mi4yOTggMjAuNzMzIEggMjEuODA3IGMgLTAuODI5IDAgLTEuNSAtMC42NzEgLTEuNSAtMS41IHMgMC42NzEgLTEuNSAxLjUgLTEuNSBoIDIwLjQ5MiBjIDAuODI5IDAgMS41IDAuNjcxIDEuNSAxLjUgUyA0My4xMjcgMjAuNzMzIDQyLjI5OCAyMC43MzMgeiIvPiYjeGE7CTxwYXRoIHN0cm9rZS1saW5lY2FwPSJyb3VuZCIgdHJhbnNmb3JtPSJtYXRyaXgoMSAwIDAgMSAwIDApIiBzdHlsZT0ic3Ryb2tlOiBub25lOyBzdHJva2Utd2lkdGg6IDE7IHN0cm9rZS1kYXNoYXJyYXk6IG5vbmU7IHN0cm9rZS1saW5lY2FwOiBidXR0OyBzdHJva2UtbGluZWpvaW46IG1pdGVyOyBzdHJva2UtbWl0ZXJsaW1pdDogMTA7IGZpbGw6IHJnYigwLDAsMCk7IGZpbGwtcnVsZTogbm9uemVybzsgb3BhY2l0eTogMTsiIGQ9Ik0gNjguMTkzIDQ0LjMxOSBIIDIxLjgwNyBjIC0wLjgyOSAwIC0xLjUgLTAuNjcxIC0xLjUgLTEuNSBzIDAuNjcxIC0xLjUgMS41IC0xLjUgaCA0Ni4zODcgYyAwLjgyOCAwIDEuNSAwLjY3MSAxLjUgMS41IFMgNjkuMDIxIDQ0LjMxOSA2OC4xOTMgNDQuMzE5IHoiLz4mI3hhOwk8cGF0aCBzdHJva2UtbGluZWNhcD0icm91bmQiIHRyYW5zZm9ybT0ibWF0cml4KDEgMCAwIDEgMCAwKSIgc3R5bGU9InN0cm9rZTogbm9uZTsgc3Ryb2tlLXdpZHRoOiAxOyBzdHJva2UtZGFzaGFycmF5OiBub25lOyBzdHJva2UtbGluZWNhcDogYnV0dDsgc3Ryb2tlLWxpbmVqb2luOiBtaXRlcjsgc3Ryb2tlLW1pdGVybGltaXQ6IDEwOyBmaWxsOiByZ2IoMCwwLDApOyBmaWxsLXJ1bGU6IG5vbnplcm87IG9wYWNpdHk6IDE7IiBkPSJNIDQ4LjE5MSA1NS4zMTkgSCAyMS44MDcgYyAtMC44MjkgMCAtMS41IC0wLjY3MiAtMS41IC0xLjUgcyAwLjY3MSAtMS41IDEuNSAtMS41IGggMjYuMzg1IGMgMC44MjggMCAxLjUgMC42NzIgMS41IDEuNSBTIDQ5LjAyIDU1LjMxOSA0OC4xOTEgNTUuMzE5IHoiLz4mI3hhOwk8cGF0aCBzdHJva2UtbGluZWNhcD0icm91bmQiIHRyYW5zZm9ybT0ibWF0cml4KDEgMCAwIDEgMCAwKSIgc3R5bGU9InN0cm9rZTogbm9uZTsgc3Ryb2tlLXdpZHRoOiAxOyBzdHJva2UtZGFzaGFycmF5OiBub25lOyBzdHJva2UtbGluZWNhcDogYnV0dDsgc3Ryb2tlLWxpbmVqb2luOiBtaXRlcjsgc3Ryb2tlLW1pdGVybGltaXQ6IDEwOyBmaWxsOiByZ2IoMCwwLDApOyBmaWxsLXJ1bGU6IG5vbnplcm87IG9wYWNpdHk6IDE7IiBkPSJNIDY4LjE5MyA1NS4zMTkgSCA1NS41NDQgYyAtMC44MjggMCAtMS41IC0wLjY3MiAtMS41IC0xLjUgcyAwLjY3MiAtMS41IDEuNSAtMS41IGggMTIuNjQ5IGMgMC44MjggMCAxLjUgMC42NzIgMS41IDEuNSBTIDY5LjAyMSA1NS4zMTkgNjguMTkzIDU1LjMxOSB6Ii8+JiN4YTsJPHBhdGggc3Ryb2tlLWxpbmVjYXA9InJvdW5kIiB0cmFuc2Zvcm09Im1hdHJpeCgxIDAgMCAxIDAgMCkiIHN0eWxlPSJzdHJva2U6IG5vbmU7IHN0cm9rZS13aWR0aDogMTsgc3Ryb2tlLWRhc2hhcnJheTogbm9uZTsgc3Ryb2tlLWxpbmVjYXA6IGJ1dHQ7IHN0cm9rZS1saW5lam9pbjogbWl0ZXI7IHN0cm9rZS1taXRlcmxpbWl0OiAxMDsgZmlsbDogcmdiKDAsMCwwKTsgZmlsbC1ydWxlOiBub256ZXJvOyBvcGFjaXR5OiAxOyIgZD0iTSA2OC4xOTMgNjYuMzE5IEggMjEuODA3IGMgLTAuODI5IDAgLTEuNSAtMC42NzIgLTEuNSAtMS41IHMgMC42NzEgLTEuNSAxLjUgLTEuNSBoIDQ2LjM4NyBjIDAuODI4IDAgMS41IDAuNjcyIDEuNSAxLjUgUyA2OS4wMjEgNjYuMzE5IDY4LjE5MyA2Ni4zMTkgeiIvPiYjeGE7CTxwYXRoIHN0cm9rZS1saW5lY2FwPSJyb3VuZCIgdHJhbnNmb3JtPSJtYXRyaXgoMSAwIDAgMSAwIDApIiBzdHlsZT0ic3Ryb2tlOiBub25lOyBzdHJva2Utd2lkdGg6IDE7IHN0cm9rZS1kYXNoYXJyYXk6IG5vbmU7IHN0cm9rZS1saW5lY2FwOiBidXR0OyBzdHJva2UtbGluZWpvaW46IG1pdGVyOyBzdHJva2UtbWl0ZXJsaW1pdDogMTA7IGZpbGw6IHJnYigwLDAsMCk7IGZpbGwtcnVsZTogbm9uemVybzsgb3BhY2l0eTogMTsiIGQ9Ik0gNjguMTkzIDc3LjMxOSBIIDU1LjU0NCBjIC0wLjgyOCAwIC0xLjUgLTAuNjcyIC0xLjUgLTEuNSBzIDAuNjcyIC0xLjUgMS41IC0xLjUgaCAxMi42NDkgYyAwLjgyOCAwIDEuNSAwLjY3MiAxLjUgMS41IFMgNjkuMDIxIDc3LjMxOSA2OC4xOTMgNzcuMzE5IHoiLz4mI3hhOzwvZz4mI3hhOzwvc3ZnPg==;" vertex="1" parent="1">
          <mxGeometry x="165" y="533" width="15" height="15" as="geometry" />
        </mxCell>
        <mxCell id="4XcQBWDd-9xv3mYqZWtT-68" value="README.md" style="text;html=1;strokeColor=none;fillColor=none;align=left;verticalAlign=middle;whiteSpace=wrap;rounded=0;fontFamily=Computer Modern;" vertex="1" parent="1">
          <mxGeometry x="180" y="533" width="85" height="15" as="geometry" />
        </mxCell>
        <mxCell id="4XcQBWDd-9xv3mYqZWtT-69" value="" style="shape=image;verticalLabelPosition=bottom;labelBackgroundColor=default;verticalAlign=top;aspect=fixed;imageAspect=0;image=data:image/svg+xml,PHN2ZyB4bWxuczp4bGluaz0iaHR0cDovL3d3dy53My5vcmcvMTk5OS94bGluayIgeG1sbnM9Imh0dHA6Ly93d3cudzMub3JnLzIwMDAvc3ZnIiB4bWw6c3BhY2U9InByZXNlcnZlIiB2aWV3Qm94PSIwIDAgMjU2IDI1NiIgaGVpZ2h0PSIyNTYiIHdpZHRoPSIyNTYiIHZlcnNpb249IjEuMSI+JiN4YTsmI3hhOzxkZWZzPiYjeGE7PC9kZWZzPiYjeGE7PGcgdHJhbnNmb3JtPSJ0cmFuc2xhdGUoMS40MDY1OTM0MDY1OTM0MDE2IDEuNDA2NTkzNDA2NTkzNDAxNikgc2NhbGUoMi44MSAyLjgxKSIgc3R5bGU9InN0cm9rZTogbm9uZTsgc3Ryb2tlLXdpZHRoOiAwOyBzdHJva2UtZGFzaGFycmF5OiBub25lOyBzdHJva2UtbGluZWNhcDogYnV0dDsgc3Ryb2tlLWxpbmVqb2luOiBtaXRlcjsgc3Ryb2tlLW1pdGVybGltaXQ6IDEwOyBmaWxsOiBub25lOyBmaWxsLXJ1bGU6IG5vbnplcm87IG9wYWNpdHk6IDE7Ij4mI3hhOwk8cGF0aCBzdHJva2UtbGluZWNhcD0icm91bmQiIHRyYW5zZm9ybT0ibWF0cml4KDEgMCAwIDEgMCAwKSIgc3R5bGU9InN0cm9rZTogbm9uZTsgc3Ryb2tlLXdpZHRoOiAxOyBzdHJva2UtZGFzaGFycmF5OiBub25lOyBzdHJva2UtbGluZWNhcDogYnV0dDsgc3Ryb2tlLWxpbmVqb2luOiBtaXRlcjsgc3Ryb2tlLW1pdGVybGltaXQ6IDEwOyBmaWxsOiByZ2IoMCwwLDApOyBmaWxsLXJ1bGU6IG5vbnplcm87IG9wYWNpdHk6IDE7IiBkPSJNIDc3LjQ3NCAxNy4yOCBMIDYxLjUyNiAxLjMzMiBDIDYwLjY2OCAwLjQ3MyA1OS41MjUgMCA1OC4zMTEgMCBIIDE1Ljc0MiBjIC0yLjUwOCAwIC00LjU0OCAyLjA0IC00LjU0OCA0LjU0OCB2IDgwLjkwNCBjIDAgMi41MDggMi4wNCA0LjU0OCA0LjU0OCA0LjU0OCBoIDU4LjUxNiBjIDIuNTA4IDAgNC41NDkgLTIuMDQgNC41NDkgLTQuNTQ4IFYgMjAuNDk2IEMgNzguODA3IDE5LjI4MSA3OC4zMzMgMTguMTM4IDc3LjQ3NCAxNy4yOCB6IE0gNjEuMDczIDUuMTIxIGwgMTIuNjExIDEyLjYxMiBIIDYyLjM1IGMgLTAuNzA0IDAgLTEuMjc2IC0wLjU3MyAtMS4yNzYgLTEuMjc3IFYgNS4xMjEgeiBNIDc0LjI1OCA4NyBIIDE1Ljc0MiBjIC0wLjg1NCAwIC0xLjU0OCAtMC42OTQgLTEuNTQ4IC0xLjU0OCBWIDQuNTQ4IEMgMTQuMTk0IDMuNjk0IDE0Ljg4OCAzIDE1Ljc0MiAzIGggNDIuMzMyIHYgMTMuNDU2IGMgMCAyLjM1OCAxLjkxOCA0LjI3NyA0LjI3NiA0LjI3NyBoIDEzLjQ1NyB2IDY0LjcxOSBDIDc1LjgwNyA4Ni4zMDYgNzUuMTEyIDg3IDc0LjI1OCA4NyB6Ii8+JiN4YTsJPHBhdGggc3Ryb2tlLWxpbmVjYXA9InJvdW5kIiB0cmFuc2Zvcm09Im1hdHJpeCgxIDAgMCAxIDAgMCkiIHN0eWxlPSJzdHJva2U6IG5vbmU7IHN0cm9rZS13aWR0aDogMTsgc3Ryb2tlLWRhc2hhcnJheTogbm9uZTsgc3Ryb2tlLWxpbmVjYXA6IGJ1dHQ7IHN0cm9rZS1saW5lam9pbjogbWl0ZXI7IHN0cm9rZS1taXRlcmxpbWl0OiAxMDsgZmlsbDogcmdiKDAsMCwwKTsgZmlsbC1ydWxlOiBub256ZXJvOyBvcGFjaXR5OiAxOyIgZD0iTSA2OC4xOTMgMzMuMzE5IEggNDEuODA4IGMgLTAuODI5IDAgLTEuNSAtMC42NzEgLTEuNSAtMS41IHMgMC42NzEgLTEuNSAxLjUgLTEuNSBoIDI2LjM4NSBjIDAuODI4IDAgMS41IDAuNjcxIDEuNSAxLjUgUyA2OS4wMjEgMzMuMzE5IDY4LjE5MyAzMy4zMTkgeiIvPiYjeGE7CTxwYXRoIHN0cm9rZS1saW5lY2FwPSJyb3VuZCIgdHJhbnNmb3JtPSJtYXRyaXgoMSAwIDAgMSAwIDApIiBzdHlsZT0ic3Ryb2tlOiBub25lOyBzdHJva2Utd2lkdGg6IDE7IHN0cm9rZS1kYXNoYXJyYXk6IG5vbmU7IHN0cm9rZS1saW5lY2FwOiBidXR0OyBzdHJva2UtbGluZWpvaW46IG1pdGVyOyBzdHJva2UtbWl0ZXJsaW1pdDogMTA7IGZpbGw6IHJnYigwLDAsMCk7IGZpbGwtcnVsZTogbm9uemVybzsgb3BhY2l0eTogMTsiIGQ9Ik0gMzQuNDU2IDMzLjMxOSBIIDIxLjgwNyBjIC0wLjgyOSAwIC0xLjUgLTAuNjcxIC0xLjUgLTEuNSBzIDAuNjcxIC0xLjUgMS41IC0xLjUgaCAxMi42NDkgYyAwLjgyOSAwIDEuNSAwLjY3MSAxLjUgMS41IFMgMzUuMjg1IDMzLjMxOSAzNC40NTYgMzMuMzE5IHoiLz4mI3hhOwk8bGluZWFyR3JhZGllbnQgeTI9IjE5LjIzMzIiIHgyPSI0Mi4yOTg0IiB5MT0iMTkuMjMzMiIgeDE9IjIxLjgwNjQiIGdyYWRpZW50VW5pdHM9InVzZXJTcGFjZU9uVXNlIiBpZD0iU1ZHSURfMSI+JiN4YTs8c3RvcCBzdHlsZT0ic3RvcC1jb2xvcjpyZ2IoMjU1LDI1NSwyNTUpO3N0b3Atb3BhY2l0eTogMSIgb2Zmc2V0PSIwJSIvPiYjeGE7PHN0b3Agc3R5bGU9InN0b3AtY29sb3I6cmdiKDAsMCwwKTtzdG9wLW9wYWNpdHk6IDEiIG9mZnNldD0iMTAwJSIvPiYjeGE7PC9saW5lYXJHcmFkaWVudD4mI3hhOzxsaW5lIHRyYW5zZm9ybT0ibWF0cml4KDEgMCAwIDEgMCAwKSIgc3R5bGU9InN0cm9rZTogbm9uZTsgc3Ryb2tlLXdpZHRoOiAxOyBzdHJva2UtZGFzaGFycmF5OiBub25lOyBzdHJva2UtbGluZWNhcDogYnV0dDsgc3Ryb2tlLWxpbmVqb2luOiBtaXRlcjsgc3Ryb2tlLW1pdGVybGltaXQ6IDEwOyBmaWxsOiB1cmwoI1NWR0lEXzEpOyBmaWxsLXJ1bGU6IG5vbnplcm87IG9wYWNpdHk6IDE7IiB5Mj0iMCIgeDI9IjEwLjI0NiIgeTE9IjAiIHgxPSItMTAuMjQ2Ii8+JiN4YTsJPHBhdGggc3Ryb2tlLWxpbmVjYXA9InJvdW5kIiB0cmFuc2Zvcm09Im1hdHJpeCgxIDAgMCAxIDAgMCkiIHN0eWxlPSJzdHJva2U6IG5vbmU7IHN0cm9rZS13aWR0aDogMTsgc3Ryb2tlLWRhc2hhcnJheTogbm9uZTsgc3Ryb2tlLWxpbmVjYXA6IGJ1dHQ7IHN0cm9rZS1saW5lam9pbjogbWl0ZXI7IHN0cm9rZS1taXRlcmxpbWl0OiAxMDsgZmlsbDogcmdiKDAsMCwwKTsgZmlsbC1ydWxlOiBub256ZXJvOyBvcGFjaXR5OiAxOyIgZD0iTSA0Mi4yOTggMjAuNzMzIEggMjEuODA3IGMgLTAuODI5IDAgLTEuNSAtMC42NzEgLTEuNSAtMS41IHMgMC42NzEgLTEuNSAxLjUgLTEuNSBoIDIwLjQ5MiBjIDAuODI5IDAgMS41IDAuNjcxIDEuNSAxLjUgUyA0My4xMjcgMjAuNzMzIDQyLjI5OCAyMC43MzMgeiIvPiYjeGE7CTxwYXRoIHN0cm9rZS1saW5lY2FwPSJyb3VuZCIgdHJhbnNmb3JtPSJtYXRyaXgoMSAwIDAgMSAwIDApIiBzdHlsZT0ic3Ryb2tlOiBub25lOyBzdHJva2Utd2lkdGg6IDE7IHN0cm9rZS1kYXNoYXJyYXk6IG5vbmU7IHN0cm9rZS1saW5lY2FwOiBidXR0OyBzdHJva2UtbGluZWpvaW46IG1pdGVyOyBzdHJva2UtbWl0ZXJsaW1pdDogMTA7IGZpbGw6IHJnYigwLDAsMCk7IGZpbGwtcnVsZTogbm9uemVybzsgb3BhY2l0eTogMTsiIGQ9Ik0gNjguMTkzIDQ0LjMxOSBIIDIxLjgwNyBjIC0wLjgyOSAwIC0xLjUgLTAuNjcxIC0xLjUgLTEuNSBzIDAuNjcxIC0xLjUgMS41IC0xLjUgaCA0Ni4zODcgYyAwLjgyOCAwIDEuNSAwLjY3MSAxLjUgMS41IFMgNjkuMDIxIDQ0LjMxOSA2OC4xOTMgNDQuMzE5IHoiLz4mI3hhOwk8cGF0aCBzdHJva2UtbGluZWNhcD0icm91bmQiIHRyYW5zZm9ybT0ibWF0cml4KDEgMCAwIDEgMCAwKSIgc3R5bGU9InN0cm9rZTogbm9uZTsgc3Ryb2tlLXdpZHRoOiAxOyBzdHJva2UtZGFzaGFycmF5OiBub25lOyBzdHJva2UtbGluZWNhcDogYnV0dDsgc3Ryb2tlLWxpbmVqb2luOiBtaXRlcjsgc3Ryb2tlLW1pdGVybGltaXQ6IDEwOyBmaWxsOiByZ2IoMCwwLDApOyBmaWxsLXJ1bGU6IG5vbnplcm87IG9wYWNpdHk6IDE7IiBkPSJNIDQ4LjE5MSA1NS4zMTkgSCAyMS44MDcgYyAtMC44MjkgMCAtMS41IC0wLjY3MiAtMS41IC0xLjUgcyAwLjY3MSAtMS41IDEuNSAtMS41IGggMjYuMzg1IGMgMC44MjggMCAxLjUgMC42NzIgMS41IDEuNSBTIDQ5LjAyIDU1LjMxOSA0OC4xOTEgNTUuMzE5IHoiLz4mI3hhOwk8cGF0aCBzdHJva2UtbGluZWNhcD0icm91bmQiIHRyYW5zZm9ybT0ibWF0cml4KDEgMCAwIDEgMCAwKSIgc3R5bGU9InN0cm9rZTogbm9uZTsgc3Ryb2tlLXdpZHRoOiAxOyBzdHJva2UtZGFzaGFycmF5OiBub25lOyBzdHJva2UtbGluZWNhcDogYnV0dDsgc3Ryb2tlLWxpbmVqb2luOiBtaXRlcjsgc3Ryb2tlLW1pdGVybGltaXQ6IDEwOyBmaWxsOiByZ2IoMCwwLDApOyBmaWxsLXJ1bGU6IG5vbnplcm87IG9wYWNpdHk6IDE7IiBkPSJNIDY4LjE5MyA1NS4zMTkgSCA1NS41NDQgYyAtMC44MjggMCAtMS41IC0wLjY3MiAtMS41IC0xLjUgcyAwLjY3MiAtMS41IDEuNSAtMS41IGggMTIuNjQ5IGMgMC44MjggMCAxLjUgMC42NzIgMS41IDEuNSBTIDY5LjAyMSA1NS4zMTkgNjguMTkzIDU1LjMxOSB6Ii8+JiN4YTsJPHBhdGggc3Ryb2tlLWxpbmVjYXA9InJvdW5kIiB0cmFuc2Zvcm09Im1hdHJpeCgxIDAgMCAxIDAgMCkiIHN0eWxlPSJzdHJva2U6IG5vbmU7IHN0cm9rZS13aWR0aDogMTsgc3Ryb2tlLWRhc2hhcnJheTogbm9uZTsgc3Ryb2tlLWxpbmVjYXA6IGJ1dHQ7IHN0cm9rZS1saW5lam9pbjogbWl0ZXI7IHN0cm9rZS1taXRlcmxpbWl0OiAxMDsgZmlsbDogcmdiKDAsMCwwKTsgZmlsbC1ydWxlOiBub256ZXJvOyBvcGFjaXR5OiAxOyIgZD0iTSA2OC4xOTMgNjYuMzE5IEggMjEuODA3IGMgLTAuODI5IDAgLTEuNSAtMC42NzIgLTEuNSAtMS41IHMgMC42NzEgLTEuNSAxLjUgLTEuNSBoIDQ2LjM4NyBjIDAuODI4IDAgMS41IDAuNjcyIDEuNSAxLjUgUyA2OS4wMjEgNjYuMzE5IDY4LjE5MyA2Ni4zMTkgeiIvPiYjeGE7CTxwYXRoIHN0cm9rZS1saW5lY2FwPSJyb3VuZCIgdHJhbnNmb3JtPSJtYXRyaXgoMSAwIDAgMSAwIDApIiBzdHlsZT0ic3Ryb2tlOiBub25lOyBzdHJva2Utd2lkdGg6IDE7IHN0cm9rZS1kYXNoYXJyYXk6IG5vbmU7IHN0cm9rZS1saW5lY2FwOiBidXR0OyBzdHJva2UtbGluZWpvaW46IG1pdGVyOyBzdHJva2UtbWl0ZXJsaW1pdDogMTA7IGZpbGw6IHJnYigwLDAsMCk7IGZpbGwtcnVsZTogbm9uemVybzsgb3BhY2l0eTogMTsiIGQ9Ik0gNjguMTkzIDc3LjMxOSBIIDU1LjU0NCBjIC0wLjgyOCAwIC0xLjUgLTAuNjcyIC0xLjUgLTEuNSBzIDAuNjcyIC0xLjUgMS41IC0xLjUgaCAxMi42NDkgYyAwLjgyOCAwIDEuNSAwLjY3MiAxLjUgMS41IFMgNjkuMDIxIDc3LjMxOSA2OC4xOTMgNzcuMzE5IHoiLz4mI3hhOzwvZz4mI3hhOzwvc3ZnPg==;" vertex="1" parent="1">
          <mxGeometry x="165" y="553" width="15" height="15" as="geometry" />
        </mxCell>
        <mxCell id="4XcQBWDd-9xv3mYqZWtT-70" value="clean.bat" style="text;html=1;strokeColor=none;fillColor=none;align=left;verticalAlign=middle;whiteSpace=wrap;rounded=0;fontFamily=Computer Modern;" vertex="1" parent="1">
          <mxGeometry x="180" y="553" width="85" height="15" as="geometry" />
        </mxCell>
        <mxCell id="4XcQBWDd-9xv3mYqZWtT-71" value="" style="shape=image;verticalLabelPosition=bottom;labelBackgroundColor=default;verticalAlign=top;aspect=fixed;imageAspect=0;image=data:image/svg+xml,PHN2ZyB4bWxuczp4bGluaz0iaHR0cDovL3d3dy53My5vcmcvMTk5OS94bGluayIgeG1sbnM9Imh0dHA6Ly93d3cudzMub3JnLzIwMDAvc3ZnIiB4bWw6c3BhY2U9InByZXNlcnZlIiB2aWV3Qm94PSIwIDAgMjU2IDI1NiIgaGVpZ2h0PSIyNTYiIHdpZHRoPSIyNTYiIHZlcnNpb249IjEuMSI+JiN4YTsmI3hhOzxkZWZzPiYjeGE7PC9kZWZzPiYjeGE7PGcgdHJhbnNmb3JtPSJ0cmFuc2xhdGUoMS40MDY1OTM0MDY1OTM0MDE2IDEuNDA2NTkzNDA2NTkzNDAxNikgc2NhbGUoMi44MSAyLjgxKSIgc3R5bGU9InN0cm9rZTogbm9uZTsgc3Ryb2tlLXdpZHRoOiAwOyBzdHJva2UtZGFzaGFycmF5OiBub25lOyBzdHJva2UtbGluZWNhcDogYnV0dDsgc3Ryb2tlLWxpbmVqb2luOiBtaXRlcjsgc3Ryb2tlLW1pdGVybGltaXQ6IDEwOyBmaWxsOiBub25lOyBmaWxsLXJ1bGU6IG5vbnplcm87IG9wYWNpdHk6IDE7Ij4mI3hhOwk8cGF0aCBzdHJva2UtbGluZWNhcD0icm91bmQiIHRyYW5zZm9ybT0ibWF0cml4KDEgMCAwIDEgMCAwKSIgc3R5bGU9InN0cm9rZTogbm9uZTsgc3Ryb2tlLXdpZHRoOiAxOyBzdHJva2UtZGFzaGFycmF5OiBub25lOyBzdHJva2UtbGluZWNhcDogYnV0dDsgc3Ryb2tlLWxpbmVqb2luOiBtaXRlcjsgc3Ryb2tlLW1pdGVybGltaXQ6IDEwOyBmaWxsOiByZ2IoMCwwLDApOyBmaWxsLXJ1bGU6IG5vbnplcm87IG9wYWNpdHk6IDE7IiBkPSJNIDc3LjQ3NCAxNy4yOCBMIDYxLjUyNiAxLjMzMiBDIDYwLjY2OCAwLjQ3MyA1OS41MjUgMCA1OC4zMTEgMCBIIDE1Ljc0MiBjIC0yLjUwOCAwIC00LjU0OCAyLjA0IC00LjU0OCA0LjU0OCB2IDgwLjkwNCBjIDAgMi41MDggMi4wNCA0LjU0OCA0LjU0OCA0LjU0OCBoIDU4LjUxNiBjIDIuNTA4IDAgNC41NDkgLTIuMDQgNC41NDkgLTQuNTQ4IFYgMjAuNDk2IEMgNzguODA3IDE5LjI4MSA3OC4zMzMgMTguMTM4IDc3LjQ3NCAxNy4yOCB6IE0gNjEuMDczIDUuMTIxIGwgMTIuNjExIDEyLjYxMiBIIDYyLjM1IGMgLTAuNzA0IDAgLTEuMjc2IC0wLjU3MyAtMS4yNzYgLTEuMjc3IFYgNS4xMjEgeiBNIDc0LjI1OCA4NyBIIDE1Ljc0MiBjIC0wLjg1NCAwIC0xLjU0OCAtMC42OTQgLTEuNTQ4IC0xLjU0OCBWIDQuNTQ4IEMgMTQuMTk0IDMuNjk0IDE0Ljg4OCAzIDE1Ljc0MiAzIGggNDIuMzMyIHYgMTMuNDU2IGMgMCAyLjM1OCAxLjkxOCA0LjI3NyA0LjI3NiA0LjI3NyBoIDEzLjQ1NyB2IDY0LjcxOSBDIDc1LjgwNyA4Ni4zMDYgNzUuMTEyIDg3IDc0LjI1OCA4NyB6Ii8+JiN4YTsJPHBhdGggc3Ryb2tlLWxpbmVjYXA9InJvdW5kIiB0cmFuc2Zvcm09Im1hdHJpeCgxIDAgMCAxIDAgMCkiIHN0eWxlPSJzdHJva2U6IG5vbmU7IHN0cm9rZS13aWR0aDogMTsgc3Ryb2tlLWRhc2hhcnJheTogbm9uZTsgc3Ryb2tlLWxpbmVjYXA6IGJ1dHQ7IHN0cm9rZS1saW5lam9pbjogbWl0ZXI7IHN0cm9rZS1taXRlcmxpbWl0OiAxMDsgZmlsbDogcmdiKDAsMCwwKTsgZmlsbC1ydWxlOiBub256ZXJvOyBvcGFjaXR5OiAxOyIgZD0iTSA2OC4xOTMgMzMuMzE5IEggNDEuODA4IGMgLTAuODI5IDAgLTEuNSAtMC42NzEgLTEuNSAtMS41IHMgMC42NzEgLTEuNSAxLjUgLTEuNSBoIDI2LjM4NSBjIDAuODI4IDAgMS41IDAuNjcxIDEuNSAxLjUgUyA2OS4wMjEgMzMuMzE5IDY4LjE5MyAzMy4zMTkgeiIvPiYjeGE7CTxwYXRoIHN0cm9rZS1saW5lY2FwPSJyb3VuZCIgdHJhbnNmb3JtPSJtYXRyaXgoMSAwIDAgMSAwIDApIiBzdHlsZT0ic3Ryb2tlOiBub25lOyBzdHJva2Utd2lkdGg6IDE7IHN0cm9rZS1kYXNoYXJyYXk6IG5vbmU7IHN0cm9rZS1saW5lY2FwOiBidXR0OyBzdHJva2UtbGluZWpvaW46IG1pdGVyOyBzdHJva2UtbWl0ZXJsaW1pdDogMTA7IGZpbGw6IHJnYigwLDAsMCk7IGZpbGwtcnVsZTogbm9uemVybzsgb3BhY2l0eTogMTsiIGQ9Ik0gMzQuNDU2IDMzLjMxOSBIIDIxLjgwNyBjIC0wLjgyOSAwIC0xLjUgLTAuNjcxIC0xLjUgLTEuNSBzIDAuNjcxIC0xLjUgMS41IC0xLjUgaCAxMi42NDkgYyAwLjgyOSAwIDEuNSAwLjY3MSAxLjUgMS41IFMgMzUuMjg1IDMzLjMxOSAzNC40NTYgMzMuMzE5IHoiLz4mI3hhOwk8bGluZWFyR3JhZGllbnQgeTI9IjE5LjIzMzIiIHgyPSI0Mi4yOTg0IiB5MT0iMTkuMjMzMiIgeDE9IjIxLjgwNjQiIGdyYWRpZW50VW5pdHM9InVzZXJTcGFjZU9uVXNlIiBpZD0iU1ZHSURfMSI+JiN4YTs8c3RvcCBzdHlsZT0ic3RvcC1jb2xvcjpyZ2IoMjU1LDI1NSwyNTUpO3N0b3Atb3BhY2l0eTogMSIgb2Zmc2V0PSIwJSIvPiYjeGE7PHN0b3Agc3R5bGU9InN0b3AtY29sb3I6cmdiKDAsMCwwKTtzdG9wLW9wYWNpdHk6IDEiIG9mZnNldD0iMTAwJSIvPiYjeGE7PC9saW5lYXJHcmFkaWVudD4mI3hhOzxsaW5lIHRyYW5zZm9ybT0ibWF0cml4KDEgMCAwIDEgMCAwKSIgc3R5bGU9InN0cm9rZTogbm9uZTsgc3Ryb2tlLXdpZHRoOiAxOyBzdHJva2UtZGFzaGFycmF5OiBub25lOyBzdHJva2UtbGluZWNhcDogYnV0dDsgc3Ryb2tlLWxpbmVqb2luOiBtaXRlcjsgc3Ryb2tlLW1pdGVybGltaXQ6IDEwOyBmaWxsOiB1cmwoI1NWR0lEXzEpOyBmaWxsLXJ1bGU6IG5vbnplcm87IG9wYWNpdHk6IDE7IiB5Mj0iMCIgeDI9IjEwLjI0NiIgeTE9IjAiIHgxPSItMTAuMjQ2Ii8+JiN4YTsJPHBhdGggc3Ryb2tlLWxpbmVjYXA9InJvdW5kIiB0cmFuc2Zvcm09Im1hdHJpeCgxIDAgMCAxIDAgMCkiIHN0eWxlPSJzdHJva2U6IG5vbmU7IHN0cm9rZS13aWR0aDogMTsgc3Ryb2tlLWRhc2hhcnJheTogbm9uZTsgc3Ryb2tlLWxpbmVjYXA6IGJ1dHQ7IHN0cm9rZS1saW5lam9pbjogbWl0ZXI7IHN0cm9rZS1taXRlcmxpbWl0OiAxMDsgZmlsbDogcmdiKDAsMCwwKTsgZmlsbC1ydWxlOiBub256ZXJvOyBvcGFjaXR5OiAxOyIgZD0iTSA0Mi4yOTggMjAuNzMzIEggMjEuODA3IGMgLTAuODI5IDAgLTEuNSAtMC42NzEgLTEuNSAtMS41IHMgMC42NzEgLTEuNSAxLjUgLTEuNSBoIDIwLjQ5MiBjIDAuODI5IDAgMS41IDAuNjcxIDEuNSAxLjUgUyA0My4xMjcgMjAuNzMzIDQyLjI5OCAyMC43MzMgeiIvPiYjeGE7CTxwYXRoIHN0cm9rZS1saW5lY2FwPSJyb3VuZCIgdHJhbnNmb3JtPSJtYXRyaXgoMSAwIDAgMSAwIDApIiBzdHlsZT0ic3Ryb2tlOiBub25lOyBzdHJva2Utd2lkdGg6IDE7IHN0cm9rZS1kYXNoYXJyYXk6IG5vbmU7IHN0cm9rZS1saW5lY2FwOiBidXR0OyBzdHJva2UtbGluZWpvaW46IG1pdGVyOyBzdHJva2UtbWl0ZXJsaW1pdDogMTA7IGZpbGw6IHJnYigwLDAsMCk7IGZpbGwtcnVsZTogbm9uemVybzsgb3BhY2l0eTogMTsiIGQ9Ik0gNjguMTkzIDQ0LjMxOSBIIDIxLjgwNyBjIC0wLjgyOSAwIC0xLjUgLTAuNjcxIC0xLjUgLTEuNSBzIDAuNjcxIC0xLjUgMS41IC0xLjUgaCA0Ni4zODcgYyAwLjgyOCAwIDEuNSAwLjY3MSAxLjUgMS41IFMgNjkuMDIxIDQ0LjMxOSA2OC4xOTMgNDQuMzE5IHoiLz4mI3hhOwk8cGF0aCBzdHJva2UtbGluZWNhcD0icm91bmQiIHRyYW5zZm9ybT0ibWF0cml4KDEgMCAwIDEgMCAwKSIgc3R5bGU9InN0cm9rZTogbm9uZTsgc3Ryb2tlLXdpZHRoOiAxOyBzdHJva2UtZGFzaGFycmF5OiBub25lOyBzdHJva2UtbGluZWNhcDogYnV0dDsgc3Ryb2tlLWxpbmVqb2luOiBtaXRlcjsgc3Ryb2tlLW1pdGVybGltaXQ6IDEwOyBmaWxsOiByZ2IoMCwwLDApOyBmaWxsLXJ1bGU6IG5vbnplcm87IG9wYWNpdHk6IDE7IiBkPSJNIDQ4LjE5MSA1NS4zMTkgSCAyMS44MDcgYyAtMC44MjkgMCAtMS41IC0wLjY3MiAtMS41IC0xLjUgcyAwLjY3MSAtMS41IDEuNSAtMS41IGggMjYuMzg1IGMgMC44MjggMCAxLjUgMC42NzIgMS41IDEuNSBTIDQ5LjAyIDU1LjMxOSA0OC4xOTEgNTUuMzE5IHoiLz4mI3hhOwk8cGF0aCBzdHJva2UtbGluZWNhcD0icm91bmQiIHRyYW5zZm9ybT0ibWF0cml4KDEgMCAwIDEgMCAwKSIgc3R5bGU9InN0cm9rZTogbm9uZTsgc3Ryb2tlLXdpZHRoOiAxOyBzdHJva2UtZGFzaGFycmF5OiBub25lOyBzdHJva2UtbGluZWNhcDogYnV0dDsgc3Ryb2tlLWxpbmVqb2luOiBtaXRlcjsgc3Ryb2tlLW1pdGVybGltaXQ6IDEwOyBmaWxsOiByZ2IoMCwwLDApOyBmaWxsLXJ1bGU6IG5vbnplcm87IG9wYWNpdHk6IDE7IiBkPSJNIDY4LjE5MyA1NS4zMTkgSCA1NS41NDQgYyAtMC44MjggMCAtMS41IC0wLjY3MiAtMS41IC0xLjUgcyAwLjY3MiAtMS41IDEuNSAtMS41IGggMTIuNjQ5IGMgMC44MjggMCAxLjUgMC42NzIgMS41IDEuNSBTIDY5LjAyMSA1NS4zMTkgNjguMTkzIDU1LjMxOSB6Ii8+JiN4YTsJPHBhdGggc3Ryb2tlLWxpbmVjYXA9InJvdW5kIiB0cmFuc2Zvcm09Im1hdHJpeCgxIDAgMCAxIDAgMCkiIHN0eWxlPSJzdHJva2U6IG5vbmU7IHN0cm9rZS13aWR0aDogMTsgc3Ryb2tlLWRhc2hhcnJheTogbm9uZTsgc3Ryb2tlLWxpbmVjYXA6IGJ1dHQ7IHN0cm9rZS1saW5lam9pbjogbWl0ZXI7IHN0cm9rZS1taXRlcmxpbWl0OiAxMDsgZmlsbDogcmdiKDAsMCwwKTsgZmlsbC1ydWxlOiBub256ZXJvOyBvcGFjaXR5OiAxOyIgZD0iTSA2OC4xOTMgNjYuMzE5IEggMjEuODA3IGMgLTAuODI5IDAgLTEuNSAtMC42NzIgLTEuNSAtMS41IHMgMC42NzEgLTEuNSAxLjUgLTEuNSBoIDQ2LjM4NyBjIDAuODI4IDAgMS41IDAuNjcyIDEuNSAxLjUgUyA2OS4wMjEgNjYuMzE5IDY4LjE5MyA2Ni4zMTkgeiIvPiYjeGE7CTxwYXRoIHN0cm9rZS1saW5lY2FwPSJyb3VuZCIgdHJhbnNmb3JtPSJtYXRyaXgoMSAwIDAgMSAwIDApIiBzdHlsZT0ic3Ryb2tlOiBub25lOyBzdHJva2Utd2lkdGg6IDE7IHN0cm9rZS1kYXNoYXJyYXk6IG5vbmU7IHN0cm9rZS1saW5lY2FwOiBidXR0OyBzdHJva2UtbGluZWpvaW46IG1pdGVyOyBzdHJva2UtbWl0ZXJsaW1pdDogMTA7IGZpbGw6IHJnYigwLDAsMCk7IGZpbGwtcnVsZTogbm9uemVybzsgb3BhY2l0eTogMTsiIGQ9Ik0gNjguMTkzIDc3LjMxOSBIIDU1LjU0NCBjIC0wLjgyOCAwIC0xLjUgLTAuNjcyIC0xLjUgLTEuNSBzIDAuNjcyIC0xLjUgMS41IC0xLjUgaCAxMi42NDkgYyAwLjgyOCAwIDEuNSAwLjY3MiAxLjUgMS41IFMgNjkuMDIxIDc3LjMxOSA2OC4xOTMgNzcuMzE5IHoiLz4mI3hhOzwvZz4mI3hhOzwvc3ZnPg==;" vertex="1" parent="1">
          <mxGeometry x="165" y="573" width="15" height="15" as="geometry" />
        </mxCell>
        <mxCell id="4XcQBWDd-9xv3mYqZWtT-72" value="clean.sh" style="text;html=1;strokeColor=none;fillColor=none;align=left;verticalAlign=middle;whiteSpace=wrap;rounded=0;fontFamily=Computer Modern;" vertex="1" parent="1">
          <mxGeometry x="180" y="573" width="85" height="15" as="geometry" />
        </mxCell>
        <mxCell id="4XcQBWDd-9xv3mYqZWtT-73" value="" style="shape=image;verticalLabelPosition=bottom;labelBackgroundColor=default;verticalAlign=top;aspect=fixed;imageAspect=0;image=data:image/svg+xml,PHN2ZyB4bWxuczp4bGluaz0iaHR0cDovL3d3dy53My5vcmcvMTk5OS94bGluayIgeG1sbnM9Imh0dHA6Ly93d3cudzMub3JnLzIwMDAvc3ZnIiB4bWw6c3BhY2U9InByZXNlcnZlIiB2aWV3Qm94PSIwIDAgMjU2IDI1NiIgaGVpZ2h0PSIyNTYiIHdpZHRoPSIyNTYiIHZlcnNpb249IjEuMSI+JiN4YTsmI3hhOzxkZWZzPiYjeGE7PC9kZWZzPiYjeGE7PGcgdHJhbnNmb3JtPSJ0cmFuc2xhdGUoMS40MDY1OTM0MDY1OTM0MDE2IDEuNDA2NTkzNDA2NTkzNDAxNikgc2NhbGUoMi44MSAyLjgxKSIgc3R5bGU9InN0cm9rZTogbm9uZTsgc3Ryb2tlLXdpZHRoOiAwOyBzdHJva2UtZGFzaGFycmF5OiBub25lOyBzdHJva2UtbGluZWNhcDogYnV0dDsgc3Ryb2tlLWxpbmVqb2luOiBtaXRlcjsgc3Ryb2tlLW1pdGVybGltaXQ6IDEwOyBmaWxsOiBub25lOyBmaWxsLXJ1bGU6IG5vbnplcm87IG9wYWNpdHk6IDE7Ij4mI3hhOwk8cGF0aCBzdHJva2UtbGluZWNhcD0icm91bmQiIHRyYW5zZm9ybT0ibWF0cml4KDEgMCAwIDEgMCAwKSIgc3R5bGU9InN0cm9rZTogbm9uZTsgc3Ryb2tlLXdpZHRoOiAxOyBzdHJva2UtZGFzaGFycmF5OiBub25lOyBzdHJva2UtbGluZWNhcDogYnV0dDsgc3Ryb2tlLWxpbmVqb2luOiBtaXRlcjsgc3Ryb2tlLW1pdGVybGltaXQ6IDEwOyBmaWxsOiByZ2IoMCwwLDApOyBmaWxsLXJ1bGU6IG5vbnplcm87IG9wYWNpdHk6IDE7IiBkPSJNIDc3LjQ3NCAxNy4yOCBMIDYxLjUyNiAxLjMzMiBDIDYwLjY2OCAwLjQ3MyA1OS41MjUgMCA1OC4zMTEgMCBIIDE1Ljc0MiBjIC0yLjUwOCAwIC00LjU0OCAyLjA0IC00LjU0OCA0LjU0OCB2IDgwLjkwNCBjIDAgMi41MDggMi4wNCA0LjU0OCA0LjU0OCA0LjU0OCBoIDU4LjUxNiBjIDIuNTA4IDAgNC41NDkgLTIuMDQgNC41NDkgLTQuNTQ4IFYgMjAuNDk2IEMgNzguODA3IDE5LjI4MSA3OC4zMzMgMTguMTM4IDc3LjQ3NCAxNy4yOCB6IE0gNjEuMDczIDUuMTIxIGwgMTIuNjExIDEyLjYxMiBIIDYyLjM1IGMgLTAuNzA0IDAgLTEuMjc2IC0wLjU3MyAtMS4yNzYgLTEuMjc3IFYgNS4xMjEgeiBNIDc0LjI1OCA4NyBIIDE1Ljc0MiBjIC0wLjg1NCAwIC0xLjU0OCAtMC42OTQgLTEuNTQ4IC0xLjU0OCBWIDQuNTQ4IEMgMTQuMTk0IDMuNjk0IDE0Ljg4OCAzIDE1Ljc0MiAzIGggNDIuMzMyIHYgMTMuNDU2IGMgMCAyLjM1OCAxLjkxOCA0LjI3NyA0LjI3NiA0LjI3NyBoIDEzLjQ1NyB2IDY0LjcxOSBDIDc1LjgwNyA4Ni4zMDYgNzUuMTEyIDg3IDc0LjI1OCA4NyB6Ii8+JiN4YTsJPHBhdGggc3Ryb2tlLWxpbmVjYXA9InJvdW5kIiB0cmFuc2Zvcm09Im1hdHJpeCgxIDAgMCAxIDAgMCkiIHN0eWxlPSJzdHJva2U6IG5vbmU7IHN0cm9rZS13aWR0aDogMTsgc3Ryb2tlLWRhc2hhcnJheTogbm9uZTsgc3Ryb2tlLWxpbmVjYXA6IGJ1dHQ7IHN0cm9rZS1saW5lam9pbjogbWl0ZXI7IHN0cm9rZS1taXRlcmxpbWl0OiAxMDsgZmlsbDogcmdiKDAsMCwwKTsgZmlsbC1ydWxlOiBub256ZXJvOyBvcGFjaXR5OiAxOyIgZD0iTSA2OC4xOTMgMzMuMzE5IEggNDEuODA4IGMgLTAuODI5IDAgLTEuNSAtMC42NzEgLTEuNSAtMS41IHMgMC42NzEgLTEuNSAxLjUgLTEuNSBoIDI2LjM4NSBjIDAuODI4IDAgMS41IDAuNjcxIDEuNSAxLjUgUyA2OS4wMjEgMzMuMzE5IDY4LjE5MyAzMy4zMTkgeiIvPiYjeGE7CTxwYXRoIHN0cm9rZS1saW5lY2FwPSJyb3VuZCIgdHJhbnNmb3JtPSJtYXRyaXgoMSAwIDAgMSAwIDApIiBzdHlsZT0ic3Ryb2tlOiBub25lOyBzdHJva2Utd2lkdGg6IDE7IHN0cm9rZS1kYXNoYXJyYXk6IG5vbmU7IHN0cm9rZS1saW5lY2FwOiBidXR0OyBzdHJva2UtbGluZWpvaW46IG1pdGVyOyBzdHJva2UtbWl0ZXJsaW1pdDogMTA7IGZpbGw6IHJnYigwLDAsMCk7IGZpbGwtcnVsZTogbm9uemVybzsgb3BhY2l0eTogMTsiIGQ9Ik0gMzQuNDU2IDMzLjMxOSBIIDIxLjgwNyBjIC0wLjgyOSAwIC0xLjUgLTAuNjcxIC0xLjUgLTEuNSBzIDAuNjcxIC0xLjUgMS41IC0xLjUgaCAxMi42NDkgYyAwLjgyOSAwIDEuNSAwLjY3MSAxLjUgMS41IFMgMzUuMjg1IDMzLjMxOSAzNC40NTYgMzMuMzE5IHoiLz4mI3hhOwk8bGluZWFyR3JhZGllbnQgeTI9IjE5LjIzMzIiIHgyPSI0Mi4yOTg0IiB5MT0iMTkuMjMzMiIgeDE9IjIxLjgwNjQiIGdyYWRpZW50VW5pdHM9InVzZXJTcGFjZU9uVXNlIiBpZD0iU1ZHSURfMSI+JiN4YTs8c3RvcCBzdHlsZT0ic3RvcC1jb2xvcjpyZ2IoMjU1LDI1NSwyNTUpO3N0b3Atb3BhY2l0eTogMSIgb2Zmc2V0PSIwJSIvPiYjeGE7PHN0b3Agc3R5bGU9InN0b3AtY29sb3I6cmdiKDAsMCwwKTtzdG9wLW9wYWNpdHk6IDEiIG9mZnNldD0iMTAwJSIvPiYjeGE7PC9saW5lYXJHcmFkaWVudD4mI3hhOzxsaW5lIHRyYW5zZm9ybT0ibWF0cml4KDEgMCAwIDEgMCAwKSIgc3R5bGU9InN0cm9rZTogbm9uZTsgc3Ryb2tlLXdpZHRoOiAxOyBzdHJva2UtZGFzaGFycmF5OiBub25lOyBzdHJva2UtbGluZWNhcDogYnV0dDsgc3Ryb2tlLWxpbmVqb2luOiBtaXRlcjsgc3Ryb2tlLW1pdGVybGltaXQ6IDEwOyBmaWxsOiB1cmwoI1NWR0lEXzEpOyBmaWxsLXJ1bGU6IG5vbnplcm87IG9wYWNpdHk6IDE7IiB5Mj0iMCIgeDI9IjEwLjI0NiIgeTE9IjAiIHgxPSItMTAuMjQ2Ii8+JiN4YTsJPHBhdGggc3Ryb2tlLWxpbmVjYXA9InJvdW5kIiB0cmFuc2Zvcm09Im1hdHJpeCgxIDAgMCAxIDAgMCkiIHN0eWxlPSJzdHJva2U6IG5vbmU7IHN0cm9rZS13aWR0aDogMTsgc3Ryb2tlLWRhc2hhcnJheTogbm9uZTsgc3Ryb2tlLWxpbmVjYXA6IGJ1dHQ7IHN0cm9rZS1saW5lam9pbjogbWl0ZXI7IHN0cm9rZS1taXRlcmxpbWl0OiAxMDsgZmlsbDogcmdiKDAsMCwwKTsgZmlsbC1ydWxlOiBub256ZXJvOyBvcGFjaXR5OiAxOyIgZD0iTSA0Mi4yOTggMjAuNzMzIEggMjEuODA3IGMgLTAuODI5IDAgLTEuNSAtMC42NzEgLTEuNSAtMS41IHMgMC42NzEgLTEuNSAxLjUgLTEuNSBoIDIwLjQ5MiBjIDAuODI5IDAgMS41IDAuNjcxIDEuNSAxLjUgUyA0My4xMjcgMjAuNzMzIDQyLjI5OCAyMC43MzMgeiIvPiYjeGE7CTxwYXRoIHN0cm9rZS1saW5lY2FwPSJyb3VuZCIgdHJhbnNmb3JtPSJtYXRyaXgoMSAwIDAgMSAwIDApIiBzdHlsZT0ic3Ryb2tlOiBub25lOyBzdHJva2Utd2lkdGg6IDE7IHN0cm9rZS1kYXNoYXJyYXk6IG5vbmU7IHN0cm9rZS1saW5lY2FwOiBidXR0OyBzdHJva2UtbGluZWpvaW46IG1pdGVyOyBzdHJva2UtbWl0ZXJsaW1pdDogMTA7IGZpbGw6IHJnYigwLDAsMCk7IGZpbGwtcnVsZTogbm9uemVybzsgb3BhY2l0eTogMTsiIGQ9Ik0gNjguMTkzIDQ0LjMxOSBIIDIxLjgwNyBjIC0wLjgyOSAwIC0xLjUgLTAuNjcxIC0xLjUgLTEuNSBzIDAuNjcxIC0xLjUgMS41IC0xLjUgaCA0Ni4zODcgYyAwLjgyOCAwIDEuNSAwLjY3MSAxLjUgMS41IFMgNjkuMDIxIDQ0LjMxOSA2OC4xOTMgNDQuMzE5IHoiLz4mI3hhOwk8cGF0aCBzdHJva2UtbGluZWNhcD0icm91bmQiIHRyYW5zZm9ybT0ibWF0cml4KDEgMCAwIDEgMCAwKSIgc3R5bGU9InN0cm9rZTogbm9uZTsgc3Ryb2tlLXdpZHRoOiAxOyBzdHJva2UtZGFzaGFycmF5OiBub25lOyBzdHJva2UtbGluZWNhcDogYnV0dDsgc3Ryb2tlLWxpbmVqb2luOiBtaXRlcjsgc3Ryb2tlLW1pdGVybGltaXQ6IDEwOyBmaWxsOiByZ2IoMCwwLDApOyBmaWxsLXJ1bGU6IG5vbnplcm87IG9wYWNpdHk6IDE7IiBkPSJNIDQ4LjE5MSA1NS4zMTkgSCAyMS44MDcgYyAtMC44MjkgMCAtMS41IC0wLjY3MiAtMS41IC0xLjUgcyAwLjY3MSAtMS41IDEuNSAtMS41IGggMjYuMzg1IGMgMC44MjggMCAxLjUgMC42NzIgMS41IDEuNSBTIDQ5LjAyIDU1LjMxOSA0OC4xOTEgNTUuMzE5IHoiLz4mI3hhOwk8cGF0aCBzdHJva2UtbGluZWNhcD0icm91bmQiIHRyYW5zZm9ybT0ibWF0cml4KDEgMCAwIDEgMCAwKSIgc3R5bGU9InN0cm9rZTogbm9uZTsgc3Ryb2tlLXdpZHRoOiAxOyBzdHJva2UtZGFzaGFycmF5OiBub25lOyBzdHJva2UtbGluZWNhcDogYnV0dDsgc3Ryb2tlLWxpbmVqb2luOiBtaXRlcjsgc3Ryb2tlLW1pdGVybGltaXQ6IDEwOyBmaWxsOiByZ2IoMCwwLDApOyBmaWxsLXJ1bGU6IG5vbnplcm87IG9wYWNpdHk6IDE7IiBkPSJNIDY4LjE5MyA1NS4zMTkgSCA1NS41NDQgYyAtMC44MjggMCAtMS41IC0wLjY3MiAtMS41IC0xLjUgcyAwLjY3MiAtMS41IDEuNSAtMS41IGggMTIuNjQ5IGMgMC44MjggMCAxLjUgMC42NzIgMS41IDEuNSBTIDY5LjAyMSA1NS4zMTkgNjguMTkzIDU1LjMxOSB6Ii8+JiN4YTsJPHBhdGggc3Ryb2tlLWxpbmVjYXA9InJvdW5kIiB0cmFuc2Zvcm09Im1hdHJpeCgxIDAgMCAxIDAgMCkiIHN0eWxlPSJzdHJva2U6IG5vbmU7IHN0cm9rZS13aWR0aDogMTsgc3Ryb2tlLWRhc2hhcnJheTogbm9uZTsgc3Ryb2tlLWxpbmVjYXA6IGJ1dHQ7IHN0cm9rZS1saW5lam9pbjogbWl0ZXI7IHN0cm9rZS1taXRlcmxpbWl0OiAxMDsgZmlsbDogcmdiKDAsMCwwKTsgZmlsbC1ydWxlOiBub256ZXJvOyBvcGFjaXR5OiAxOyIgZD0iTSA2OC4xOTMgNjYuMzE5IEggMjEuODA3IGMgLTAuODI5IDAgLTEuNSAtMC42NzIgLTEuNSAtMS41IHMgMC42NzEgLTEuNSAxLjUgLTEuNSBoIDQ2LjM4NyBjIDAuODI4IDAgMS41IDAuNjcyIDEuNSAxLjUgUyA2OS4wMjEgNjYuMzE5IDY4LjE5MyA2Ni4zMTkgeiIvPiYjeGE7CTxwYXRoIHN0cm9rZS1saW5lY2FwPSJyb3VuZCIgdHJhbnNmb3JtPSJtYXRyaXgoMSAwIDAgMSAwIDApIiBzdHlsZT0ic3Ryb2tlOiBub25lOyBzdHJva2Utd2lkdGg6IDE7IHN0cm9rZS1kYXNoYXJyYXk6IG5vbmU7IHN0cm9rZS1saW5lY2FwOiBidXR0OyBzdHJva2UtbGluZWpvaW46IG1pdGVyOyBzdHJva2UtbWl0ZXJsaW1pdDogMTA7IGZpbGw6IHJnYigwLDAsMCk7IGZpbGwtcnVsZTogbm9uemVybzsgb3BhY2l0eTogMTsiIGQ9Ik0gNjguMTkzIDc3LjMxOSBIIDU1LjU0NCBjIC0wLjgyOCAwIC0xLjUgLTAuNjcyIC0xLjUgLTEuNSBzIDAuNjcyIC0xLjUgMS41IC0xLjUgaCAxMi42NDkgYyAwLjgyOCAwIDEuNSAwLjY3MiAxLjUgMS41IFMgNjkuMDIxIDc3LjMxOSA2OC4xOTMgNzcuMzE5IHoiLz4mI3hhOzwvZz4mI3hhOzwvc3ZnPg==;" vertex="1" parent="1">
          <mxGeometry x="165" y="593" width="15" height="15" as="geometry" />
        </mxCell>
        <mxCell id="4XcQBWDd-9xv3mYqZWtT-74" value="codecov.yaml" style="text;html=1;strokeColor=none;fillColor=none;align=left;verticalAlign=middle;whiteSpace=wrap;rounded=0;fontFamily=Computer Modern;" vertex="1" parent="1">
          <mxGeometry x="180" y="593" width="85" height="15" as="geometry" />
        </mxCell>
        <mxCell id="4XcQBWDd-9xv3mYqZWtT-75" value="" style="shape=image;verticalLabelPosition=bottom;labelBackgroundColor=default;verticalAlign=top;aspect=fixed;imageAspect=0;image=data:image/svg+xml,PHN2ZyB4bWxuczp4bGluaz0iaHR0cDovL3d3dy53My5vcmcvMTk5OS94bGluayIgeG1sbnM9Imh0dHA6Ly93d3cudzMub3JnLzIwMDAvc3ZnIiB4bWw6c3BhY2U9InByZXNlcnZlIiB2aWV3Qm94PSIwIDAgMjU2IDI1NiIgaGVpZ2h0PSIyNTYiIHdpZHRoPSIyNTYiIHZlcnNpb249IjEuMSI+JiN4YTsmI3hhOzxkZWZzPiYjeGE7PC9kZWZzPiYjeGE7PGcgdHJhbnNmb3JtPSJ0cmFuc2xhdGUoMS40MDY1OTM0MDY1OTM0MDE2IDEuNDA2NTkzNDA2NTkzNDAxNikgc2NhbGUoMi44MSAyLjgxKSIgc3R5bGU9InN0cm9rZTogbm9uZTsgc3Ryb2tlLXdpZHRoOiAwOyBzdHJva2UtZGFzaGFycmF5OiBub25lOyBzdHJva2UtbGluZWNhcDogYnV0dDsgc3Ryb2tlLWxpbmVqb2luOiBtaXRlcjsgc3Ryb2tlLW1pdGVybGltaXQ6IDEwOyBmaWxsOiBub25lOyBmaWxsLXJ1bGU6IG5vbnplcm87IG9wYWNpdHk6IDE7Ij4mI3hhOwk8cGF0aCBzdHJva2UtbGluZWNhcD0icm91bmQiIHRyYW5zZm9ybT0ibWF0cml4KDEgMCAwIDEgMCAwKSIgc3R5bGU9InN0cm9rZTogbm9uZTsgc3Ryb2tlLXdpZHRoOiAxOyBzdHJva2UtZGFzaGFycmF5OiBub25lOyBzdHJva2UtbGluZWNhcDogYnV0dDsgc3Ryb2tlLWxpbmVqb2luOiBtaXRlcjsgc3Ryb2tlLW1pdGVybGltaXQ6IDEwOyBmaWxsOiByZ2IoMCwwLDApOyBmaWxsLXJ1bGU6IG5vbnplcm87IG9wYWNpdHk6IDE7IiBkPSJNIDc3LjQ3NCAxNy4yOCBMIDYxLjUyNiAxLjMzMiBDIDYwLjY2OCAwLjQ3MyA1OS41MjUgMCA1OC4zMTEgMCBIIDE1Ljc0MiBjIC0yLjUwOCAwIC00LjU0OCAyLjA0IC00LjU0OCA0LjU0OCB2IDgwLjkwNCBjIDAgMi41MDggMi4wNCA0LjU0OCA0LjU0OCA0LjU0OCBoIDU4LjUxNiBjIDIuNTA4IDAgNC41NDkgLTIuMDQgNC41NDkgLTQuNTQ4IFYgMjAuNDk2IEMgNzguODA3IDE5LjI4MSA3OC4zMzMgMTguMTM4IDc3LjQ3NCAxNy4yOCB6IE0gNjEuMDczIDUuMTIxIGwgMTIuNjExIDEyLjYxMiBIIDYyLjM1IGMgLTAuNzA0IDAgLTEuMjc2IC0wLjU3MyAtMS4yNzYgLTEuMjc3IFYgNS4xMjEgeiBNIDc0LjI1OCA4NyBIIDE1Ljc0MiBjIC0wLjg1NCAwIC0xLjU0OCAtMC42OTQgLTEuNTQ4IC0xLjU0OCBWIDQuNTQ4IEMgMTQuMTk0IDMuNjk0IDE0Ljg4OCAzIDE1Ljc0MiAzIGggNDIuMzMyIHYgMTMuNDU2IGMgMCAyLjM1OCAxLjkxOCA0LjI3NyA0LjI3NiA0LjI3NyBoIDEzLjQ1NyB2IDY0LjcxOSBDIDc1LjgwNyA4Ni4zMDYgNzUuMTEyIDg3IDc0LjI1OCA4NyB6Ii8+JiN4YTsJPHBhdGggc3Ryb2tlLWxpbmVjYXA9InJvdW5kIiB0cmFuc2Zvcm09Im1hdHJpeCgxIDAgMCAxIDAgMCkiIHN0eWxlPSJzdHJva2U6IG5vbmU7IHN0cm9rZS13aWR0aDogMTsgc3Ryb2tlLWRhc2hhcnJheTogbm9uZTsgc3Ryb2tlLWxpbmVjYXA6IGJ1dHQ7IHN0cm9rZS1saW5lam9pbjogbWl0ZXI7IHN0cm9rZS1taXRlcmxpbWl0OiAxMDsgZmlsbDogcmdiKDAsMCwwKTsgZmlsbC1ydWxlOiBub256ZXJvOyBvcGFjaXR5OiAxOyIgZD0iTSA2OC4xOTMgMzMuMzE5IEggNDEuODA4IGMgLTAuODI5IDAgLTEuNSAtMC42NzEgLTEuNSAtMS41IHMgMC42NzEgLTEuNSAxLjUgLTEuNSBoIDI2LjM4NSBjIDAuODI4IDAgMS41IDAuNjcxIDEuNSAxLjUgUyA2OS4wMjEgMzMuMzE5IDY4LjE5MyAzMy4zMTkgeiIvPiYjeGE7CTxwYXRoIHN0cm9rZS1saW5lY2FwPSJyb3VuZCIgdHJhbnNmb3JtPSJtYXRyaXgoMSAwIDAgMSAwIDApIiBzdHlsZT0ic3Ryb2tlOiBub25lOyBzdHJva2Utd2lkdGg6IDE7IHN0cm9rZS1kYXNoYXJyYXk6IG5vbmU7IHN0cm9rZS1saW5lY2FwOiBidXR0OyBzdHJva2UtbGluZWpvaW46IG1pdGVyOyBzdHJva2UtbWl0ZXJsaW1pdDogMTA7IGZpbGw6IHJnYigwLDAsMCk7IGZpbGwtcnVsZTogbm9uemVybzsgb3BhY2l0eTogMTsiIGQ9Ik0gMzQuNDU2IDMzLjMxOSBIIDIxLjgwNyBjIC0wLjgyOSAwIC0xLjUgLTAuNjcxIC0xLjUgLTEuNSBzIDAuNjcxIC0xLjUgMS41IC0xLjUgaCAxMi42NDkgYyAwLjgyOSAwIDEuNSAwLjY3MSAxLjUgMS41IFMgMzUuMjg1IDMzLjMxOSAzNC40NTYgMzMuMzE5IHoiLz4mI3hhOwk8bGluZWFyR3JhZGllbnQgeTI9IjE5LjIzMzIiIHgyPSI0Mi4yOTg0IiB5MT0iMTkuMjMzMiIgeDE9IjIxLjgwNjQiIGdyYWRpZW50VW5pdHM9InVzZXJTcGFjZU9uVXNlIiBpZD0iU1ZHSURfMSI+JiN4YTs8c3RvcCBzdHlsZT0ic3RvcC1jb2xvcjpyZ2IoMjU1LDI1NSwyNTUpO3N0b3Atb3BhY2l0eTogMSIgb2Zmc2V0PSIwJSIvPiYjeGE7PHN0b3Agc3R5bGU9InN0b3AtY29sb3I6cmdiKDAsMCwwKTtzdG9wLW9wYWNpdHk6IDEiIG9mZnNldD0iMTAwJSIvPiYjeGE7PC9saW5lYXJHcmFkaWVudD4mI3hhOzxsaW5lIHRyYW5zZm9ybT0ibWF0cml4KDEgMCAwIDEgMCAwKSIgc3R5bGU9InN0cm9rZTogbm9uZTsgc3Ryb2tlLXdpZHRoOiAxOyBzdHJva2UtZGFzaGFycmF5OiBub25lOyBzdHJva2UtbGluZWNhcDogYnV0dDsgc3Ryb2tlLWxpbmVqb2luOiBtaXRlcjsgc3Ryb2tlLW1pdGVybGltaXQ6IDEwOyBmaWxsOiB1cmwoI1NWR0lEXzEpOyBmaWxsLXJ1bGU6IG5vbnplcm87IG9wYWNpdHk6IDE7IiB5Mj0iMCIgeDI9IjEwLjI0NiIgeTE9IjAiIHgxPSItMTAuMjQ2Ii8+JiN4YTsJPHBhdGggc3Ryb2tlLWxpbmVjYXA9InJvdW5kIiB0cmFuc2Zvcm09Im1hdHJpeCgxIDAgMCAxIDAgMCkiIHN0eWxlPSJzdHJva2U6IG5vbmU7IHN0cm9rZS13aWR0aDogMTsgc3Ryb2tlLWRhc2hhcnJheTogbm9uZTsgc3Ryb2tlLWxpbmVjYXA6IGJ1dHQ7IHN0cm9rZS1saW5lam9pbjogbWl0ZXI7IHN0cm9rZS1taXRlcmxpbWl0OiAxMDsgZmlsbDogcmdiKDAsMCwwKTsgZmlsbC1ydWxlOiBub256ZXJvOyBvcGFjaXR5OiAxOyIgZD0iTSA0Mi4yOTggMjAuNzMzIEggMjEuODA3IGMgLTAuODI5IDAgLTEuNSAtMC42NzEgLTEuNSAtMS41IHMgMC42NzEgLTEuNSAxLjUgLTEuNSBoIDIwLjQ5MiBjIDAuODI5IDAgMS41IDAuNjcxIDEuNSAxLjUgUyA0My4xMjcgMjAuNzMzIDQyLjI5OCAyMC43MzMgeiIvPiYjeGE7CTxwYXRoIHN0cm9rZS1saW5lY2FwPSJyb3VuZCIgdHJhbnNmb3JtPSJtYXRyaXgoMSAwIDAgMSAwIDApIiBzdHlsZT0ic3Ryb2tlOiBub25lOyBzdHJva2Utd2lkdGg6IDE7IHN0cm9rZS1kYXNoYXJyYXk6IG5vbmU7IHN0cm9rZS1saW5lY2FwOiBidXR0OyBzdHJva2UtbGluZWpvaW46IG1pdGVyOyBzdHJva2UtbWl0ZXJsaW1pdDogMTA7IGZpbGw6IHJnYigwLDAsMCk7IGZpbGwtcnVsZTogbm9uemVybzsgb3BhY2l0eTogMTsiIGQ9Ik0gNjguMTkzIDQ0LjMxOSBIIDIxLjgwNyBjIC0wLjgyOSAwIC0xLjUgLTAuNjcxIC0xLjUgLTEuNSBzIDAuNjcxIC0xLjUgMS41IC0xLjUgaCA0Ni4zODcgYyAwLjgyOCAwIDEuNSAwLjY3MSAxLjUgMS41IFMgNjkuMDIxIDQ0LjMxOSA2OC4xOTMgNDQuMzE5IHoiLz4mI3hhOwk8cGF0aCBzdHJva2UtbGluZWNhcD0icm91bmQiIHRyYW5zZm9ybT0ibWF0cml4KDEgMCAwIDEgMCAwKSIgc3R5bGU9InN0cm9rZTogbm9uZTsgc3Ryb2tlLXdpZHRoOiAxOyBzdHJva2UtZGFzaGFycmF5OiBub25lOyBzdHJva2UtbGluZWNhcDogYnV0dDsgc3Ryb2tlLWxpbmVqb2luOiBtaXRlcjsgc3Ryb2tlLW1pdGVybGltaXQ6IDEwOyBmaWxsOiByZ2IoMCwwLDApOyBmaWxsLXJ1bGU6IG5vbnplcm87IG9wYWNpdHk6IDE7IiBkPSJNIDQ4LjE5MSA1NS4zMTkgSCAyMS44MDcgYyAtMC44MjkgMCAtMS41IC0wLjY3MiAtMS41IC0xLjUgcyAwLjY3MSAtMS41IDEuNSAtMS41IGggMjYuMzg1IGMgMC44MjggMCAxLjUgMC42NzIgMS41IDEuNSBTIDQ5LjAyIDU1LjMxOSA0OC4xOTEgNTUuMzE5IHoiLz4mI3hhOwk8cGF0aCBzdHJva2UtbGluZWNhcD0icm91bmQiIHRyYW5zZm9ybT0ibWF0cml4KDEgMCAwIDEgMCAwKSIgc3R5bGU9InN0cm9rZTogbm9uZTsgc3Ryb2tlLXdpZHRoOiAxOyBzdHJva2UtZGFzaGFycmF5OiBub25lOyBzdHJva2UtbGluZWNhcDogYnV0dDsgc3Ryb2tlLWxpbmVqb2luOiBtaXRlcjsgc3Ryb2tlLW1pdGVybGltaXQ6IDEwOyBmaWxsOiByZ2IoMCwwLDApOyBmaWxsLXJ1bGU6IG5vbnplcm87IG9wYWNpdHk6IDE7IiBkPSJNIDY4LjE5MyA1NS4zMTkgSCA1NS41NDQgYyAtMC44MjggMCAtMS41IC0wLjY3MiAtMS41IC0xLjUgcyAwLjY3MiAtMS41IDEuNSAtMS41IGggMTIuNjQ5IGMgMC44MjggMCAxLjUgMC42NzIgMS41IDEuNSBTIDY5LjAyMSA1NS4zMTkgNjguMTkzIDU1LjMxOSB6Ii8+JiN4YTsJPHBhdGggc3Ryb2tlLWxpbmVjYXA9InJvdW5kIiB0cmFuc2Zvcm09Im1hdHJpeCgxIDAgMCAxIDAgMCkiIHN0eWxlPSJzdHJva2U6IG5vbmU7IHN0cm9rZS13aWR0aDogMTsgc3Ryb2tlLWRhc2hhcnJheTogbm9uZTsgc3Ryb2tlLWxpbmVjYXA6IGJ1dHQ7IHN0cm9rZS1saW5lam9pbjogbWl0ZXI7IHN0cm9rZS1taXRlcmxpbWl0OiAxMDsgZmlsbDogcmdiKDAsMCwwKTsgZmlsbC1ydWxlOiBub256ZXJvOyBvcGFjaXR5OiAxOyIgZD0iTSA2OC4xOTMgNjYuMzE5IEggMjEuODA3IGMgLTAuODI5IDAgLTEuNSAtMC42NzIgLTEuNSAtMS41IHMgMC42NzEgLTEuNSAxLjUgLTEuNSBoIDQ2LjM4NyBjIDAuODI4IDAgMS41IDAuNjcyIDEuNSAxLjUgUyA2OS4wMjEgNjYuMzE5IDY4LjE5MyA2Ni4zMTkgeiIvPiYjeGE7CTxwYXRoIHN0cm9rZS1saW5lY2FwPSJyb3VuZCIgdHJhbnNmb3JtPSJtYXRyaXgoMSAwIDAgMSAwIDApIiBzdHlsZT0ic3Ryb2tlOiBub25lOyBzdHJva2Utd2lkdGg6IDE7IHN0cm9rZS1kYXNoYXJyYXk6IG5vbmU7IHN0cm9rZS1saW5lY2FwOiBidXR0OyBzdHJva2UtbGluZWpvaW46IG1pdGVyOyBzdHJva2UtbWl0ZXJsaW1pdDogMTA7IGZpbGw6IHJnYigwLDAsMCk7IGZpbGwtcnVsZTogbm9uemVybzsgb3BhY2l0eTogMTsiIGQ9Ik0gNjguMTkzIDc3LjMxOSBIIDU1LjU0NCBjIC0wLjgyOCAwIC0xLjUgLTAuNjcyIC0xLjUgLTEuNSBzIDAuNjcyIC0xLjUgMS41IC0xLjUgaCAxMi42NDkgYyAwLjgyOCAwIDEuNSAwLjY3MiAxLjUgMS41IFMgNjkuMDIxIDc3LjMxOSA2OC4xOTMgNzcuMzE5IHoiLz4mI3hhOzwvZz4mI3hhOzwvc3ZnPg==;" vertex="1" parent="1">
          <mxGeometry x="165" y="613" width="15" height="15" as="geometry" />
        </mxCell>
        <mxCell id="4XcQBWDd-9xv3mYqZWtT-76" value="imgui.ini" style="text;html=1;strokeColor=none;fillColor=none;align=left;verticalAlign=middle;whiteSpace=wrap;rounded=0;fontFamily=Computer Modern;" vertex="1" parent="1">
          <mxGeometry x="180" y="613" width="85" height="15" as="geometry" />
        </mxCell>
        <mxCell id="4XcQBWDd-9xv3mYqZWtT-77" value="" style="shape=image;verticalLabelPosition=bottom;labelBackgroundColor=default;verticalAlign=top;aspect=fixed;imageAspect=0;image=data:image/svg+xml,PHN2ZyB4bWxuczp4bGluaz0iaHR0cDovL3d3dy53My5vcmcvMTk5OS94bGluayIgeG1sbnM9Imh0dHA6Ly93d3cudzMub3JnLzIwMDAvc3ZnIiB4bWw6c3BhY2U9InByZXNlcnZlIiB2aWV3Qm94PSIwIDAgMjU2IDI1NiIgaGVpZ2h0PSIyNTYiIHdpZHRoPSIyNTYiIHZlcnNpb249IjEuMSI+JiN4YTsmI3hhOzxkZWZzPiYjeGE7PC9kZWZzPiYjeGE7PGcgdHJhbnNmb3JtPSJ0cmFuc2xhdGUoMS40MDY1OTM0MDY1OTM0MDE2IDEuNDA2NTkzNDA2NTkzNDAxNikgc2NhbGUoMi44MSAyLjgxKSIgc3R5bGU9InN0cm9rZTogbm9uZTsgc3Ryb2tlLXdpZHRoOiAwOyBzdHJva2UtZGFzaGFycmF5OiBub25lOyBzdHJva2UtbGluZWNhcDogYnV0dDsgc3Ryb2tlLWxpbmVqb2luOiBtaXRlcjsgc3Ryb2tlLW1pdGVybGltaXQ6IDEwOyBmaWxsOiBub25lOyBmaWxsLXJ1bGU6IG5vbnplcm87IG9wYWNpdHk6IDE7Ij4mI3hhOwk8cGF0aCBzdHJva2UtbGluZWNhcD0icm91bmQiIHRyYW5zZm9ybT0ibWF0cml4KDEgMCAwIDEgMCAwKSIgc3R5bGU9InN0cm9rZTogbm9uZTsgc3Ryb2tlLXdpZHRoOiAxOyBzdHJva2UtZGFzaGFycmF5OiBub25lOyBzdHJva2UtbGluZWNhcDogYnV0dDsgc3Ryb2tlLWxpbmVqb2luOiBtaXRlcjsgc3Ryb2tlLW1pdGVybGltaXQ6IDEwOyBmaWxsOiByZ2IoMCwwLDApOyBmaWxsLXJ1bGU6IG5vbnplcm87IG9wYWNpdHk6IDE7IiBkPSJNIDc3LjQ3NCAxNy4yOCBMIDYxLjUyNiAxLjMzMiBDIDYwLjY2OCAwLjQ3MyA1OS41MjUgMCA1OC4zMTEgMCBIIDE1Ljc0MiBjIC0yLjUwOCAwIC00LjU0OCAyLjA0IC00LjU0OCA0LjU0OCB2IDgwLjkwNCBjIDAgMi41MDggMi4wNCA0LjU0OCA0LjU0OCA0LjU0OCBoIDU4LjUxNiBjIDIuNTA4IDAgNC41NDkgLTIuMDQgNC41NDkgLTQuNTQ4IFYgMjAuNDk2IEMgNzguODA3IDE5LjI4MSA3OC4zMzMgMTguMTM4IDc3LjQ3NCAxNy4yOCB6IE0gNjEuMDczIDUuMTIxIGwgMTIuNjExIDEyLjYxMiBIIDYyLjM1IGMgLTAuNzA0IDAgLTEuMjc2IC0wLjU3MyAtMS4yNzYgLTEuMjc3IFYgNS4xMjEgeiBNIDc0LjI1OCA4NyBIIDE1Ljc0MiBjIC0wLjg1NCAwIC0xLjU0OCAtMC42OTQgLTEuNTQ4IC0xLjU0OCBWIDQuNTQ4IEMgMTQuMTk0IDMuNjk0IDE0Ljg4OCAzIDE1Ljc0MiAzIGggNDIuMzMyIHYgMTMuNDU2IGMgMCAyLjM1OCAxLjkxOCA0LjI3NyA0LjI3NiA0LjI3NyBoIDEzLjQ1NyB2IDY0LjcxOSBDIDc1LjgwNyA4Ni4zMDYgNzUuMTEyIDg3IDc0LjI1OCA4NyB6Ii8+JiN4YTsJPHBhdGggc3Ryb2tlLWxpbmVjYXA9InJvdW5kIiB0cmFuc2Zvcm09Im1hdHJpeCgxIDAgMCAxIDAgMCkiIHN0eWxlPSJzdHJva2U6IG5vbmU7IHN0cm9rZS13aWR0aDogMTsgc3Ryb2tlLWRhc2hhcnJheTogbm9uZTsgc3Ryb2tlLWxpbmVjYXA6IGJ1dHQ7IHN0cm9rZS1saW5lam9pbjogbWl0ZXI7IHN0cm9rZS1taXRlcmxpbWl0OiAxMDsgZmlsbDogcmdiKDAsMCwwKTsgZmlsbC1ydWxlOiBub256ZXJvOyBvcGFjaXR5OiAxOyIgZD0iTSA2OC4xOTMgMzMuMzE5IEggNDEuODA4IGMgLTAuODI5IDAgLTEuNSAtMC42NzEgLTEuNSAtMS41IHMgMC42NzEgLTEuNSAxLjUgLTEuNSBoIDI2LjM4NSBjIDAuODI4IDAgMS41IDAuNjcxIDEuNSAxLjUgUyA2OS4wMjEgMzMuMzE5IDY4LjE5MyAzMy4zMTkgeiIvPiYjeGE7CTxwYXRoIHN0cm9rZS1saW5lY2FwPSJyb3VuZCIgdHJhbnNmb3JtPSJtYXRyaXgoMSAwIDAgMSAwIDApIiBzdHlsZT0ic3Ryb2tlOiBub25lOyBzdHJva2Utd2lkdGg6IDE7IHN0cm9rZS1kYXNoYXJyYXk6IG5vbmU7IHN0cm9rZS1saW5lY2FwOiBidXR0OyBzdHJva2UtbGluZWpvaW46IG1pdGVyOyBzdHJva2UtbWl0ZXJsaW1pdDogMTA7IGZpbGw6IHJnYigwLDAsMCk7IGZpbGwtcnVsZTogbm9uemVybzsgb3BhY2l0eTogMTsiIGQ9Ik0gMzQuNDU2IDMzLjMxOSBIIDIxLjgwNyBjIC0wLjgyOSAwIC0xLjUgLTAuNjcxIC0xLjUgLTEuNSBzIDAuNjcxIC0xLjUgMS41IC0xLjUgaCAxMi42NDkgYyAwLjgyOSAwIDEuNSAwLjY3MSAxLjUgMS41IFMgMzUuMjg1IDMzLjMxOSAzNC40NTYgMzMuMzE5IHoiLz4mI3hhOwk8bGluZWFyR3JhZGllbnQgeTI9IjE5LjIzMzIiIHgyPSI0Mi4yOTg0IiB5MT0iMTkuMjMzMiIgeDE9IjIxLjgwNjQiIGdyYWRpZW50VW5pdHM9InVzZXJTcGFjZU9uVXNlIiBpZD0iU1ZHSURfMSI+JiN4YTs8c3RvcCBzdHlsZT0ic3RvcC1jb2xvcjpyZ2IoMjU1LDI1NSwyNTUpO3N0b3Atb3BhY2l0eTogMSIgb2Zmc2V0PSIwJSIvPiYjeGE7PHN0b3Agc3R5bGU9InN0b3AtY29sb3I6cmdiKDAsMCwwKTtzdG9wLW9wYWNpdHk6IDEiIG9mZnNldD0iMTAwJSIvPiYjeGE7PC9saW5lYXJHcmFkaWVudD4mI3hhOzxsaW5lIHRyYW5zZm9ybT0ibWF0cml4KDEgMCAwIDEgMCAwKSIgc3R5bGU9InN0cm9rZTogbm9uZTsgc3Ryb2tlLXdpZHRoOiAxOyBzdHJva2UtZGFzaGFycmF5OiBub25lOyBzdHJva2UtbGluZWNhcDogYnV0dDsgc3Ryb2tlLWxpbmVqb2luOiBtaXRlcjsgc3Ryb2tlLW1pdGVybGltaXQ6IDEwOyBmaWxsOiB1cmwoI1NWR0lEXzEpOyBmaWxsLXJ1bGU6IG5vbnplcm87IG9wYWNpdHk6IDE7IiB5Mj0iMCIgeDI9IjEwLjI0NiIgeTE9IjAiIHgxPSItMTAuMjQ2Ii8+JiN4YTsJPHBhdGggc3Ryb2tlLWxpbmVjYXA9InJvdW5kIiB0cmFuc2Zvcm09Im1hdHJpeCgxIDAgMCAxIDAgMCkiIHN0eWxlPSJzdHJva2U6IG5vbmU7IHN0cm9rZS13aWR0aDogMTsgc3Ryb2tlLWRhc2hhcnJheTogbm9uZTsgc3Ryb2tlLWxpbmVjYXA6IGJ1dHQ7IHN0cm9rZS1saW5lam9pbjogbWl0ZXI7IHN0cm9rZS1taXRlcmxpbWl0OiAxMDsgZmlsbDogcmdiKDAsMCwwKTsgZmlsbC1ydWxlOiBub256ZXJvOyBvcGFjaXR5OiAxOyIgZD0iTSA0Mi4yOTggMjAuNzMzIEggMjEuODA3IGMgLTAuODI5IDAgLTEuNSAtMC42NzEgLTEuNSAtMS41IHMgMC42NzEgLTEuNSAxLjUgLTEuNSBoIDIwLjQ5MiBjIDAuODI5IDAgMS41IDAuNjcxIDEuNSAxLjUgUyA0My4xMjcgMjAuNzMzIDQyLjI5OCAyMC43MzMgeiIvPiYjeGE7CTxwYXRoIHN0cm9rZS1saW5lY2FwPSJyb3VuZCIgdHJhbnNmb3JtPSJtYXRyaXgoMSAwIDAgMSAwIDApIiBzdHlsZT0ic3Ryb2tlOiBub25lOyBzdHJva2Utd2lkdGg6IDE7IHN0cm9rZS1kYXNoYXJyYXk6IG5vbmU7IHN0cm9rZS1saW5lY2FwOiBidXR0OyBzdHJva2UtbGluZWpvaW46IG1pdGVyOyBzdHJva2UtbWl0ZXJsaW1pdDogMTA7IGZpbGw6IHJnYigwLDAsMCk7IGZpbGwtcnVsZTogbm9uemVybzsgb3BhY2l0eTogMTsiIGQ9Ik0gNjguMTkzIDQ0LjMxOSBIIDIxLjgwNyBjIC0wLjgyOSAwIC0xLjUgLTAuNjcxIC0xLjUgLTEuNSBzIDAuNjcxIC0xLjUgMS41IC0xLjUgaCA0Ni4zODcgYyAwLjgyOCAwIDEuNSAwLjY3MSAxLjUgMS41IFMgNjkuMDIxIDQ0LjMxOSA2OC4xOTMgNDQuMzE5IHoiLz4mI3hhOwk8cGF0aCBzdHJva2UtbGluZWNhcD0icm91bmQiIHRyYW5zZm9ybT0ibWF0cml4KDEgMCAwIDEgMCAwKSIgc3R5bGU9InN0cm9rZTogbm9uZTsgc3Ryb2tlLXdpZHRoOiAxOyBzdHJva2UtZGFzaGFycmF5OiBub25lOyBzdHJva2UtbGluZWNhcDogYnV0dDsgc3Ryb2tlLWxpbmVqb2luOiBtaXRlcjsgc3Ryb2tlLW1pdGVybGltaXQ6IDEwOyBmaWxsOiByZ2IoMCwwLDApOyBmaWxsLXJ1bGU6IG5vbnplcm87IG9wYWNpdHk6IDE7IiBkPSJNIDQ4LjE5MSA1NS4zMTkgSCAyMS44MDcgYyAtMC44MjkgMCAtMS41IC0wLjY3MiAtMS41IC0xLjUgcyAwLjY3MSAtMS41IDEuNSAtMS41IGggMjYuMzg1IGMgMC44MjggMCAxLjUgMC42NzIgMS41IDEuNSBTIDQ5LjAyIDU1LjMxOSA0OC4xOTEgNTUuMzE5IHoiLz4mI3hhOwk8cGF0aCBzdHJva2UtbGluZWNhcD0icm91bmQiIHRyYW5zZm9ybT0ibWF0cml4KDEgMCAwIDEgMCAwKSIgc3R5bGU9InN0cm9rZTogbm9uZTsgc3Ryb2tlLXdpZHRoOiAxOyBzdHJva2UtZGFzaGFycmF5OiBub25lOyBzdHJva2UtbGluZWNhcDogYnV0dDsgc3Ryb2tlLWxpbmVqb2luOiBtaXRlcjsgc3Ryb2tlLW1pdGVybGltaXQ6IDEwOyBmaWxsOiByZ2IoMCwwLDApOyBmaWxsLXJ1bGU6IG5vbnplcm87IG9wYWNpdHk6IDE7IiBkPSJNIDY4LjE5MyA1NS4zMTkgSCA1NS41NDQgYyAtMC44MjggMCAtMS41IC0wLjY3MiAtMS41IC0xLjUgcyAwLjY3MiAtMS41IDEuNSAtMS41IGggMTIuNjQ5IGMgMC44MjggMCAxLjUgMC42NzIgMS41IDEuNSBTIDY5LjAyMSA1NS4zMTkgNjguMTkzIDU1LjMxOSB6Ii8+JiN4YTsJPHBhdGggc3Ryb2tlLWxpbmVjYXA9InJvdW5kIiB0cmFuc2Zvcm09Im1hdHJpeCgxIDAgMCAxIDAgMCkiIHN0eWxlPSJzdHJva2U6IG5vbmU7IHN0cm9rZS13aWR0aDogMTsgc3Ryb2tlLWRhc2hhcnJheTogbm9uZTsgc3Ryb2tlLWxpbmVjYXA6IGJ1dHQ7IHN0cm9rZS1saW5lam9pbjogbWl0ZXI7IHN0cm9rZS1taXRlcmxpbWl0OiAxMDsgZmlsbDogcmdiKDAsMCwwKTsgZmlsbC1ydWxlOiBub256ZXJvOyBvcGFjaXR5OiAxOyIgZD0iTSA2OC4xOTMgNjYuMzE5IEggMjEuODA3IGMgLTAuODI5IDAgLTEuNSAtMC42NzIgLTEuNSAtMS41IHMgMC42NzEgLTEuNSAxLjUgLTEuNSBoIDQ2LjM4NyBjIDAuODI4IDAgMS41IDAuNjcyIDEuNSAxLjUgUyA2OS4wMjEgNjYuMzE5IDY4LjE5MyA2Ni4zMTkgeiIvPiYjeGE7CTxwYXRoIHN0cm9rZS1saW5lY2FwPSJyb3VuZCIgdHJhbnNmb3JtPSJtYXRyaXgoMSAwIDAgMSAwIDApIiBzdHlsZT0ic3Ryb2tlOiBub25lOyBzdHJva2Utd2lkdGg6IDE7IHN0cm9rZS1kYXNoYXJyYXk6IG5vbmU7IHN0cm9rZS1saW5lY2FwOiBidXR0OyBzdHJva2UtbGluZWpvaW46IG1pdGVyOyBzdHJva2UtbWl0ZXJsaW1pdDogMTA7IGZpbGw6IHJnYigwLDAsMCk7IGZpbGwtcnVsZTogbm9uemVybzsgb3BhY2l0eTogMTsiIGQ9Ik0gNjguMTkzIDc3LjMxOSBIIDU1LjU0NCBjIC0wLjgyOCAwIC0xLjUgLTAuNjcyIC0xLjUgLTEuNSBzIDAuNjcyIC0xLjUgMS41IC0xLjUgaCAxMi42NDkgYyAwLjgyOCAwIDEuNSAwLjY3MiAxLjUgMS41IFMgNjkuMDIxIDc3LjMxOSA2OC4xOTMgNzcuMzE5IHoiLz4mI3hhOzwvZz4mI3hhOzwvc3ZnPg==;" vertex="1" parent="1">
          <mxGeometry x="165" y="633" width="15" height="15" as="geometry" />
        </mxCell>
        <mxCell id="4XcQBWDd-9xv3mYqZWtT-78" value="peripherals.json" style="text;html=1;strokeColor=none;fillColor=none;align=left;verticalAlign=middle;whiteSpace=wrap;rounded=0;fontFamily=Computer Modern;" vertex="1" parent="1">
          <mxGeometry x="180" y="633" width="85" height="15" as="geometry" />
        </mxCell>
        <mxCell id="4XcQBWDd-9xv3mYqZWtT-151" value="" style="endArrow=none;html=1;rounded=0;" edge="1" parent="1">
          <mxGeometry width="50" height="50" relative="1" as="geometry">
            <mxPoint x="165" y="382.47999999999996" as="sourcePoint" />
            <mxPoint x="160" y="382.47999999999996" as="targetPoint" />
          </mxGeometry>
        </mxCell>
        <mxCell id="4XcQBWDd-9xv3mYqZWtT-152" value="" style="endArrow=none;html=1;rounded=0;" edge="1" parent="1">
          <mxGeometry width="50" height="50" relative="1" as="geometry">
            <mxPoint x="165" y="402.46" as="sourcePoint" />
            <mxPoint x="160" y="402.46" as="targetPoint" />
          </mxGeometry>
        </mxCell>
        <mxCell id="4XcQBWDd-9xv3mYqZWtT-153" value="" style="endArrow=none;html=1;rounded=0;" edge="1" parent="1">
          <mxGeometry width="50" height="50" relative="1" as="geometry">
            <mxPoint x="165" y="422.46" as="sourcePoint" />
            <mxPoint x="160" y="422.46" as="targetPoint" />
          </mxGeometry>
        </mxCell>
        <mxCell id="4XcQBWDd-9xv3mYqZWtT-154" value="" style="endArrow=none;html=1;rounded=0;" edge="1" parent="1">
          <mxGeometry width="50" height="50" relative="1" as="geometry">
            <mxPoint x="165" y="442.46" as="sourcePoint" />
            <mxPoint x="160" y="442.46" as="targetPoint" />
          </mxGeometry>
        </mxCell>
        <mxCell id="4XcQBWDd-9xv3mYqZWtT-155" value="" style="endArrow=none;html=1;rounded=0;" edge="1" parent="1">
          <mxGeometry width="50" height="50" relative="1" as="geometry">
            <mxPoint x="165" y="460.46" as="sourcePoint" />
            <mxPoint x="160" y="460.46" as="targetPoint" />
          </mxGeometry>
        </mxCell>
        <mxCell id="4XcQBWDd-9xv3mYqZWtT-156" value="" style="endArrow=none;html=1;rounded=0;" edge="1" parent="1">
          <mxGeometry width="50" height="50" relative="1" as="geometry">
            <mxPoint x="165" y="480.46" as="sourcePoint" />
            <mxPoint x="160" y="480.46" as="targetPoint" />
          </mxGeometry>
        </mxCell>
        <mxCell id="4XcQBWDd-9xv3mYqZWtT-157" value="" style="endArrow=none;html=1;rounded=0;" edge="1" parent="1">
          <mxGeometry width="50" height="50" relative="1" as="geometry">
            <mxPoint x="165" y="500.46" as="sourcePoint" />
            <mxPoint x="160" y="500.46" as="targetPoint" />
          </mxGeometry>
        </mxCell>
        <mxCell id="4XcQBWDd-9xv3mYqZWtT-158" value="" style="endArrow=none;html=1;rounded=0;" edge="1" parent="1">
          <mxGeometry width="50" height="50" relative="1" as="geometry">
            <mxPoint x="165" y="520.46" as="sourcePoint" />
            <mxPoint x="160" y="520.46" as="targetPoint" />
          </mxGeometry>
        </mxCell>
        <mxCell id="4XcQBWDd-9xv3mYqZWtT-159" value="" style="endArrow=none;html=1;rounded=0;" edge="1" parent="1">
          <mxGeometry width="50" height="50" relative="1" as="geometry">
            <mxPoint x="165" y="540.46" as="sourcePoint" />
            <mxPoint x="160" y="540.46" as="targetPoint" />
          </mxGeometry>
        </mxCell>
        <mxCell id="4XcQBWDd-9xv3mYqZWtT-160" value="" style="endArrow=none;html=1;rounded=0;" edge="1" parent="1">
          <mxGeometry width="50" height="50" relative="1" as="geometry">
            <mxPoint x="165" y="560.47" as="sourcePoint" />
            <mxPoint x="160" y="560.47" as="targetPoint" />
          </mxGeometry>
        </mxCell>
        <mxCell id="4XcQBWDd-9xv3mYqZWtT-161" value="" style="endArrow=none;html=1;rounded=0;" edge="1" parent="1">
          <mxGeometry width="50" height="50" relative="1" as="geometry">
            <mxPoint x="165" y="580.47" as="sourcePoint" />
            <mxPoint x="160" y="580.47" as="targetPoint" />
          </mxGeometry>
        </mxCell>
        <mxCell id="4XcQBWDd-9xv3mYqZWtT-162" value="" style="endArrow=none;html=1;rounded=0;" edge="1" parent="1">
          <mxGeometry width="50" height="50" relative="1" as="geometry">
            <mxPoint x="165" y="600.47" as="sourcePoint" />
            <mxPoint x="160" y="600.47" as="targetPoint" />
          </mxGeometry>
        </mxCell>
        <mxCell id="4XcQBWDd-9xv3mYqZWtT-163" value="" style="endArrow=none;html=1;rounded=0;" edge="1" parent="1">
          <mxGeometry width="50" height="50" relative="1" as="geometry">
            <mxPoint x="165" y="620.47" as="sourcePoint" />
            <mxPoint x="160" y="620.47" as="targetPoint" />
          </mxGeometry>
        </mxCell>
        <mxCell id="4XcQBWDd-9xv3mYqZWtT-164" value="" style="endArrow=none;html=1;rounded=0;" edge="1" parent="1">
          <mxGeometry width="50" height="50" relative="1" as="geometry">
            <mxPoint x="165" y="640.47" as="sourcePoint" />
            <mxPoint x="160" y="640.47" as="targetPoint" />
          </mxGeometry>
        </mxCell>
        <mxCell id="4XcQBWDd-9xv3mYqZWtT-166" value="# GitHub actions (CI), issue templates" style="text;html=1;strokeColor=none;fillColor=none;align=left;verticalAlign=middle;whiteSpace=wrap;rounded=0;fontFamily=Computer Modern;" vertex="1" parent="1">
          <mxGeometry x="289" y="172.5" width="200" height="15" as="geometry" />
        </mxCell>
        <mxCell id="4XcQBWDd-9xv3mYqZWtT-167" value="# CMake scripts (compiler options, ...)" style="text;html=1;strokeColor=none;fillColor=none;align=left;verticalAlign=middle;whiteSpace=wrap;rounded=0;fontFamily=Computer Modern;" vertex="1" parent="1">
          <mxGeometry x="289" y="190" width="200" height="15" as="geometry" />
        </mxCell>
        <mxCell id="4XcQBWDd-9xv3mYqZWtT-168" value="# Documentation" style="text;html=1;strokeColor=none;fillColor=none;align=left;verticalAlign=middle;whiteSpace=wrap;rounded=0;fontFamily=Computer Modern;" vertex="1" parent="1">
          <mxGeometry x="289" y="205" width="200" height="15" as="geometry" />
        </mxCell>
        <mxCell id="4XcQBWDd-9xv3mYqZWtT-169" value="# Test programs (demos)" style="text;html=1;strokeColor=none;fillColor=none;align=left;verticalAlign=middle;whiteSpace=wrap;rounded=0;fontFamily=Computer Modern;" vertex="1" parent="1">
          <mxGeometry x="289" y="220" width="200" height="15" as="geometry" />
        </mxCell>
        <mxCell id="4XcQBWDd-9xv3mYqZWtT-170" value="# 3rd&amp;nbsp;party libraries" style="text;html=1;strokeColor=none;fillColor=none;align=left;verticalAlign=middle;whiteSpace=wrap;rounded=0;fontFamily=Computer Modern;" vertex="1" parent="1">
          <mxGeometry x="289" y="235" width="200" height="15" as="geometry" />
        </mxCell>
        <mxCell id="4XcQBWDd-9xv3mYqZWtT-171" value="# Public interface (external peripheral)&amp;nbsp;" style="text;html=1;strokeColor=none;fillColor=none;align=left;verticalAlign=middle;whiteSpace=wrap;rounded=0;fontFamily=Computer Modern;" vertex="1" parent="1">
          <mxGeometry x="289" y="250" width="200" height="15" as="geometry" />
        </mxCell>
        <mxCell id="4XcQBWDd-9xv3mYqZWtT-172" value="# Internal libraries (logger)&amp;nbsp;" style="text;html=1;strokeColor=none;fillColor=none;align=left;verticalAlign=middle;whiteSpace=wrap;rounded=0;fontFamily=Computer Modern;" vertex="1" parent="1">
          <mxGeometry x="289" y="280" width="200" height="15" as="geometry" />
        </mxCell>
        <mxCell id="4XcQBWDd-9xv3mYqZWtT-173" value="# Miscellaneous" style="text;html=1;strokeColor=none;fillColor=none;align=left;verticalAlign=middle;whiteSpace=wrap;rounded=0;fontFamily=Computer Modern;" vertex="1" parent="1">
          <mxGeometry x="289" y="295" width="200" height="15" as="geometry" />
        </mxCell>
        <mxCell id="4XcQBWDd-9xv3mYqZWtT-174" value="# External peripherals (LED, serial terminal, ...)" style="text;html=1;strokeColor=none;fillColor=none;align=left;verticalAlign=middle;whiteSpace=wrap;rounded=0;fontFamily=Computer Modern;" vertex="1" parent="1">
          <mxGeometry x="289" y="310" width="250" height="15" as="geometry" />
        </mxCell>
        <mxCell id="4XcQBWDd-9xv3mYqZWtT-175" value="# Source code of the emulator" style="text;html=1;strokeColor=none;fillColor=none;align=left;verticalAlign=middle;whiteSpace=wrap;rounded=0;fontFamily=Computer Modern;" vertex="1" parent="1">
          <mxGeometry x="289" y="327.5" width="250" height="15" as="geometry" />
        </mxCell>
        <mxCell id="4XcQBWDd-9xv3mYqZWtT-176" value="# Unit tests" style="text;html=1;strokeColor=none;fillColor=none;align=left;verticalAlign=middle;whiteSpace=wrap;rounded=0;fontFamily=Computer Modern;" vertex="1" parent="1">
          <mxGeometry x="289" y="340" width="250" height="15" as="geometry" />
        </mxCell>
        <mxCell id="4XcQBWDd-9xv3mYqZWtT-177" value="# Helper tools (debug monitor)" style="text;html=1;strokeColor=none;fillColor=none;align=left;verticalAlign=middle;whiteSpace=wrap;rounded=0;fontFamily=Computer Modern;" vertex="1" parent="1">
          <mxGeometry x="289" y="355" width="250" height="15" as="geometry" />
        </mxCell>
        <mxCell id="4XcQBWDd-9xv3mYqZWtT-178" value="# Unified formatting throughout the codebase" style="text;html=1;strokeColor=none;fillColor=none;align=left;verticalAlign=middle;whiteSpace=wrap;rounded=0;fontFamily=Computer Modern;" vertex="1" parent="1">
          <mxGeometry x="289" y="375" width="250" height="15" as="geometry" />
        </mxCell>
        <mxCell id="4XcQBWDd-9xv3mYqZWtT-179" value="# Clang-based C++ “linter” tool" style="text;html=1;strokeColor=none;fillColor=none;align=left;verticalAlign=middle;whiteSpace=wrap;rounded=0;fontFamily=Computer Modern;" vertex="1" parent="1">
          <mxGeometry x="289" y="395" width="250" height="15" as="geometry" />
        </mxCell>
        <mxCell id="4XcQBWDd-9xv3mYqZWtT-181" value="# List of files and folders that omitted from the source control&amp;nbsp;" style="text;html=1;strokeColor=none;fillColor=none;align=left;verticalAlign=middle;whiteSpace=wrap;rounded=0;fontFamily=Computer Modern;" vertex="1" parent="1">
          <mxGeometry x="289" y="415" width="320" height="15" as="geometry" />
        </mxCell>
        <mxCell id="4XcQBWDd-9xv3mYqZWtT-182" value="# Git submodules (3rd party libraries)&amp;nbsp;" style="text;html=1;strokeColor=none;fillColor=none;align=left;verticalAlign=middle;whiteSpace=wrap;rounded=0;fontFamily=Computer Modern;" vertex="1" parent="1">
          <mxGeometry x="289" y="435" width="320" height="15" as="geometry" />
        </mxCell>
        <mxCell id="4XcQBWDd-9xv3mYqZWtT-183" value="# Top-level CMakeLists.txt" style="text;html=1;strokeColor=none;fillColor=none;align=left;verticalAlign=middle;whiteSpace=wrap;rounded=0;fontFamily=Computer Modern;" vertex="1" parent="1">
          <mxGeometry x="289" y="453" width="320" height="15" as="geometry" />
        </mxCell>
        <mxCell id="4XcQBWDd-9xv3mYqZWtT-184" value="# Predefined CMake configurations" style="text;html=1;strokeColor=none;fillColor=none;align=left;verticalAlign=middle;whiteSpace=wrap;rounded=0;fontFamily=Computer Modern;" vertex="1" parent="1">
          <mxGeometry x="289" y="473" width="320" height="15" as="geometry" />
        </mxCell>
        <mxCell id="4XcQBWDd-9xv3mYqZWtT-185" value="# Doxygen configuration" style="text;html=1;strokeColor=none;fillColor=none;align=left;verticalAlign=middle;whiteSpace=wrap;rounded=0;fontFamily=Computer Modern;" vertex="1" parent="1">
          <mxGeometry x="289" y="493" width="320" height="15" as="geometry" />
        </mxCell>
        <mxCell id="4XcQBWDd-9xv3mYqZWtT-186" value="# License file" style="text;html=1;strokeColor=none;fillColor=none;align=left;verticalAlign=middle;whiteSpace=wrap;rounded=0;fontFamily=Computer Modern;" vertex="1" parent="1">
          <mxGeometry x="289" y="513" width="320" height="15" as="geometry" />
        </mxCell>
        <mxCell id="4XcQBWDd-9xv3mYqZWtT-187" value="# Top-level README file (project description)" style="text;html=1;strokeColor=none;fillColor=none;align=left;verticalAlign=middle;whiteSpace=wrap;rounded=0;fontFamily=Computer Modern;" vertex="1" parent="1">
          <mxGeometry x="289" y="533" width="320" height="15" as="geometry" />
        </mxCell>
        <mxCell id="4XcQBWDd-9xv3mYqZWtT-188" value="# Script for cleaning the build directory (Windows)" style="text;html=1;strokeColor=none;fillColor=none;align=left;verticalAlign=middle;whiteSpace=wrap;rounded=0;fontFamily=Computer Modern;" vertex="1" parent="1">
          <mxGeometry x="289" y="553" width="320" height="15" as="geometry" />
        </mxCell>
        <mxCell id="4XcQBWDd-9xv3mYqZWtT-189" value="# Script for cleaning the build directory (Linux)" style="text;html=1;strokeColor=none;fillColor=none;align=left;verticalAlign=middle;whiteSpace=wrap;rounded=0;fontFamily=Computer Modern;" vertex="1" parent="1">
          <mxGeometry x="289" y="573" width="320" height="15" as="geometry" />
        </mxCell>
        <mxCell id="4XcQBWDd-9xv3mYqZWtT-190" value="# Code coverage configuration" style="text;html=1;strokeColor=none;fillColor=none;align=left;verticalAlign=middle;whiteSpace=wrap;rounded=0;fontFamily=Computer Modern;" vertex="1" parent="1">
          <mxGeometry x="289" y="593" width="320" height="15" as="geometry" />
        </mxCell>
        <mxCell id="4XcQBWDd-9xv3mYqZWtT-191" value="# GUI layout" style="text;html=1;strokeColor=none;fillColor=none;align=left;verticalAlign=middle;whiteSpace=wrap;rounded=0;fontFamily=Computer Modern;" vertex="1" parent="1">
          <mxGeometry x="289" y="613" width="320" height="15" as="geometry" />
        </mxCell>
        <mxCell id="4XcQBWDd-9xv3mYqZWtT-192" value="# Connection of external periphrals" style="text;html=1;strokeColor=none;fillColor=none;align=left;verticalAlign=middle;whiteSpace=wrap;rounded=0;fontFamily=Computer Modern;" vertex="1" parent="1">
          <mxGeometry x="289" y="633" width="320" height="15" as="geometry" />
        </mxCell>
      </root>
    </mxGraphModel>
  </diagram>
</mxfile>
